<?xml version="1.0" encoding="UTF-8"?>
<svg version="1.1" xmlns="http://www.w3.org/2000/svg" width="900" height="900">
<path d="M0 0 C0.81855469 0.41894531 1.63710938 0.83789062 2.48046875 1.26953125 C19.28193851 10.53838659 30.60112797 25.71926051 36 44 C37.5151575 49.9615427 38.78866721 55.97040492 40 62 C40.88014771 62.05945801 40.88014771 62.05945801 41.77807617 62.12011719 C78.49473472 64.70072691 113.92923538 72.7999165 139.49072266 101.22460938 C156.40254084 121.11829133 167.12545786 150.07805148 167.0234375 176.08984375 C166.4756017 188.67423898 166.4756017 188.67423898 170.52441406 200.12353516 C174.43391553 203.46429003 178.98533997 205.25828271 183.75341797 207.06054688 C187.29087685 208.53980593 190.24774035 210.66032493 193.3125 212.9375 C193.8789624 213.34822754 194.4454248 213.75895508 195.02905273 214.18212891 C201.1066483 218.66941591 206.56927794 223.76295562 212 229 C212.79019531 229.72703125 213.58039062 230.4540625 214.39453125 231.203125 C242.28226876 257.57681722 252.34315041 297.779005 262.8788147 333.33821106 C264.00026009 337.12198756 265.12429268 340.90498938 266.25 344.6875 C266.48783203 345.48741364 266.72566406 346.28732727 266.97070312 347.11148071 C272.23317541 364.7711067 277.82723419 382.32365237 283.4375 399.875 C283.67092857 400.60544777 283.90435715 401.33589554 284.14485931 402.08847809 C288.00134604 414.15553876 291.86634089 426.21987222 295.73183441 438.28404999 C298.60390141 447.24815332 301.47363408 456.21299117 304.33602047 465.18019104 C305.4477236 468.66234198 306.56099698 472.14397006 307.67868042 475.62420654 C312.11965855 489.45436289 316.45377431 503.30485918 320.453125 517.26953125 C320.77783783 518.40306534 321.10255066 519.53659943 321.43710327 520.70448303 C334.69086858 567.5845358 331.36148755 610.52325211 307.640625 653.515625 C301.42897004 664.33263252 293.61926143 674.01302264 285 683 C284.18273437 683.88042969 283.36546875 684.76085937 282.5234375 685.66796875 C271.07447222 697.6404118 257.66212467 706.437466 243 714 C242.28924316 714.36834961 241.57848633 714.73669922 240.84619141 715.11621094 C231.5935749 719.84819889 222.16160872 723.80605526 212.37109375 727.28515625 C211.28380981 727.67369278 210.19652588 728.06222931 209.07629395 728.46253967 C197.77828252 732.47472542 186.40284534 736.23593332 175 739.9375 C172.75056234 740.67079459 170.50113221 741.40411229 168.25170898 742.13745117 C150.71124204 747.84414233 133.12302689 753.39547385 115.52563477 758.92358398 C96.96923485 764.75646926 78.45928043 770.72040521 59.97856903 776.78793335 C58.00748795 777.4350417 56.03625471 778.08168486 54.06500244 778.72827148 C42.29618811 782.58975854 30.52962069 786.4562829 18.80859375 790.4609375 C-6.47294566 799.08923215 -33.08159419 807.85083132 -60 809 C-60.63502441 809.02723145 -61.27004883 809.05446289 -61.92431641 809.08251953 C-106.58589189 810.71310288 -149.08594274 795.52968075 -182.1875 765.5625 C-212.14965987 737.70294784 -224.679335 701.9118305 -236.02998352 663.63085938 C-249.05898611 619.69429666 -263.40900403 576.15845227 -277.66748047 532.60913086 C-280.51201352 523.92090974 -283.34791299 515.22988856 -286.17510986 506.53601074 C-286.71280821 504.88293147 -287.25099255 503.23001017 -287.78973389 501.57727051 C-308.02979578 439.46183459 -308.02979578 439.46183459 -306 408 C-305.95746094 407.33935547 -305.91492188 406.67871094 -305.87109375 405.99804688 C-304.41789643 385.5973922 -299.21194852 364.60283733 -289.1328125 346.6796875 C-287.68516667 344.13233361 -287.68516667 344.13233361 -288.77050781 342.0793457 C-289.98037724 340.03318646 -291.22711078 338.03307851 -292.5390625 336.05078125 C-312.10310742 306.09871965 -323.85164092 272.05999222 -317 236 C-310.46675739 205.16780101 -289.43431536 177.16736811 -264 159 C-263.34 159 -262.68 159 -262 159 C-262.23187012 158.39115967 -262.46374023 157.78231934 -262.70263672 157.1550293 C-263.76983478 154.33610108 -264.82244167 151.51192555 -265.875 148.6875 C-266.23980469 147.73037109 -266.60460937 146.77324219 -266.98046875 145.78710938 C-274.13574533 126.4678626 -273.8816053 106.82135727 -265.44140625 87.875 C-254.20264846 65.45839911 -235.60102623 53.18953553 -212.69140625 44.82421875 C-211.88582275 44.52906876 -211.08023926 44.23391876 -210.25024414 43.92982483 C-198.42942792 39.65123516 -186.45429169 35.82253743 -174.5 31.9375 C-171.91872781 31.09628817 -169.33778549 30.25406634 -166.75683594 29.41186523 C-161.59054005 27.72653474 -156.42347598 26.04358085 -151.25585938 24.36230469 C-144.82998512 22.27120492 -138.40666998 20.17237481 -131.984375 18.0703125 C-123.32705377 15.23772483 -114.66441685 12.4219177 -105.99755859 9.61865234 C-102.60047466 8.51959823 -99.20517156 7.41525131 -95.81103516 6.30712891 C-29.14933716 -15.43720587 -29.14933716 -15.43720587 0 0 Z " fill="#FDFEFD" transform="translate(444,51)"/>
<path d="M0 0 C0.81855469 0.41894531 1.63710938 0.83789062 2.48046875 1.26953125 C19.28193851 10.53838659 30.60112797 25.71926051 36 44 C37.5151575 49.9615427 38.78866721 55.97040492 40 62 C40.88014771 62.05945801 40.88014771 62.05945801 41.77807617 62.12011719 C78.49473472 64.70072691 113.92923538 72.7999165 139.49072266 101.22460938 C156.40254084 121.11829133 167.12545786 150.07805148 167.0234375 176.08984375 C166.4756017 188.67423898 166.4756017 188.67423898 170.52441406 200.12353516 C174.43391553 203.46429003 178.98533997 205.25828271 183.75341797 207.06054688 C187.29087685 208.53980593 190.24774035 210.66032493 193.3125 212.9375 C193.8789624 213.34822754 194.4454248 213.75895508 195.02905273 214.18212891 C201.1066483 218.66941591 206.56927794 223.76295562 212 229 C212.79019531 229.72703125 213.58039062 230.4540625 214.39453125 231.203125 C242.28226876 257.57681722 252.34315041 297.779005 262.8788147 333.33821106 C264.00026009 337.12198756 265.12429268 340.90498938 266.25 344.6875 C266.48783203 345.48741364 266.72566406 346.28732727 266.97070312 347.11148071 C272.23317541 364.7711067 277.82723419 382.32365237 283.4375 399.875 C283.67092857 400.60544777 283.90435715 401.33589554 284.14485931 402.08847809 C288.00134604 414.15553876 291.86634089 426.21987222 295.73183441 438.28404999 C298.60390141 447.24815332 301.47363408 456.21299117 304.33602047 465.18019104 C305.4477236 468.66234198 306.56099698 472.14397006 307.67868042 475.62420654 C312.11965855 489.45436289 316.45377431 503.30485918 320.453125 517.26953125 C320.77783783 518.40306534 321.10255066 519.53659943 321.43710327 520.70448303 C334.69086858 567.5845358 331.36148755 610.52325211 307.640625 653.515625 C301.42897004 664.33263252 293.61926143 674.01302264 285 683 C284.18273437 683.88042969 283.36546875 684.76085937 282.5234375 685.66796875 C271.07447222 697.6404118 257.66212467 706.437466 243 714 C242.28924316 714.36834961 241.57848633 714.73669922 240.84619141 715.11621094 C231.5935749 719.84819889 222.16160872 723.80605526 212.37109375 727.28515625 C211.28380981 727.67369278 210.19652588 728.06222931 209.07629395 728.46253967 C197.77828252 732.47472542 186.40284534 736.23593332 175 739.9375 C172.75056234 740.67079459 170.50113221 741.40411229 168.25170898 742.13745117 C150.71124204 747.84414233 133.12302689 753.39547385 115.52563477 758.92358398 C96.96923485 764.75646926 78.45928043 770.72040521 59.97856903 776.78793335 C58.00748795 777.4350417 56.03625471 778.08168486 54.06500244 778.72827148 C42.29618811 782.58975854 30.52962069 786.4562829 18.80859375 790.4609375 C-6.47294566 799.08923215 -33.08159419 807.85083132 -60 809 C-60.63502441 809.02723145 -61.27004883 809.05446289 -61.92431641 809.08251953 C-106.58589189 810.71310288 -149.08594274 795.52968075 -182.1875 765.5625 C-212.14965987 737.70294784 -224.679335 701.9118305 -236.02998352 663.63085938 C-249.05898611 619.69429666 -263.40900403 576.15845227 -277.66748047 532.60913086 C-280.51201352 523.92090974 -283.34791299 515.22988856 -286.17510986 506.53601074 C-286.71280821 504.88293147 -287.25099255 503.23001017 -287.78973389 501.57727051 C-308.02979578 439.46183459 -308.02979578 439.46183459 -306 408 C-305.95746094 407.33935547 -305.91492188 406.67871094 -305.87109375 405.99804688 C-304.41789643 385.5973922 -299.21194852 364.60283733 -289.1328125 346.6796875 C-287.68516667 344.13233361 -287.68516667 344.13233361 -288.77050781 342.0793457 C-289.98037724 340.03318646 -291.22711078 338.03307851 -292.5390625 336.05078125 C-312.10310742 306.09871965 -323.85164092 272.05999222 -317 236 C-310.46675739 205.16780101 -289.43431536 177.16736811 -264 159 C-263.34 159 -262.68 159 -262 159 C-262.23187012 158.39115967 -262.46374023 157.78231934 -262.70263672 157.1550293 C-263.76983478 154.33610108 -264.82244167 151.51192555 -265.875 148.6875 C-266.23980469 147.73037109 -266.60460937 146.77324219 -266.98046875 145.78710938 C-274.13574533 126.4678626 -273.8816053 106.82135727 -265.44140625 87.875 C-254.20264846 65.45839911 -235.60102623 53.18953553 -212.69140625 44.82421875 C-211.88582275 44.52906876 -211.08023926 44.23391876 -210.25024414 43.92982483 C-198.42942792 39.65123516 -186.45429169 35.82253743 -174.5 31.9375 C-171.91872781 31.09628817 -169.33778549 30.25406634 -166.75683594 29.41186523 C-161.59054005 27.72653474 -156.42347598 26.04358085 -151.25585938 24.36230469 C-144.82998512 22.27120492 -138.40666998 20.17237481 -131.984375 18.0703125 C-123.32705377 15.23772483 -114.66441685 12.4219177 -105.99755859 9.61865234 C-102.60047466 8.51959823 -99.20517156 7.41525131 -95.81103516 6.30712891 C-29.14933716 -15.43720587 -29.14933716 -15.43720587 0 0 Z M11.0625 131.3125 C10.29518555 131.43012695 9.52787109 131.54775391 8.73730469 131.66894531 C4.78607353 132.37407146 1.96334225 133.23782459 -1 136 C-0.74109357 137.39809472 -0.46722539 138.79342142 -0.1875 140.1875 C-0.03667969 140.96480469 0.11414063 141.74210938 0.26953125 142.54296875 C1.16700687 145.56175037 1.94481916 147.58163751 4 150 C7.41971333 150.53235444 7.41971333 150.53235444 11.25 150.1875 C16.78908717 149.89274938 20.80811782 150.25816388 26 152 C25.46944131 156.53048496 25.46944131 156.53048496 23.44555664 158.5546875 C16.40289377 162.98698365 8.98539349 166.52922851 1.4375 170 C0.02670509 170.65431089 -1.38401945 171.30877352 -2.79467773 171.96337891 C-17.7573518 178.88351694 -32.82648693 185.55599672 -48 192 C-49.00724121 192.43006348 -50.01448242 192.86012695 -51.05224609 193.30322266 C-69.21073597 200.97969974 -88.0747788 206.56301931 -107 212 C-108.09924805 212.31598145 -109.19849609 212.63196289 -110.33105469 212.95751953 C-179.09849473 232.30050176 -179.09849473 232.30050176 -198 226 C-197.675666 222.90021772 -197.36774097 221.37238612 -195.14453125 219.12109375 C-193.99017578 218.28771484 -193.99017578 218.28771484 -192.8125 217.4375 C-191.59820312 216.54417969 -191.59820312 216.54417969 -190.359375 215.6328125 C-188.45054042 214.31179784 -186.52697645 213.04759163 -184.5625 211.8125 C-181.83646829 209.88433123 -180.95530142 209.14655778 -180 206 C-180.84983967 202.89353676 -180.84983967 202.89353676 -182.375 199.75 C-182.85710937 198.67234375 -183.33921875 197.5946875 -183.8359375 196.484375 C-184.22007812 195.66453125 -184.60421875 194.8446875 -185 194 C-190.08277446 194.55076503 -194.14137911 196.29477555 -198.625 198.625 C-199.3257666 198.98400391 -200.0265332 199.34300781 -200.74853516 199.71289062 C-210.92702805 204.97498816 -220.2712425 210.5322187 -229 218 C-230.25103516 219.01513672 -230.25103516 219.01513672 -231.52734375 220.05078125 C-242.86719724 229.60840815 -249.72190542 240.55809881 -252.40625 255.21875 C-253.56210693 270.24489014 -243.96887624 288.95851879 -235 300.5 C-233.68969555 302.0201579 -232.35685354 303.52124165 -231 305 C-230.34 305.73992187 -229.68 306.47984375 -229 307.2421875 C-222.31143564 314.37491434 -215.48867486 317.9002026 -205.6875 318.375 C-200.80729174 318.72785154 -197.08740263 319.09579287 -193 322 C-191.97255699 323.3123028 -190.96793627 324.64321072 -190 326 C-194.49731982 331.74069648 -199.11716399 337.34979562 -203.875 342.875 C-204.38675781 343.47127197 -204.89851563 344.06754395 -205.42578125 344.68188477 C-209.47827509 349.40235107 -209.47827509 349.40235107 -211.38574219 351.58740234 C-225.98030127 368.30607744 -237.73950385 388.38746298 -239 411 C-239.05285156 411.86625 -239.10570312 412.7325 -239.16015625 413.625 C-239.62044604 428.35427342 -235.61315088 442.30238162 -230.93591309 456.10821533 C-230.02193287 458.80729917 -229.12306174 461.5110472 -228.22753906 464.21630859 C-227.23565627 467.21258784 -226.24301435 470.20858903 -225.24642944 473.20330811 C-221.04801242 485.8249735 -216.96819104 498.48502809 -212.88816452 511.14532852 C-212.24675793 513.13505734 -211.60479686 515.12460648 -210.962677 517.11410522 C-204.90422464 535.88726437 -198.92191758 554.68325006 -193 573.5 C-186.78193381 593.25654882 -180.49682331 612.99029421 -174.13995361 632.70254517 C-173.51654085 634.63619496 -172.89369235 636.57002562 -172.27099609 638.50390625 C-169.93120223 645.76671804 -167.5744721 653.02375872 -165.20605469 660.27728271 C-164.15109635 663.53361238 -163.11224213 666.79429612 -162.08092499 670.05814266 C-161.22085957 672.7703541 -160.34780534 675.47828389 -159.47242737 678.18558693 C-158.8666781 680.07308783 -158.27670976 681.96563099 -157.68737793 683.85832214 C-150.27568306 706.63898002 -133.52915141 720.79985144 -112.77734375 731.69140625 C-99.15878383 738.29384296 -85.7795102 741.18142869 -70.75 741.3125 C-69.6878125 741.34150391 -68.625625 741.37050781 -67.53125 741.40039062 C-49.86338573 741.5364583 -33.15738411 735.36635963 -16.5625 729.9375 C-14.38446476 729.2320797 -12.20615285 728.52751312 -10.02758789 727.82373047 C-5.40408037 726.3288516 -0.78204172 724.82955227 3.83886719 723.32666016 C14.67264173 719.80430455 25.51589982 716.31135147 36.35913086 712.8182373 C38.84151255 712.01840604 41.3237704 711.21819033 43.8059082 710.41760254 C60.67227371 704.97770443 77.5566981 699.59907797 94.46188354 694.28109741 C115.98503084 687.50887197 137.49013726 680.68125333 158.96878052 673.76919556 C161.95108586 672.80966967 164.93438448 671.85334074 167.91867065 670.8999939 C195.1980161 663.09865459 195.1980161 663.09865459 220.0625 650 C220.67625488 649.57195068 221.29000977 649.14390137 221.92236328 648.70288086 C243.42462167 633.49946561 256.05774154 610.3841092 262 585 C265.91772027 561.75485972 257.19018969 540.93579288 250.06925201 519.18589401 C248.15878722 513.34267076 246.26328 507.49456035 244.36548996 501.64721107 C243.88130111 500.15553235 243.39692793 498.66391345 242.91237259 497.17235374 C238.23873014 482.7850415 233.66208528 468.36849874 229.125 453.9375 C221.29380575 429.04890823 213.38289176 404.18639717 205.42016602 379.33959961 C204.45315084 376.32149567 203.48630107 373.30333879 202.51953125 370.28515625 C202.28307451 369.54712454 202.04661777 368.80909283 201.80299568 368.04869652 C198.96882127 359.19968325 196.15805396 350.34398788 193.38751221 341.47483826 C191.94961309 336.87202146 190.50287506 332.27200389 189.0557251 327.67208862 C188.40722748 325.60096504 187.76341744 323.52836623 187.12493896 321.45413208 C178.84891193 294.57173191 167.31675701 273.51297792 141.5234375 259.80078125 C140.36070312 259.20652344 139.19796875 258.61226562 138 258 C136.98164062 257.47792969 135.96328125 256.95585937 134.9140625 256.41796875 C119.21378112 249.07178771 101.56438791 245.7813122 84.78125 241.7265625 C82 241 82 241 80 240 C79.2821743 236.46162687 79.08839474 233.51547223 80 230 C82.5270317 227.55676167 85.20639317 225.8229 88.1640625 223.9296875 C94.56839681 219.57191732 97.93768339 213.33597835 100 206 C100.42172333 203.10993479 100.47617611 200.29255144 100.4375 197.375 C100.43137695 196.56595215 100.42525391 195.7569043 100.41894531 194.92333984 C100.01698152 178.68709459 97.61496831 156.23070157 86 144 C85.47535156 143.44699219 84.95070313 142.89398438 84.41015625 142.32421875 C69.64862137 128.32681038 44.26385643 129.44771348 25.41943359 129.85498047 C20.58297439 130.06009662 15.84337265 130.56483468 11.0625 131.3125 Z " fill="#010101" transform="translate(444,51)"/>
<path d="M0 0 C6.34811143 4.42554054 11.74509536 10.32212136 13.734375 17.90625 C14.70569939 26.73647175 13.60197495 33.09727575 9.86328125 41.0859375 C8.12711132 45.42335856 7.8581788 49.32873901 8.734375 53.90625 C11.12676511 58.78304522 14.45006455 61.71580604 18.734375 64.90625 C26.80614762 67.59684087 34.10196111 64.91266184 41.921875 62.53125 C56.11860859 58.23291589 69.63474153 56.47154097 84.421875 56.46875 C85.5789949 56.46515472 85.5789949 56.46515472 86.75949097 56.46148682 C102.8643296 56.46107464 118.36372937 58.65322698 134.20947266 61.32080078 C156.42188722 65.0100493 180.80290252 66.67637545 202.734375 60.90625 C203.92804688 60.63941406 205.12171875 60.37257813 206.3515625 60.09765625 C234.31546486 53.44662239 259.09708835 36.85549703 281.08032227 18.84643555 C281.62615967 18.53617432 282.17199707 18.22591309 282.734375 17.90625 C283.724375 18.23625 284.714375 18.56625 285.734375 18.90625 C286.92260742 21.53100586 286.92260742 21.53100586 288.08984375 25.12109375 C288.30852112 25.78293167 288.52719849 26.44476959 288.75250244 27.12666321 C289.48746074 29.36200924 290.20464898 31.60265698 290.921875 33.84375 C291.43863468 35.42900455 291.9563172 37.01395852 292.47485352 38.59863281 C293.92412564 43.04182717 295.35578586 47.49052087 296.78295898 51.94085693 C297.77945585 55.04675894 298.77908623 58.15163974 299.77929688 61.25634766 C305.74759367 79.7896702 311.6958948 98.32929601 317.48510742 116.91943359 C318.92202027 121.51903494 320.38888784 126.10900778 321.85546875 130.69921875 C333.49280679 167.14169838 333.49280679 167.14169838 337.734375 182.90625 C337.96592285 183.75848145 338.1974707 184.61071289 338.43603516 185.48876953 C339.1453686 188.1056025 339.8481581 190.72406356 340.546875 193.34375 C340.75441406 194.12024902 340.96195313 194.89674805 341.17578125 195.69677734 C341.46195313 196.78853271 341.46195313 196.78853271 341.75390625 197.90234375 C341.91995361 198.53325928 342.08600098 199.1641748 342.25708008 199.81420898 C343.88654562 206.95635233 343.91793265 213.86289711 343.921875 221.15625 C343.93412109 222.33316406 343.94636719 223.51007813 343.95898438 224.72265625 C343.99138439 244.14106786 337.51480402 261.32511589 324.125 275.53515625 C298.56400123 300.88732333 256.3226531 309.61772882 222.9776001 320.19470215 C219.93087336 321.16111959 216.8854165 322.13151548 213.83984375 323.1015625 C211.1794879 323.94805998 208.51882545 324.7934357 205.85644531 325.63354492 C199.06524897 327.78041703 192.3097001 330.02991213 185.57080078 332.33569336 C180.45277737 334.06733548 175.29713725 335.63648735 170.109375 337.14453125 C157.80136211 340.725371 145.59082178 344.62200557 133.36450195 348.47045898 C99.32677541 359.17792541 99.32677541 359.17792541 86.296875 361.15625 C84.63676392 361.40882568 84.63676392 361.40882568 82.94311523 361.66650391 C75.38264838 362.72956834 67.93077424 363.26861841 60.296875 363.28125 C58.94154663 363.28366699 58.94154663 363.28366699 57.55883789 363.28613281 C48.05364428 363.12749259 39.20168604 361.79794236 30.734375 357.34375 C29.7131958 356.81539551 29.7131958 356.81539551 28.67138672 356.27636719 C2.60950424 342.32013383 -8.77079797 315.3234094 -17.84326172 288.76196289 C-18.28260791 287.48092648 -18.72209935 286.19993987 -19.161726 284.91899967 C-20.53412987 280.91626025 -21.90068002 276.91153821 -23.265625 272.90625 C-23.69050453 271.65970013 -24.11538406 270.41315025 -24.55313873 269.12882614 C-30.04564266 252.99573575 -35.48468105 236.84463263 -40.90645027 220.68765163 C-43.40848719 213.23267653 -45.91756756 205.78021607 -48.44335938 198.33325195 C-50.67718573 191.74708498 -52.89818581 185.15675713 -55.10391128 178.56112343 C-56.26277372 175.09720687 -57.42754665 171.63556684 -58.60785294 168.17889214 C-59.91753624 164.34247709 -61.19831926 160.49698903 -62.47705078 156.65014648 C-62.86342209 155.53260483 -63.2497934 154.41506317 -63.64787292 153.26365662 C-66.85305443 143.48256317 -68.03562001 134.00331803 -63.65234375 124.40625 C-56.31078239 111.1707591 -46.02901135 102.03052444 -33.64892578 93.68603516 C-26.41539534 88.69541173 -21.29120184 82.65234535 -19.265625 73.90625 C-18.58688217 67.90913866 -18.73820901 63.01492143 -22.265625 57.90625 C-24.48390169 55.81846018 -26.8058513 54.19605191 -29.37890625 52.57421875 C-36.21954826 48.21690225 -42.19115523 43.49331623 -44.7890625 35.46484375 C-46.45109787 26.54162105 -46.65142931 16.98675718 -41.87109375 9.01953125 C-31.54344436 -4.57477123 -15.03076544 -8.42995311 0 0 Z " fill="#24A338" transform="translate(321.265625,389.09375)"/>
<path d="M0 0 C0.81855469 0.41894531 1.63710938 0.83789062 2.48046875 1.26953125 C19.28193851 10.53838659 30.60112797 25.71926051 36 44 C37.5151575 49.9615427 38.78866721 55.97040492 40 62 C40.88014771 62.05945801 40.88014771 62.05945801 41.77807617 62.12011719 C78.49473472 64.70072691 113.92923538 72.7999165 139.49072266 101.22460938 C156.40254084 121.11829133 167.12545786 150.07805148 167.0234375 176.08984375 C166.4756017 188.67423898 166.4756017 188.67423898 170.52441406 200.12353516 C174.43391553 203.46429003 178.98533997 205.25828271 183.75341797 207.06054688 C187.29087685 208.53980593 190.24774035 210.66032493 193.3125 212.9375 C193.8789624 213.34822754 194.4454248 213.75895508 195.02905273 214.18212891 C201.1066483 218.66941591 206.56927794 223.76295562 212 229 C212.79019531 229.72703125 213.58039062 230.4540625 214.39453125 231.203125 C242.28226876 257.57681722 252.34315041 297.779005 262.8788147 333.33821106 C264.00026009 337.12198756 265.12429268 340.90498938 266.25 344.6875 C266.48783203 345.48741364 266.72566406 346.28732727 266.97070312 347.11148071 C272.23317541 364.7711067 277.82723419 382.32365237 283.4375 399.875 C283.67092857 400.60544777 283.90435715 401.33589554 284.14485931 402.08847809 C288.00134604 414.15553876 291.86634089 426.21987222 295.73183441 438.28404999 C298.60390141 447.24815332 301.47363408 456.21299117 304.33602047 465.18019104 C305.4477236 468.66234198 306.56099698 472.14397006 307.67868042 475.62420654 C312.11965855 489.45436289 316.45377431 503.30485918 320.453125 517.26953125 C320.77783783 518.40306534 321.10255066 519.53659943 321.43710327 520.70448303 C334.69086858 567.5845358 331.36148755 610.52325211 307.640625 653.515625 C301.42897004 664.33263252 293.61926143 674.01302264 285 683 C284.18273437 683.88042969 283.36546875 684.76085937 282.5234375 685.66796875 C271.07447222 697.6404118 257.66212467 706.437466 243 714 C242.28924316 714.36834961 241.57848633 714.73669922 240.84619141 715.11621094 C231.5935749 719.84819889 222.16160872 723.80605526 212.37109375 727.28515625 C211.28380981 727.67369278 210.19652588 728.06222931 209.07629395 728.46253967 C197.77828252 732.47472542 186.40284534 736.23593332 175 739.9375 C172.75056234 740.67079459 170.50113221 741.40411229 168.25170898 742.13745117 C150.71124204 747.84414233 133.12302689 753.39547385 115.52563477 758.92358398 C96.96923485 764.75646926 78.45928043 770.72040521 59.97856903 776.78793335 C58.00748795 777.4350417 56.03625471 778.08168486 54.06500244 778.72827148 C42.29618811 782.58975854 30.52962069 786.4562829 18.80859375 790.4609375 C-6.47294566 799.08923215 -33.08159419 807.85083132 -60 809 C-60.63502441 809.02723145 -61.27004883 809.05446289 -61.92431641 809.08251953 C-106.58589189 810.71310288 -149.08594274 795.52968075 -182.1875 765.5625 C-212.14965987 737.70294784 -224.679335 701.9118305 -236.02998352 663.63085938 C-249.05898611 619.69429666 -263.40900403 576.15845227 -277.66748047 532.60913086 C-280.51201352 523.92090974 -283.34791299 515.22988856 -286.17510986 506.53601074 C-286.71280821 504.88293147 -287.25099255 503.23001017 -287.78973389 501.57727051 C-308.02979578 439.46183459 -308.02979578 439.46183459 -306 408 C-305.95746094 407.33935547 -305.91492188 406.67871094 -305.87109375 405.99804688 C-304.41789643 385.5973922 -299.21194852 364.60283733 -289.1328125 346.6796875 C-287.68516667 344.13233361 -287.68516667 344.13233361 -288.77050781 342.0793457 C-289.98037724 340.03318646 -291.22711078 338.03307851 -292.5390625 336.05078125 C-312.10310742 306.09871965 -323.85164092 272.05999222 -317 236 C-310.46675739 205.16780101 -289.43431536 177.16736811 -264 159 C-263.34 159 -262.68 159 -262 159 C-262.23187012 158.39115967 -262.46374023 157.78231934 -262.70263672 157.1550293 C-263.76983478 154.33610108 -264.82244167 151.51192555 -265.875 148.6875 C-266.23980469 147.73037109 -266.60460937 146.77324219 -266.98046875 145.78710938 C-274.13574533 126.4678626 -273.8816053 106.82135727 -265.44140625 87.875 C-254.20264846 65.45839911 -235.60102623 53.18953553 -212.69140625 44.82421875 C-211.88582275 44.52906876 -211.08023926 44.23391876 -210.25024414 43.92982483 C-198.42942792 39.65123516 -186.45429169 35.82253743 -174.5 31.9375 C-171.91872781 31.09628817 -169.33778549 30.25406634 -166.75683594 29.41186523 C-161.59054005 27.72653474 -156.42347598 26.04358085 -151.25585938 24.36230469 C-144.82998512 22.27120492 -138.40666998 20.17237481 -131.984375 18.0703125 C-123.32705377 15.23772483 -114.66441685 12.4219177 -105.99755859 9.61865234 C-102.60047466 8.51959823 -99.20517156 7.41525131 -95.81103516 6.30712891 C-29.14933716 -15.43720587 -29.14933716 -15.43720587 0 0 Z M-80.6875 25.625 C-82.41443819 26.19744592 -84.14165199 26.76906106 -85.86914062 27.33984375 C-88.56630094 28.23109453 -91.2632918 29.1228177 -93.95941162 30.01721191 C-107.27831798 34.43046656 -120.64223306 38.70616187 -134 43 C-134.99523241 43.31993801 -134.99523241 43.31993801 -136.01057053 43.64633942 C-138.67632588 44.5032871 -141.34209458 45.36019325 -144.00789738 46.21699333 C-149.30991876 47.92111404 -154.61159962 49.62629164 -159.91301632 51.33229256 C-163.25200177 52.40667632 -166.59128233 53.48012675 -169.93115234 54.55175781 C-211.67468865 65.75620209 -211.67468865 65.75620209 -242.82421875 93.6640625 C-244.9846745 97.95626362 -246.53915109 102.43016496 -248 107 C-248.495 108.485 -248.495 108.485 -249 110 C-250.63098017 130.78334733 -242.04308607 146.79281044 -233 165 C-236.376547 167.80403036 -239.86747644 170.28475593 -243.51977539 172.70410156 C-251.73456207 178.16688071 -258.94791816 184.12177534 -266 191 C-266.96099609 191.86818359 -266.96099609 191.86818359 -267.94140625 192.75390625 C-279.99769204 203.91506178 -290.05523487 221.07264002 -294 237 C-294.20238281 237.76441406 -294.40476562 238.52882813 -294.61328125 239.31640625 C-300.61868394 266.07517333 -291.8226978 293.89967033 -278.0703125 316.8203125 C-272.6957796 325.07478378 -266.64490341 332.73547537 -260 340 C-260.3403125 340.6084375 -260.680625 341.216875 -261.03125 341.84375 C-262.71186626 344.88316239 -264.35982076 347.93856375 -266 351 C-266.48146484 351.89162842 -266.48146484 351.89162842 -266.97265625 352.80126953 C-287.09008776 390.34394686 -285.83270838 427.77075481 -274 468 C-270.74631876 478.55426602 -267.30014212 489.04777823 -263.86633301 499.54449463 C-262.6379262 503.30263462 -261.4147194 507.06246511 -260.19140625 510.82226562 C-259.70965444 512.3027576 -259.22789383 513.78324671 -258.74612427 515.26373291 C-258.51012638 515.98898415 -258.27412849 516.71423538 -258.03097916 517.46146393 C-257.32481029 519.63071467 -256.61791751 521.79972834 -255.91085815 523.96868896 C-252.45717046 534.56711165 -249.05834713 545.18222867 -245.69464111 555.80953979 C-244.02117022 561.08661212 -242.32179319 566.3553903 -240.625 571.625 C-240.24545166 572.80497559 -239.86590332 573.98495117 -239.47485352 575.20068359 C-237.97679892 579.85792831 -236.47802603 584.51494162 -234.97900391 589.171875 C-229.89654804 604.96280737 -224.82994763 620.75881561 -219.77029419 636.55706787 C-219.05560011 638.78830889 -218.34065972 641.01947104 -217.62545776 643.25054932 C-213.5742484 655.88946803 -209.53917005 668.52885181 -205.7265625 681.2421875 C-199.41418218 702.05961196 -191.0983076 721.26524185 -177 738 C-175.88818359 739.33998047 -175.88818359 739.33998047 -174.75390625 740.70703125 C-153.29244935 765.61150263 -118.43565669 782.88388351 -85.71386719 785.8190918 C-66.15573107 787.12285024 -47.51804143 785.88721619 -28.6953125 780.44921875 C-27.80330643 780.19274063 -26.91130035 779.93626251 -25.99226379 779.67201233 C-13.47468736 776.02654504 -1.08779335 771.95963905 11.3125 767.9375 C16.1831919 766.36203688 21.05446715 764.78838182 25.92578125 763.21484375 C27.09094269 762.83814545 28.25610413 762.46144714 29.45657349 762.07333374 C36.64710862 759.75102477 43.84805478 757.46823408 51.06420898 755.22705078 C68.84279852 749.69844938 86.54668756 743.92905044 104.26283646 738.20458221 C110.42882353 736.21225972 116.59503255 734.22062634 122.76171875 732.23046875 C123.44832014 732.00888344 124.13492153 731.78729813 124.84232903 731.55899811 C135.3777032 728.15984972 145.92128541 724.78711251 156.47010803 721.42990112 C238.20239851 695.76523432 238.20239851 695.76523432 292.8059082 632.61621094 C307.99678833 602.48565184 312.4854597 569.49454936 303 537 C302.78118164 536.24251465 302.56236328 535.4850293 302.33691406 534.70458984 C300.4462835 528.24277716 298.35522621 521.87147945 296 515.5625 C294.3740059 511.20070629 293.03048463 506.78530395 291.75 502.3125 C289.69469453 495.13938573 287.38745048 488.0690743 285 481 C282.71284928 474.21879874 280.47266089 467.4422607 278.5 460.5625 C275.67351315 450.73195528 272.51060759 441.01402907 269.37548828 431.27832031 C266.42466059 422.10643613 263.494594 412.92788556 260.5625 403.75 C260.23461487 402.72431915 259.90672974 401.69863831 259.56890869 400.64187622 C255.65135382 388.38373234 251.77648104 376.11481299 248 363.8125 C245.31569818 355.06860448 242.45911611 346.4160637 239.37426758 337.80566406 C237.63831833 332.93066199 236.09169177 328.04233305 234.6875 323.0625 C229.39941258 304.53947343 223.53436638 285.80950247 214 269 C213.48953125 268.06800781 212.9790625 267.13601563 212.453125 266.17578125 C198.22452858 241.19923968 172.16549516 221.05516505 145 212 C145.01047363 211.14470703 145.02094727 210.28941406 145.03173828 209.40820312 C145.40108937 174.67985004 143.26305803 138.97252736 118.23046875 112.1484375 C92.53341615 87.39646039 56.09587385 84.33038353 22.23706055 84.95239258 C21.49883057 84.96810303 20.76060059 84.98381348 20 85 C19.83564453 83.68902344 19.83564453 83.68902344 19.66796875 82.3515625 C19.23403264 78.98591167 18.78051765 75.62414003 18.31201172 72.26318359 C18.10465225 70.75909732 17.90311509 69.25419643 17.70751953 67.74853516 C15.32888373 49.66855961 9.97838578 35.83655521 -4.359375 24.0625 C-12.89713854 18.00734855 -22.21999637 14.83201394 -32.625 14.6875 C-33.26695312 14.65849609 -33.90890625 14.62949219 -34.5703125 14.59960938 C-50.21146255 14.40993125 -66.06327548 20.72744798 -80.6875 25.625 Z " fill="#FDFDFD" transform="translate(444,51)"/>
<path d="M0 0 C0.70208631 2.65928024 1.26323892 5.25721406 1.765625 7.95703125 C1.93346497 8.82850296 2.10130493 9.69997467 2.27423096 10.59785461 C4.70522751 23.43502981 6.85179651 36.32595132 9.00146484 49.21264648 C9.62857045 52.97003796 10.26546289 56.72570288 10.90458298 60.4810667 C11.40201244 63.41349606 11.89278591 66.34701152 12.38175201 69.28086281 C12.61378914 70.66658289 12.84817698 72.05191174 13.0851059 73.43680382 C16.60752234 94.07003736 16.60752234 94.07003736 13.0390625 99.171875 C7.93105569 105.18024601 -0.37386025 106.92162804 -7.625 109.25 C-9.28431224 109.80405525 -10.94283018 110.36049439 -12.60058594 110.91918945 C-16.03080186 112.07040007 -19.46564722 113.20583845 -22.90527344 114.32861328 C-27.7126284 115.8998237 -32.50246043 117.51918397 -37.2890625 119.15234375 C-62.17698801 127.61920517 -87.2206382 135.6354921 -112.6875 142.1875 C-113.84572266 142.49147705 -115.00394531 142.7954541 -116.19726562 143.10864258 C-117.27041016 143.37572021 -118.34355469 143.64279785 -119.44921875 143.91796875 C-120.38080811 144.15281982 -121.31239746 144.3876709 -122.2722168 144.62963867 C-125.55283866 145.07506097 -127.82208233 144.96345078 -131 144 C-134.24197893 140.46361858 -136.34804695 136.67382088 -138.47998047 132.39648438 C-138.80254822 131.75339325 -139.12511597 131.11030212 -139.4574585 130.44772339 C-140.51652456 128.33258485 -141.56695502 126.21328671 -142.6171875 124.09375 C-143.35891655 122.60722865 -144.10112241 121.12094512 -144.84378052 119.6348877 C-146.39902912 116.51979448 -147.9503401 113.40278436 -149.49853516 110.28417969 C-151.46537996 106.32238651 -153.43901294 102.36402848 -155.41531181 98.40694427 C-157.31844818 94.59546332 -159.21786133 90.78213063 -161.1171875 86.96875 C-161.471618 86.25800827 -161.82604851 85.54726654 -162.19121933 84.81498718 C-164.17235863 80.83913385 -166.1363578 76.85559207 -168.08229828 72.86239624 C-169.00170327 70.99654337 -169.9460949 69.14491653 -170.89361572 67.29321289 C-171.46255554 66.14522217 -172.03149536 64.99723145 -172.61767578 63.81445312 C-173.12662384 62.80999146 -173.6355719 61.80552979 -174.15994263 60.77062988 C-175 58 -175 58 -174.31956482 55.22923279 C-172.36147018 51.92128708 -170.19559478 51.49250841 -166.58984375 50.25390625 C-165.89592026 50.01080215 -165.20199677 49.76769806 -164.48704529 49.51722717 C-161.99862514 48.65517627 -159.50036265 47.82675512 -157 47 C-154.97018743 46.31762711 -152.94040394 45.63516773 -150.91064453 44.95263672 C-143.80617094 42.57859891 -136.68507092 40.25656072 -129.5625 37.9375 C-128.27203372 37.51619773 -126.98161868 37.09473851 -125.69125366 36.67312622 C-105.4158134 30.04869163 -85.10282691 23.54770105 -64.7590332 17.13632202 C-57.51154987 14.85029229 -50.27422637 12.53321445 -43.04159546 10.20065308 C-41.73855547 9.78049195 -40.43535708 9.36082169 -39.13198853 8.94168091 C-33.18327614 7.02852378 -27.24306582 5.10052586 -21.33984375 3.05078125 C-20.50638428 2.76323975 -19.6729248 2.47569824 -18.81420898 2.17944336 C-17.35058932 1.67067378 -15.88998626 1.15306543 -14.43383789 0.62329102 C-9.73577559 -1.01225923 -4.64696006 -2.32348003 0 0 Z " fill="#C26F24" transform="translate(414,112)"/>
<path d="M0 0 C15.08781308 8.64141209 24.99128569 25.35543017 30.11328125 41.5234375 C33.59527149 56.51043695 33.97282079 74.53016035 26.04296875 88.02734375 C22.21884645 93.56787442 18.10777623 96.79409197 11.55078125 98.4609375 C3.05755058 99.85688372 -3.67100578 96.56995304 -10.51171875 91.7734375 C-24.72218788 80.50111706 -32.86939663 63.64995914 -36.07421875 46.0234375 C-37.50788031 32.35055411 -37.60192398 17.99121969 -29.19921875 6.4375 C-20.93823002 -2.89299174 -11.41197464 -5.00494067 0 0 Z " fill="#EEF0EF" transform="translate(409.44921875,570.5390625)"/>
<path d="M0 0 C15.34321364 7.99417895 24.89400951 24.13303507 30.1875 39.99609375 C34.58386265 55.12576364 35.4058256 72.73447147 27.796875 87.0546875 C24.32936186 91.89095582 19.90472394 96.53175869 14.1875 98.4375 C4.84347164 99.59270851 -2.02414395 97.65850323 -9.8125 92.4375 C-24.37582246 80.7323997 -32.876685 61.45385721 -35.5625 43.25 C-36.4474083 29.7551484 -36.08868018 16.24722488 -27.0703125 5.328125 C-19.60998386 -2.42037084 -10.24385901 -4.15822151 0 0 Z " fill="#EEF0F0" transform="translate(538.8125,528.5625)"/>
<path d="M0 0 C8.48818975 5.07864799 13.33886483 11.64159448 16.4375 20.9375 C17.13496405 29.1927302 16.70508348 35.76852312 12.4375 42.9375 C12.09847656 43.56269531 11.75945313 44.18789063 11.41015625 44.83203125 C7.86616365 50.62097289 1.94387006 54.38814006 -4.42578125 56.578125 C-13.05955948 58.03024127 -21.75394442 58.01427872 -29.4140625 53.484375 C-36.67662599 48.25532929 -41.77238275 41.85462612 -43.5625 32.9375 C-44.41536656 24.1851317 -43.10750996 16.90738079 -37.94921875 9.67578125 C-28.59589822 -1.54405558 -13.73288568 -6.422765 0 0 Z " fill="#26A339" transform="translate(535.5625,377.0625)"/>
<path d="M0 0 C-0.36823393 2.52479222 -0.66614043 3.70876615 -2.61962891 5.4128418 C-3.66256104 6.04959839 -3.66256104 6.04959839 -4.7265625 6.69921875 C-5.50346436 7.18156982 -6.28036621 7.6639209 -7.08081055 8.16088867 C-7.92039307 8.66467041 -8.75997559 9.16845215 -9.625 9.6875 C-10.91627808 10.48087769 -10.91627808 10.48087769 -12.23364258 11.2902832 C-14.81538503 12.87211726 -17.40679235 14.43705437 -20 16 C-21.34555535 16.82209352 -22.69065582 17.64493234 -24.03515625 18.46875 C-27.05754392 20.31208749 -30.09730007 22.12339112 -33.15087891 23.91455078 C-34.41055816 24.65399281 -35.66796365 25.39731882 -36.92333984 26.14404297 C-53.11072349 35.74536354 -69.84184365 42.12028873 -88 47 C-89.17046875 47.3196875 -90.3409375 47.639375 -91.546875 47.96875 C-100.46032667 50.06110955 -109.51494171 50.62045519 -118.625 51.25 C-119.63213043 51.32099915 -119.63213043 51.32099915 -120.65960693 51.39343262 C-122.5980078 51.52631428 -124.53728786 51.64617064 -126.4765625 51.765625 C-128.1793335 51.87052246 -128.1793335 51.87052246 -129.91650391 51.97753906 C-132.78870475 51.99846087 -135.22012508 51.68377787 -138 51 C-137.41430664 49.15771484 -137.41430664 49.15771484 -136 47 C-133.11889648 45.66650391 -133.11889648 45.66650391 -129.37109375 44.4765625 C-128.34463493 44.14294205 -128.34463493 44.14294205 -127.29743958 43.80258179 C-125.80355433 43.31884791 -124.3074348 42.84197361 -122.80944824 42.37109375 C-120.3985765 41.61275666 -117.99419812 40.83642975 -115.59082031 40.0546875 C-113.04081341 39.22539114 -110.49051855 38.39714554 -107.93850708 37.57403564 C-98.34304418 34.47873936 -88.79194598 31.25606796 -79.25 28 C-77.96128998 27.56057571 -77.96128998 27.56057571 -76.64654541 27.11227417 C-54.72874951 19.62491628 -32.89364004 11.79500621 -11.63012695 2.58862305 C-10.82019287 2.24484619 -10.01025879 1.90106934 -9.17578125 1.546875 C-8.48395752 1.24620117 -7.79213379 0.94552734 -7.0793457 0.63574219 C-4.64089386 -0.10979364 -2.53558517 -0.10948552 0 0 Z " fill="#2A2829" transform="translate(504,290)"/>
<path d="M0 0 C4.35311051 1.66929196 7.27321015 4.2550404 10.5 7.5625 C12.94396274 13.16324794 13.2190852 19.34274439 11.26953125 25.19140625 C8.89960105 29.67009067 5.49420349 32.75289825 1 35 C-11.1591273 36.19040407 -11.1591273 36.19040407 -16.0625 33 C-20.23997278 29.29015477 -22.55209334 24.98758359 -23.37890625 19.47265625 C-23.64317127 13.80374531 -22.86444041 10.37291941 -19 6 C-12.85424747 0.23051804 -8.37574278 -0.9946901 0 0 Z " fill="#26A43A" transform="translate(455,369)"/>
</svg>
