<svg width="512" height="512" version="1.1" xmlns="http://www.w3.org/2000/svg" desc="Created with imagetracer.js version 1.2.6"><path fill="rgb(7,7,7)" stroke="rgb(7,7,7)" stroke-width="1" opacity="1" d="M 144.5 102 Q 147.1 101.3 146 104 L 142 103.5 L 144.5 102 Z "></path><path fill="rgb(7,7,7)" stroke="rgb(7,7,7)" stroke-width="1" opacity="1" d="M 366 102 Q 370.5 100.5 369 105 Q 364.8 104 365.5 107 L 361 107 Q 362.1 109.7 359.5 109 L 354 110 L 354 112 L 347.5 112 L 347 114 L 345.5 114 Q 344.3 116.2 339.5 115 L 337.5 117 L 330.5 117 L 327.5 120 L 318.5 120 L 316.5 122 L 306.5 122 L 298.5 125 L 214.5 125 L 205.5 122 L 195.5 122 L 193.5 120 L 184.5 120 L 180.5 117 L 174.5 117 L 172.5 115 Q 167.1 115.6 165 114 L 165 112 L 158.5 112 Q 159.5 108.8 153.5 110 Q 152.1 106 147 107 Q 145.7 103.7 150.5 105 L 152.5 107 L 158 108 L 158 110 L 164.5 110 Q 163.5 113.3 169.5 112 L 174 113 L 174.5 115 L 181.5 115 Q 185.5 119.7 195 118 L 195.5 120 L 209.5 120 L 215.5 123 L 296.5 123 L 302.5 120 L 315.5 120 L 317.5 118 Q 326.7 119.2 330.5 115 L 338 115 Q 336.8 112 340.5 113 L 347 112 L 347 110 L 353.5 110 L 354 108 L 355.5 108 L 361 107 L 361 105 L 366 105 L 366 102 Z "></path><path fill="rgb(7,7,7)" stroke="rgb(7,7,7)" stroke-width="1" opacity="1" d="M 371.5 105 L 372 116.5 L 370 118.5 Q 371.2 128.8 369 134 L 367 134 L 367 145.5 L 365 146 L 365 135.5 L 367 132.5 L 368 117.5 L 370 114.5 L 370 106.5 L 371.5 105 Z "></path><path fill="rgb(7,7,7)" stroke="rgb(7,7,7)" stroke-width="1" opacity="1" d="M 141.5 108 L 143 109.5 L 143 122.5 L 145 124.5 L 145 133.5 Q 147.2 134.8 146 139.5 L 148 142.5 L 148 147 Q 144.3 148.3 146 142.5 L 143 138.5 L 143 125.5 L 141 123.5 L 141 110.5 L 140 109.5 L 141.5 108 Z "></path><path fill="rgb(7,7,7)" stroke="rgb(7,7,7)" stroke-width="1" opacity="1" d="M 150.5 147 L 239.5 147 L 240 147.5 L 240 423.5 L 253 436.5 L 253 438.5 L 251 437.5 Q 251.8 435.3 249.5 436 L 248 433 L 246 433 Q 247.1 430.3 244.5 431 L 243 428 Q 240.3 429.1 241 426.5 L 238 425 L 238 171.5 L 236 169.5 L 236 159.5 L 237 154.5 L 236 152 Q 239 153 238 150 L 149.5 150 L 149 148.5 L 150.5 147 Z "></path><path fill="rgb(7,7,7)" stroke="rgb(7,7,7)" stroke-width="1" opacity="1" d="M 273.5 147 L 363.5 147 L 364 148.5 L 362.5 150 L 275 150 L 275 422.5 L 273 423 L 273 424.5 L 270 429 Q 267.3 427.9 268 430.5 L 265 432 L 265 434 Q 262.3 432.9 263 435.5 L 258 439.5 L 258 441 L 254 441 Q 252.8 438 256.5 439 L 260 437 L 260 434 Q 262.7 435.1 262 432.5 L 265 431 Q 263.9 428.3 266.5 429 L 268 426 Q 270.7 427.1 270 424.5 L 273 423 L 273 150.5 L 272 148.5 L 273.5 147 Z "></path><path fill="rgb(7,7,7)" stroke="rgb(7,7,7)" stroke-width="1" opacity="1" d="M 98 164 L 218.5 164 L 219 166 L 98.5 166 L 98 164 Z "></path><path fill="rgb(7,7,7)" stroke="rgb(7,7,7)" stroke-width="1" opacity="1" d="M 293 164 L 413.5 164 L 414 165.5 L 415 167.5 L 412.5 166 L 409.5 167 L 293 167 L 293 164 Z "></path><path fill="rgb(7,7,7)" stroke="rgb(7,7,7)" stroke-width="1" opacity="1" d="M 95 168 Q 98.3 166.7 97 171.5 L 94 176.5 L 94 189.5 L 92 192.5 L 92 203.5 L 88.5 208 Q 85.3 206.3 89 204.5 L 90 190 L 92 189.5 L 92 175.5 L 95 168 Z "></path><path fill="rgb(7,7,7)" stroke="rgb(7,7,7)" stroke-width="1" opacity="1" d="M 290.5 168 L 291 399.5 L 289 398.5 L 289 169.5 L 290.5 168 Z "></path><path fill="rgb(7,7,7)" stroke="rgb(7,7,7)" stroke-width="1" opacity="1" d="M 222 169 L 224 169.5 L 224 398.5 L 222 399.5 L 221 392.5 L 222 389.5 L 221 385.5 L 222 382.5 L 221 381.5 L 221 372.5 L 222 369.5 L 221 368.5 L 221 172.5 L 222 169 Z "></path><path fill="rgb(7,7,7)" stroke="rgb(7,7,7)" stroke-width="1" opacity="1" d="M 416 169 Q 420 167.6 418 174.5 L 419 179.5 L 421 181.5 L 421 197 Q 425 195.6 423 202.5 L 424 208 L 421 207.5 L 421 198.5 L 419 196.5 L 419 182.5 Q 414.3 178.5 416 169 Z "></path><path fill="rgb(7,7,7)" stroke="rgb(7,7,7)" stroke-width="1" opacity="1" d="M 187.5 188 L 189 188.5 L 189 372 L 187 371.5 L 187 193.5 L 186 191 L 180.5 193 L 152 193 Q 153.1 195.7 150.5 195 L 149.5 196 L 138 196 L 137.5 198 L 129.5 198 Q 126.5 202.7 118 201 L 118 203 L 111.5 203 L 111 204.5 Q 109.4 207.5 104 206 Q 105.3 209 101.5 208 L 96.5 211 L 92 211 L 92 209 L 97 209 Q 95.9 206.3 98.5 207 L 104.5 204 L 110 204 L 111.5 201 L 117.5 201 Q 116.6 197.8 124.5 199 L 128.5 196 L 136.5 196 L 138.5 194 L 150.5 193 L 153.5 191 L 174.5 191 L 178.5 189 L 186.5 189 L 187.5 188 Z "></path><path fill="rgb(7,7,7)" stroke="rgb(7,7,7)" stroke-width="1" opacity="1" d="M 324 189 Q 333 187.3 337.5 191 L 358.5 191 L 361.5 193 L 373.5 194 L 375.5 196 L 383.5 196 L 387.5 199 L 394 199 Q 392.6 203 399.5 201 L 402 202 Q 400.6 206 407.5 204 L 415.5 209 L 420 209 L 420 211 L 414 211 Q 415.3 208 411.5 209 L 408 208 Q 409.4 204 402.5 206 Q 400.2 201.9 394 203 L 393.5 201 L 386.5 201 Q 383.2 196.1 374 198 L 373.5 196 L 362.5 196 L 359 195 L 358.5 193 L 333.5 193 L 327.5 191 L 326 192.5 L 326 371 L 323 372.5 L 321 377 L 318 378.5 Q 318.7 381.1 316 380 L 316 382 L 313 382 L 313 385 L 311 385 Q 312.1 387.7 309.5 387 L 308 390 Q 305.3 388.9 306 391.5 L 303 393 L 303 395 Q 300.3 393.9 301 396.5 L 298 398 Q 299 401 296 400 L 296 398 Q 298.7 399.1 298 396.5 L 303 393 L 304.5 390 Q 306.8 390.8 306 388.5 L 317 377.5 L 317 376 Q 319.7 377.1 319 374.5 L 322 373 L 324 369.5 L 324 189 Z "></path><path fill="rgb(7,7,7)" stroke="rgb(7,7,7)" stroke-width="1" opacity="1" d="M 190.5 372 L 192 375 Q 194.7 373.9 194 376.5 L 197 378 Q 196 381 199 380 L 199 383 L 202 383 Q 200.9 385.7 203.5 385 L 205 388 L 207 388 Q 205.9 390.7 208.5 390 L 210 393 Q 212.7 391.9 212 394.5 L 215 396 Q 213.5 399.8 216.5 399 Q 217.6 401.8 221 401 Q 222.3 404.3 217.5 403 L 214.5 399 L 212 397.5 L 210 394.5 L 207 393 Q 208.1 390.3 205.5 391 L 204 388 L 202 388 Q 203.5 384.2 200.5 385 L 197 383 L 197 380 L 194 380 L 194 377 L 192 377 Q 193.1 374.3 190.5 375 Q 187.5 373.5 190.5 372 Z "></path><path fill="rgb(7,7,7)" stroke="rgb(7,7,7)" stroke-width="1" opacity="1" d="M 292 401 Q 296.1 399.7 295 403 Q 290.9 404.3 292 401 Z "></path><path fill="rgb(16,16,16)" stroke="rgb(16,16,16)" stroke-width="1" opacity="1" d="M 4.5 3 L 504.5 3 L 506.5 4 L 508.5 3 L 510 4.5 L 510 508.5 L 508.5 510 L 4.5 510 L 3 508.5 L 3 4.5 L 4.5 3 Z M 145 102 L 142 104 L 146 104 Q 147 101 145 102 Z M 366 102 L 366 105 L 361 105 L 361 107 L 362 108 L 358 105 L 356 105 L 356 108 Q 353 107 354 110 L 355 111 L 354 110 L 347 110 Q 346 113 349 112 L 349 113 L 347 112 Q 344 113 345 110 L 341 113 Q 337 112 338 115 Q 335 116 336 113 L 334 113 L 334 115 L 325 118 L 318 118 L 316 120 L 303 120 L 297 123 L 216 123 L 210 120 L 196 120 L 195 118 L 187 118 L 182 115 L 179 115 L 179 113 Q 175 112 176 115 Q 173 116 174 113 L 170 113 L 170 111 L 165 113 L 163 113 L 165 112 Q 166 109 163 110 L 163 108 Q 159 107 160 110 L 158 111 L 158 110 Q 159 107 156 108 L 156 105 Q 152 103 153 107 L 151 105 L 147 106 L 141 105 L 140 110 L 141 111 L 141 124 L 143 126 L 143 139 Q 148 141 146 149 L 148 149 Q 147 146 150 147 L 149 149 L 151 151 L 235 151 L 238 150 Q 239 153 236 152 L 237 155 L 236 160 L 236 170 L 238 172 L 238 425 L 241 427 Q 240 429 243 428 L 243 429 Q 240 428 241 431 L 244 430 L 244 432 Q 242 433 245 434 L 245 432 L 246 432 Q 245 434 248 433 L 248 434 Q 245 433 246 436 L 249 435 L 251 437 L 249 437 L 250 439 L 252 438 L 251 440 Q 250 442 253 441 L 254 438 L 254 441 L 258 441 L 258 440 Q 261 438 259 437 L 261 437 L 263 436 Q 262 433 265 434 L 265 432 L 268 431 Q 267 428 270 429 L 273 425 L 272 423 L 273 150 L 273 423 L 275 423 L 275 152 L 277 152 Q 279 153 278 150 L 281 151 L 354 151 L 355 152 L 362 151 L 366 146 L 367 146 L 367 135 L 369 134 L 370 131 L 370 125 L 372 124 L 372 122 L 370 122 Q 369 117 372 117 L 372 106 L 369 105 Q 370 100 366 102 Z M 148 103 L 148 104 L 150 104 L 148 103 Z M 350 108 L 350 109 L 352 109 L 350 108 Z M 374 109 L 373 113 L 374 113 L 374 109 Z M 140 111 L 139 118 L 140 118 L 140 111 Z M 187 116 L 187 117 L 190 117 L 187 116 Z M 321 116 L 321 117 L 325 117 L 321 116 Z M 200 118 L 200 119 L 203 119 L 200 118 Z M 309 118 L 309 119 L 311 119 L 309 118 Z M 222 121 L 222 122 L 295 122 L 222 121 Z M 369 138 L 368 144 L 369 144 L 369 138 Z M 366 147 Q 364 150 367 149 L 366 147 Z M 98 164 L 99 166 L 219 166 L 219 164 L 98 164 Z M 293 164 L 293 168 L 289 170 L 289 399 L 292 403 Q 297 405 295 400 L 297 400 Q 301 402 300 398 L 303 397 L 302 396 L 302 395 Q 304 396 303 394 L 303 392 L 305 395 L 305 393 L 308 392 L 305 390 L 307 390 Q 309 391 308 389 L 311 387 Q 312 389 313 387 L 313 382 L 318 382 L 318 379 Q 319 376 323 377 L 322 375 L 323 373 L 326 371 L 326 193 L 328 191 L 334 193 L 359 193 L 359 195 L 363 196 L 374 196 L 374 198 Q 383 196 387 201 L 389 201 Q 388 204 391 203 L 390 202 L 394 201 L 395 201 L 394 203 Q 400 202 403 206 Q 405 205 404 208 Q 407 209 406 206 Q 409 205 408 208 L 411 208 L 411 210 L 413 209 Q 415 208 414 211 L 420 211 L 420 210 L 424 208 Q 426 207 425 203 L 423 203 Q 425 196 421 197 L 421 182 L 419 180 L 420 176 L 420 170 L 419 175 L 418 175 Q 419 168 417 169 L 414 166 L 414 164 L 293 164 Z M 99 167 L 95 168 L 92 176 L 92 190 L 90 190 Q 92 196 88 198 Q 87 202 89 204 L 87 207 L 89 208 L 91 207 L 90 210 L 97 211 L 99 210 Q 98 212 101 211 L 102 208 Q 105 209 104 206 Q 107 205 106 208 Q 109 209 108 206 L 111 205 L 112 203 L 118 203 L 117 201 L 119 201 Q 127 203 130 198 L 138 198 L 138 196 L 150 196 L 151 195 Q 153 196 152 193 L 181 193 L 186 191 L 187 194 L 187 372 L 190 372 L 190 373 Q 186 372 187 375 L 190 374 L 191 377 L 191 376 L 192 376 Q 191 378 194 377 Q 195 375 196 378 L 195 377 L 193 378 L 194 380 L 197 380 L 197 385 L 199 385 L 201 385 Q 204 384 202 388 L 204 388 L 206 391 Q 208 390 207 393 L 210 395 Q 209 397 212 396 L 214 399 L 216 398 L 215 400 L 216 402 Q 217 404 221 403 L 222 395 L 222 400 L 224 399 L 224 170 L 222 169 L 222 172 L 221 168 L 219 167 L 99 167 Z M 288 170 L 287 370 L 288 370 L 288 170 Z M 91 180 L 90 185 L 91 185 L 91 180 Z M 423 185 L 422 193 L 423 193 L 423 185 Z M 160 194 L 160 195 L 167 195 L 160 194 Z M 186 194 L 185 198 L 186 198 L 186 194 Z M 347 194 L 347 195 L 352 195 L 347 194 Z M 354 194 L 354 195 L 356 195 L 354 194 Z M 131 199 L 131 200 L 134 200 L 131 199 Z M 378 199 L 378 200 L 381 200 L 378 199 Z M 186 200 L 185 369 L 186 369 L 186 200 Z M 113 204 L 113 205 L 116 205 L 113 204 Z M 397 204 Q 396 207 399 206 Q 400 203 397 204 Z M 237 333 L 236 336 L 237 336 L 237 333 Z M 237 361 L 236 364 L 237 364 L 237 361 Z M 288 374 L 287 390 L 288 390 L 288 374 Z M 319 378 L 319 380 L 321 379 L 319 378 Z M 314 383 L 314 385 L 316 384 L 314 383 Z M 309 388 Q 308 391 311 390 Q 312 387 309 388 Z M 237 392 L 236 402 L 237 402 L 237 392 Z M 288 394 L 287 397 L 288 397 L 288 394 Z M 296 401 L 296 403 L 298 402 L 296 401 Z M 237 405 L 236 420 L 237 420 L 237 405 Z M 238 426 Q 237 429 240 428 Q 241 425 238 426 Z "></path><path fill="rgb(16,16,16)" stroke="rgb(16,16,16)" stroke-width="1" opacity="1" d="M 150.5 107 L 151.5 109 L 150.5 107 Z "></path><path fill="rgb(16,16,16)" stroke="rgb(16,16,16)" stroke-width="1" opacity="1" d="M 172.5 115 L 173.5 117 L 172.5 115 Z "></path><path fill="rgb(16,16,16)" stroke="rgb(16,16,16)" stroke-width="1" opacity="1" d="M 339.5 115 L 338.5 117 L 339.5 115 Z "></path><path fill="rgb(16,16,16)" stroke="rgb(16,16,16)" stroke-width="1" opacity="1" d="M 330.5 117 L 333 117.5 L 329.5 119 L 330.5 117 Z "></path><path fill="rgb(16,16,16)" stroke="rgb(16,16,16)" stroke-width="1" opacity="1" d="M 193.5 120 L 194.5 122 L 193.5 120 Z "></path><path fill="rgb(16,16,16)" stroke="rgb(16,16,16)" stroke-width="1" opacity="1" d="M 318.5 120 L 320 120.5 L 317.5 122 L 318.5 120 Z "></path><path fill="rgb(16,16,16)" stroke="rgb(16,16,16)" stroke-width="1" opacity="1" d="M 143.5 121 L 145 123.5 L 143 122.5 L 143.5 121 Z "></path><path fill="rgb(16,16,16)" stroke="rgb(16,16,16)" stroke-width="1" opacity="1" d="M 202.5 122 L 206 122.5 L 202.5 123 L 202.5 122 Z "></path><path fill="rgb(16,16,16)" stroke="rgb(16,16,16)" stroke-width="1" opacity="1" d="M 306.5 122 L 310 122.5 L 306.5 123 L 306.5 122 Z "></path><path fill="rgb(16,16,16)" stroke="rgb(16,16,16)" stroke-width="1" opacity="1" d="M 367.5 123 L 368 127.5 L 367 127.5 L 367.5 123 Z "></path><path fill="rgb(16,16,16)" stroke="rgb(16,16,16)" stroke-width="1" opacity="1" d="M 145.5 130 L 146 133.5 L 145 133.5 L 145.5 130 Z "></path><path fill="rgb(16,16,16)" stroke="rgb(16,16,16)" stroke-width="1" opacity="1" d="M 410.5 166 L 414 167.5 L 412.5 167 Q 409.5 167.5 410.5 166 Z "></path><path fill="rgb(16,16,16)" stroke="rgb(16,16,16)" stroke-width="1" opacity="1" d="M 94.5 176 L 95 179.5 L 94 179.5 L 94.5 176 Z "></path><path fill="rgb(16,16,16)" stroke="rgb(16,16,16)" stroke-width="1" opacity="1" d="M 417.5 181 Q 419.8 181.8 419 185.5 L 418 185.5 L 417.5 181 Z "></path><path fill="rgb(16,16,16)" stroke="rgb(16,16,16)" stroke-width="1" opacity="1" d="M 175.5 189 L 178 189.5 Q 174.9 191.9 168.5 191 L 168.5 190 Q 174 191.5 175.5 189 Z "></path><path fill="rgb(16,16,16)" stroke="rgb(16,16,16)" stroke-width="1" opacity="1" d="M 337.5 190 L 344 190.5 L 337.5 191 L 337.5 190 Z "></path><path fill="rgb(16,16,16)" stroke="rgb(16,16,16)" stroke-width="1" opacity="1" d="M 141.5 193 L 144 193.5 L 141.5 194 L 141.5 193 Z "></path><path fill="rgb(16,16,16)" stroke="rgb(16,16,16)" stroke-width="1" opacity="1" d="M 137.5 194 L 136.5 196 L 135 195.5 L 137.5 194 Z "></path><path fill="rgb(16,16,16)" stroke="rgb(16,16,16)" stroke-width="1" opacity="1" d="M 374.5 194 L 375.5 196 L 374.5 194 Z "></path><path fill="rgb(16,16,16)" stroke="rgb(16,16,16)" stroke-width="1" opacity="1" d="M 419.5 197 L 421 199.5 L 420 199.5 L 419.5 197 Z "></path><path fill="rgb(16,16,16)" stroke="rgb(16,16,16)" stroke-width="1" opacity="1" d="M 122.5 198 L 125 198.5 L 122.5 199 L 122.5 198 Z "></path><path fill="rgb(16,16,16)" stroke="rgb(16,16,16)" stroke-width="1" opacity="1" d="M 387.5 198 L 390 198.5 L 387.5 199 L 387.5 198 Z "></path><path fill="rgb(16,16,16)" stroke="rgb(16,16,16)" stroke-width="1" opacity="1" d="M 413.5 206 L 415.5 209 L 413.5 206 Z "></path><path fill="rgb(16,16,16)" stroke="rgb(16,16,16)" stroke-width="1" opacity="1" d="M 221.5 369 L 222 371.5 L 221 371.5 L 221.5 369 Z "></path><path fill="rgb(16,16,16)" stroke="rgb(16,16,16)" stroke-width="1" opacity="1" d="M 316.5 377 L 313.5 381 L 316.5 377 Z "></path><path fill="rgb(16,16,16)" stroke="rgb(16,16,16)" stroke-width="1" opacity="1" d="M 199.5 381 L 200.5 383 Q 197.7 383.7 199.5 381 Z "></path><path fill="rgb(16,16,16)" stroke="rgb(16,16,16)" stroke-width="1" opacity="1" d="M 221.5 382 L 222 384.5 L 221 384.5 L 221.5 382 Z "></path><path fill="rgb(16,16,16)" stroke="rgb(16,16,16)" stroke-width="1" opacity="1" d="M 311.5 382 L 310.5 384 L 311.5 382 Z "></path><path fill="rgb(16,16,16)" stroke="rgb(16,16,16)" stroke-width="1" opacity="1" d="M 221.5 389 L 222 391.5 L 221 391.5 L 221.5 389 Z "></path><path fill="rgb(16,16,16)" stroke="rgb(16,16,16)" stroke-width="1" opacity="1" d="M 240.5 423 L 241.5 425 L 240.5 423 Z "></path><path fill="rgb(21,21,21)" stroke="rgb(21,21,21)" stroke-width="1" opacity="1" d="M 4 0 Q 7.1 -0.8 6.5 2 L 507 2 Q 506 -1 509 0 L 512 4.5 L 511 5.5 L 511 506.5 L 512 508.5 L 508.5 512 L 507.5 511 L 278 510.5 L 508.5 510 L 510 508.5 L 510 4.5 L 508.5 3 L 505.5 4 L 504.5 3 L 4.5 3 L 3 4.5 L 3 508.5 L 4.5 510 L 277 510.5 L 5.5 511 L 4.5 512 L 0 508.5 L 2 508 L 2 6.5 Q -0.8 7.1 0 4 L 4 1.5 L 4 0 Z "></path><path fill="rgb(21,21,21)" stroke="rgb(21,21,21)" stroke-width="1" opacity="1" d="M 147.5 103 L 150 103.5 L 147.5 104 L 147.5 103 Z "></path><path fill="rgb(21,21,21)" stroke="rgb(21,21,21)" stroke-width="1" opacity="1" d="M 153 105 Q 157.1 103.7 156 107 Q 151.9 108.3 153 105 Z "></path><path fill="rgb(21,21,21)" stroke="rgb(21,21,21)" stroke-width="1" opacity="1" d="M 356 105 L 359 106.5 L 356 107 L 356 105 Z "></path><path fill="rgb(21,21,21)" stroke="rgb(21,21,21)" stroke-width="1" opacity="1" d="M 141.5 107 L 142.5 109 L 141.5 107 Z "></path><path fill="rgb(21,21,21)" stroke="rgb(21,21,21)" stroke-width="1" opacity="1" d="M 160 108 L 163 108.5 L 160 110 L 160 108 Z "></path><path fill="rgb(21,21,21)" stroke="rgb(21,21,21)" stroke-width="1" opacity="1" d="M 349.5 108 L 352 108.5 L 349.5 109 L 349.5 108 Z "></path><path fill="rgb(21,21,21)" stroke="rgb(21,21,21)" stroke-width="1" opacity="1" d="M 373.5 109 L 374 112.5 L 373 112.5 L 373.5 109 Z "></path><path fill="rgb(21,21,21)" stroke="rgb(21,21,21)" stroke-width="1" opacity="1" d="M 343.5 110 Q 346.1 109.3 345 112 L 342 111.5 L 343.5 110 Z "></path><path fill="rgb(21,21,21)" stroke="rgb(21,21,21)" stroke-width="1" opacity="1" d="M 139.5 111 L 140 117.5 L 139 117.5 L 139.5 111 Z "></path><path fill="rgb(21,21,21)" stroke="rgb(21,21,21)" stroke-width="1" opacity="1" d="M 167.5 111 L 170 111.5 L 167.5 112 L 167.5 111 Z "></path><path fill="rgb(21,21,21)" stroke="rgb(21,21,21)" stroke-width="1" opacity="1" d="M 176 113 L 179 113.5 L 176 115 L 176 113 Z "></path><path fill="rgb(21,21,21)" stroke="rgb(21,21,21)" stroke-width="1" opacity="1" d="M 333.5 113 Q 337.3 112 336 115 L 333.5 113 Z "></path><path fill="rgb(21,21,21)" stroke="rgb(21,21,21)" stroke-width="1" opacity="1" d="M 186.5 116 L 190 116.5 L 186.5 117 L 186.5 116 Z "></path><path fill="rgb(21,21,21)" stroke="rgb(21,21,21)" stroke-width="1" opacity="1" d="M 320.5 116 L 325 116.5 L 320.5 117 L 320.5 116 Z "></path><path fill="rgb(21,21,21)" stroke="rgb(21,21,21)" stroke-width="1" opacity="1" d="M 199.5 118 L 203 118.5 L 199.5 119 L 199.5 118 Z "></path><path fill="rgb(21,21,21)" stroke="rgb(21,21,21)" stroke-width="1" opacity="1" d="M 308.5 118 L 311 118.5 L 308.5 119 L 308.5 118 Z "></path><path fill="rgb(21,21,21)" stroke="rgb(21,21,21)" stroke-width="1" opacity="1" d="M 221.5 121 L 295 121.5 L 221.5 122 L 221.5 121 Z "></path><path fill="rgb(21,21,21)" stroke="rgb(21,21,21)" stroke-width="1" opacity="1" d="M 371.5 121 L 372 124 Q 369.3 125.1 370 122.5 L 371.5 121 Z "></path><path fill="rgb(21,21,21)" stroke="rgb(21,21,21)" stroke-width="1" opacity="1" d="M 368.5 138 L 369 143.5 L 368 143.5 L 368.5 138 Z "></path><path fill="rgb(21,21,21)" stroke="rgb(21,21,21)" stroke-width="1" opacity="1" d="M 364.5 146 L 366.5 149 Q 364.3 149.8 365 147.5 L 364.5 146 Z "></path><path fill="rgb(21,21,21)" stroke="rgb(21,21,21)" stroke-width="1" opacity="1" d="M 146 147 Q 149 146 148 149 Q 145 150 146 147 Z "></path><path fill="rgb(21,21,21)" stroke="rgb(21,21,21)" stroke-width="1" opacity="1" d="M 150.5 150 L 235 150.5 L 150.5 151 L 150.5 150 Z "></path><path fill="rgb(21,21,21)" stroke="rgb(21,21,21)" stroke-width="1" opacity="1" d="M 275.5 150 Q 279.3 149 278 152 L 275.5 150 Z "></path><path fill="rgb(21,21,21)" stroke="rgb(21,21,21)" stroke-width="1" opacity="1" d="M 280.5 150 L 362 150.5 L 354.5 152 L 353.5 151 L 280.5 151 L 280.5 150 Z "></path><path fill="rgb(21,21,21)" stroke="rgb(21,21,21)" stroke-width="1" opacity="1" d="M 298.5 167 L 305 167.5 L 298.5 168 L 298.5 167 Z "></path><path fill="rgb(21,21,21)" stroke="rgb(21,21,21)" stroke-width="1" opacity="1" d="M 328.5 167 L 349 167.5 L 328.5 168 L 328.5 167 Z "></path><path fill="rgb(21,21,21)" stroke="rgb(21,21,21)" stroke-width="1" opacity="1" d="M 287.5 170 L 288 369.5 L 287 369.5 L 287.5 170 Z "></path><path fill="rgb(21,21,21)" stroke="rgb(21,21,21)" stroke-width="1" opacity="1" d="M 419.5 170 L 420 175.5 L 419 175.5 L 419.5 170 Z "></path><path fill="rgb(21,21,21)" stroke="rgb(21,21,21)" stroke-width="1" opacity="1" d="M 90.5 180 L 91 184.5 L 90 184.5 L 90.5 180 Z "></path><path fill="rgb(21,21,21)" stroke="rgb(21,21,21)" stroke-width="1" opacity="1" d="M 422.5 185 L 423 192.5 L 422 192.5 L 422.5 185 Z "></path><path fill="rgb(21,21,21)" stroke="rgb(21,21,21)" stroke-width="1" opacity="1" d="M 159.5 194 L 167 194.5 L 159.5 195 L 159.5 194 Z "></path><path fill="rgb(21,21,21)" stroke="rgb(21,21,21)" stroke-width="1" opacity="1" d="M 185.5 194 L 186 197.5 L 185 197.5 L 185.5 194 Z "></path><path fill="rgb(21,21,21)" stroke="rgb(21,21,21)" stroke-width="1" opacity="1" d="M 346.5 194 L 352 194.5 L 346.5 195 L 346.5 194 Z "></path><path fill="rgb(21,21,21)" stroke="rgb(21,21,21)" stroke-width="1" opacity="1" d="M 353.5 194 L 356 194.5 L 353.5 195 L 353.5 194 Z "></path><path fill="rgb(21,21,21)" stroke="rgb(21,21,21)" stroke-width="1" opacity="1" d="M 88.5 197 L 89 202.5 L 88 202.5 L 88.5 197 Z "></path><path fill="rgb(21,21,21)" stroke="rgb(21,21,21)" stroke-width="1" opacity="1" d="M 130.5 199 L 134 199.5 L 130.5 200 L 130.5 199 Z "></path><path fill="rgb(21,21,21)" stroke="rgb(21,21,21)" stroke-width="1" opacity="1" d="M 377.5 199 L 381 199.5 L 377.5 200 L 377.5 199 Z "></path><path fill="rgb(21,21,21)" stroke="rgb(21,21,21)" stroke-width="1" opacity="1" d="M 185.5 200 L 186 368.5 L 185 368.5 L 185.5 200 Z "></path><path fill="rgb(21,21,21)" stroke="rgb(21,21,21)" stroke-width="1" opacity="1" d="M 389.5 201 L 390.5 203 Q 387.7 203.7 389.5 201 Z "></path><path fill="rgb(21,21,21)" stroke="rgb(21,21,21)" stroke-width="1" opacity="1" d="M 424.5 202 L 425 206.5 L 424 206.5 L 424.5 202 Z "></path><path fill="rgb(21,21,21)" stroke="rgb(21,21,21)" stroke-width="1" opacity="1" d="M 112.5 204 L 116 204.5 L 112.5 205 L 112.5 204 Z "></path><path fill="rgb(21,21,21)" stroke="rgb(21,21,21)" stroke-width="1" opacity="1" d="M 397 204 Q 400 203 399 206 Q 396 207 397 204 Z "></path><path fill="rgb(21,21,21)" stroke="rgb(21,21,21)" stroke-width="1" opacity="1" d="M 106 206 Q 109 205 108 208 Q 105 209 106 206 Z "></path><path fill="rgb(21,21,21)" stroke="rgb(21,21,21)" stroke-width="1" opacity="1" d="M 404 206 Q 407 205 406 208 Q 403 209 404 206 Z "></path><path fill="rgb(21,21,21)" stroke="rgb(21,21,21)" stroke-width="1" opacity="1" d="M 90.5 207 L 92 209.5 L 90 208.5 L 90.5 207 Z "></path><path fill="rgb(21,21,21)" stroke="rgb(21,21,21)" stroke-width="1" opacity="1" d="M 99 209 L 102 209.5 L 99 211 L 99 209 Z "></path><path fill="rgb(21,21,21)" stroke="rgb(21,21,21)" stroke-width="1" opacity="1" d="M 236.5 333 L 237 335.5 L 236 335.5 L 236.5 333 Z "></path><path fill="rgb(21,21,21)" stroke="rgb(21,21,21)" stroke-width="1" opacity="1" d="M 236.5 361 L 237 363.5 L 236 363.5 L 236.5 361 Z "></path><path fill="rgb(21,21,21)" stroke="rgb(21,21,21)" stroke-width="1" opacity="1" d="M 187 373 Q 190 372 189 375 Q 186 376 187 373 Z "></path><path fill="rgb(21,21,21)" stroke="rgb(21,21,21)" stroke-width="1" opacity="1" d="M 287.5 374 L 288 389.5 L 287 389.5 L 287.5 374 Z "></path><path fill="rgb(21,21,21)" stroke="rgb(21,21,21)" stroke-width="1" opacity="1" d="M 321 375 Q 324 374 323 377 Q 320 378 321 375 Z "></path><path fill="rgb(21,21,21)" stroke="rgb(21,21,21)" stroke-width="1" opacity="1" d="M 192.5 378 Q 194.8 377.3 194 379.5 L 192.5 378 Z "></path><path fill="rgb(21,21,21)" stroke="rgb(21,21,21)" stroke-width="1" opacity="1" d="M 319 378 L 321 378.5 L 319 379.5 L 319 378 Z "></path><path fill="rgb(21,21,21)" stroke="rgb(21,21,21)" stroke-width="1" opacity="1" d="M 316 380 Q 319 379 318 382 Q 315 383 316 380 Z "></path><path fill="rgb(21,21,21)" stroke="rgb(21,21,21)" stroke-width="1" opacity="1" d="M 197 383 Q 200 382 199 385 Q 196 386 197 383 Z "></path><path fill="rgb(21,21,21)" stroke="rgb(21,21,21)" stroke-width="1" opacity="1" d="M 315.5 383 L 314.5 385 L 315.5 383 Z "></path><path fill="rgb(21,21,21)" stroke="rgb(21,21,21)" stroke-width="1" opacity="1" d="M 312.5 385 L 313 386.5 L 311 390 Q 308 391 309 388 Q 311.7 389.1 311 386.5 L 312.5 385 Z "></path><path fill="rgb(21,21,21)" stroke="rgb(21,21,21)" stroke-width="1" opacity="1" d="M 306 391 L 308 391.5 L 306 392.5 L 306 391 Z "></path><path fill="rgb(21,21,21)" stroke="rgb(21,21,21)" stroke-width="1" opacity="1" d="M 236.5 392 L 237 401.5 L 236 401.5 L 236.5 392 Z "></path><path fill="rgb(21,21,21)" stroke="rgb(21,21,21)" stroke-width="1" opacity="1" d="M 287.5 394 L 288 396.5 L 287 396.5 L 287.5 394 Z "></path><path fill="rgb(21,21,21)" stroke="rgb(21,21,21)" stroke-width="1" opacity="1" d="M 301 396 L 303 396.5 L 301 397.5 L 301 396 Z "></path><path fill="rgb(21,21,21)" stroke="rgb(21,21,21)" stroke-width="1" opacity="1" d="M 297.5 397 L 300 398 Q 301 401 298 400 L 297.5 397 Z "></path><path fill="rgb(21,21,21)" stroke="rgb(21,21,21)" stroke-width="1" opacity="1" d="M 291.5 400 L 295 400.5 L 291 401 L 290.5 403 L 290 401.5 L 291.5 400 Z "></path><path fill="rgb(21,21,21)" stroke="rgb(21,21,21)" stroke-width="1" opacity="1" d="M 296 401 L 298 401.5 L 296 402.5 L 296 401 Z "></path><path fill="rgb(21,21,21)" stroke="rgb(21,21,21)" stroke-width="1" opacity="1" d="M 236.5 405 L 237 419.5 L 236 419.5 L 236.5 405 Z "></path><path fill="rgb(21,21,21)" stroke="rgb(21,21,21)" stroke-width="1" opacity="1" d="M 238 426 Q 241 425 240 428 Q 237 429 238 426 Z "></path><path fill="rgb(21,21,21)" stroke="rgb(21,21,21)" stroke-width="1" opacity="1" d="M 241 429 Q 244 428 243 431 Q 240 432 241 429 Z "></path><path fill="rgb(21,21,21)" stroke="rgb(21,21,21)" stroke-width="1" opacity="1" d="M 244.5 431 L 245 433.5 L 243 432.5 L 244.5 431 Z "></path><path fill="rgb(21,21,21)" stroke="rgb(21,21,21)" stroke-width="1" opacity="1" d="M 246 434 Q 249 433 248 436 Q 245 437 246 434 Z "></path><path fill="rgb(21,21,21)" stroke="rgb(21,21,21)" stroke-width="1" opacity="1" d="M 248.5 437 L 251 437.5 Q 248.9 440.8 248.5 437 Z "></path><path fill="rgb(21,21,21)" stroke="rgb(21,21,21)" stroke-width="1" opacity="1" d="M 251 439 Q 254 438 253 441 Q 250 442 251 439 Z "></path><path fill="rgb(26,26,25)" stroke="rgb(26,26,25)" stroke-width="1" opacity="1" d="M 0 0 Q 4.5 -1.5 3 3 Q -1.5 4.5 0 0 Z "></path><path fill="rgb(26,26,25)" stroke="rgb(26,26,25)" stroke-width="1" opacity="1" d="M 142.5 105 Q 146.3 104.3 147 106.5 L 145.5 106 Q 142.2 104.9 143 107.5 L 141 106.5 L 142.5 105 Z "></path><path fill="rgb(26,26,25)" stroke="rgb(26,26,25)" stroke-width="1" opacity="1" d="M 367.5 105 L 370 105 L 370 111.5 L 369 111.5 Q 370.3 105.4 367.5 106 L 366 106.5 L 367.5 105 Z "></path><path fill="rgb(26,26,25)" stroke="rgb(26,26,25)" stroke-width="1" opacity="1" d="M 148.5 107 L 152 109.5 L 149.5 108 L 148.5 107 Z "></path><path fill="rgb(26,26,25)" stroke="rgb(26,26,25)" stroke-width="1" opacity="1" d="M 362.5 107 L 364 107.5 L 360.5 110 L 362.5 107 Z "></path><path fill="rgb(26,26,25)" stroke="rgb(26,26,25)" stroke-width="1" opacity="1" d="M 155.5 110 L 158 111.5 L 156.5 111 L 155.5 110 Z "></path><path fill="rgb(26,26,25)" stroke="rgb(26,26,25)" stroke-width="1" opacity="1" d="M 355.5 110 L 357 110.5 L 354.5 112 L 355.5 110 Z "></path><path fill="rgb(26,26,25)" stroke="rgb(26,26,25)" stroke-width="1" opacity="1" d="M 159.5 112 L 162 112.5 L 159.5 113 L 159.5 112 Z "></path><path fill="rgb(26,26,25)" stroke="rgb(26,26,25)" stroke-width="1" opacity="1" d="M 350.5 112 L 353 112.5 L 350.5 113 L 350.5 112 Z "></path><path fill="rgb(26,26,25)" stroke="rgb(26,26,25)" stroke-width="1" opacity="1" d="M 348.5 113 L 347.5 115 L 346 114.5 L 348.5 113 Z "></path><path fill="rgb(26,26,25)" stroke="rgb(26,26,25)" stroke-width="1" opacity="1" d="M 368.5 113 L 369 115.5 L 368 115.5 L 368.5 113 Z "></path><path fill="rgb(26,26,25)" stroke="rgb(26,26,25)" stroke-width="1" opacity="1" d="M 143.5 115 L 144 118.5 L 143 118.5 L 143.5 115 Z "></path><path fill="rgb(26,26,25)" stroke="rgb(26,26,25)" stroke-width="1" opacity="1" d="M 170.5 115 L 173 116.5 L 171.5 116 L 170.5 115 Z "></path><path fill="rgb(26,26,25)" stroke="rgb(26,26,25)" stroke-width="1" opacity="1" d="M 340.5 115 L 342 115.5 L 339.5 117 L 340.5 115 Z "></path><path fill="rgb(26,26,25)" stroke="rgb(26,26,25)" stroke-width="1" opacity="1" d="M 174.5 117 L 178 117.5 L 174.5 118 L 174.5 117 Z "></path><path fill="rgb(26,26,25)" stroke="rgb(26,26,25)" stroke-width="1" opacity="1" d="M 334.5 117 L 338 117.5 L 334.5 118 L 334.5 117 Z "></path><path fill="rgb(26,26,25)" stroke="rgb(26,26,25)" stroke-width="1" opacity="1" d="M 367.5 117 L 368 120.5 L 367 120.5 L 367.5 117 Z "></path><path fill="rgb(26,26,25)" stroke="rgb(26,26,25)" stroke-width="1" opacity="1" d="M 180.5 118 L 183 119.5 L 181.5 119 L 180.5 118 Z "></path><path fill="rgb(26,26,25)" stroke="rgb(26,26,25)" stroke-width="1" opacity="1" d="M 330.5 118 L 332 118.5 L 329.5 120 L 330.5 118 Z "></path><path fill="rgb(26,26,25)" stroke="rgb(26,26,25)" stroke-width="1" opacity="1" d="M 144.5 120 L 145 122.5 L 144 122.5 L 144.5 120 Z "></path><path fill="rgb(26,26,25)" stroke="rgb(26,26,25)" stroke-width="1" opacity="1" d="M 189.5 120 L 194 121.5 L 192.5 122 L 189.5 121 L 189.5 120 Z "></path><path fill="rgb(26,26,25)" stroke="rgb(26,26,25)" stroke-width="1" opacity="1" d="M 320.5 120 L 323 120.5 L 318.5 122 L 318.5 121 L 320.5 120 Z "></path><path fill="rgb(26,26,25)" stroke="rgb(26,26,25)" stroke-width="1" opacity="1" d="M 195.5 122 L 199 122.5 L 195.5 123 L 195.5 122 Z "></path><path fill="rgb(26,26,25)" stroke="rgb(26,26,25)" stroke-width="1" opacity="1" d="M 313.5 122 L 317 122.5 L 313.5 123 L 313.5 122 Z "></path><path fill="rgb(26,26,25)" stroke="rgb(26,26,25)" stroke-width="1" opacity="1" d="M 205.5 123 L 208 123.5 L 205.5 124 L 205.5 123 Z "></path><path fill="rgb(26,26,25)" stroke="rgb(26,26,25)" stroke-width="1" opacity="1" d="M 304.5 123 L 307 123.5 L 304.5 124 L 304.5 123 Z "></path><path fill="rgb(26,26,25)" stroke="rgb(26,26,25)" stroke-width="1" opacity="1" d="M 145.5 124 L 146 127.5 L 145 127.5 L 145.5 124 Z "></path><path fill="rgb(26,26,25)" stroke="rgb(26,26,25)" stroke-width="1" opacity="1" d="M 209.5 124 L 212 124.5 L 209.5 125 L 209.5 124 Z "></path><path fill="rgb(26,26,25)" stroke="rgb(26,26,25)" stroke-width="1" opacity="1" d="M 300.5 124 L 303 124.5 L 300.5 125 L 300.5 124 Z "></path><path fill="rgb(26,26,25)" stroke="rgb(26,26,25)" stroke-width="1" opacity="1" d="M 223.5 125 L 289 125.5 L 223.5 126 L 223.5 125 Z "></path><path fill="rgb(26,26,25)" stroke="rgb(26,26,25)" stroke-width="1" opacity="1" d="M 366.5 128 L 367 130.5 L 365.5 134 L 365 131.5 L 366.5 128 Z "></path><path fill="rgb(26,26,25)" stroke="rgb(26,26,25)" stroke-width="1" opacity="1" d="M 146.5 135 L 148 140.5 L 147 140.5 L 146.5 135 Z "></path><path fill="rgb(26,26,25)" stroke="rgb(26,26,25)" stroke-width="1" opacity="1" d="M 364.5 140 L 365 144.5 L 364 144.5 L 364.5 140 Z "></path><path fill="rgb(26,26,25)" stroke="rgb(26,26,25)" stroke-width="1" opacity="1" d="M 271.5 149 L 272 422.5 L 270 423.5 L 271 422.5 L 271.5 149 Z "></path><path fill="rgb(26,26,25)" stroke="rgb(26,26,25)" stroke-width="1" opacity="1" d="M 99.5 167 L 217.5 167 L 221 169.5 L 220.5 397 L 220 169 L 217.5 168 L 99.5 168 L 99.5 167 Z "></path><path fill="rgb(26,26,25)" stroke="rgb(26,26,25)" stroke-width="1" opacity="1" d="M 413.5 168 L 416 169.5 L 415.5 171 L 415 169 L 413.5 168 Z "></path><path fill="rgb(26,26,25)" stroke="rgb(26,26,25)" stroke-width="1" opacity="1" d="M 291.5 170 L 292 172.5 L 291 172.5 L 291.5 170 Z "></path><path fill="rgb(26,26,25)" stroke="rgb(26,26,25)" stroke-width="1" opacity="1" d="M 96.5 173 L 97 175.5 L 95.5 179 L 95 176.5 L 96.5 173 Z "></path><path fill="rgb(26,26,25)" stroke="rgb(26,26,25)" stroke-width="1" opacity="1" d="M 94.5 182 L 95 188.5 L 94 188.5 L 94.5 182 Z "></path><path fill="rgb(26,26,25)" stroke="rgb(26,26,25)" stroke-width="1" opacity="1" d="M 175.5 188 L 187 188.5 L 175.5 189 L 175.5 188 Z "></path><path fill="rgb(26,26,25)" stroke="rgb(26,26,25)" stroke-width="1" opacity="1" d="M 326.5 188 L 336 188.5 L 326.5 189 L 326.5 188 Z "></path><path fill="rgb(26,26,25)" stroke="rgb(26,26,25)" stroke-width="1" opacity="1" d="M 418.5 188 L 419 195.5 L 418 195.5 L 418.5 188 Z "></path><path fill="rgb(26,26,25)" stroke="rgb(26,26,25)" stroke-width="1" opacity="1" d="M 168.5 189 L 174 189.5 L 168.5 190 L 168.5 189 Z "></path><path fill="rgb(26,26,25)" stroke="rgb(26,26,25)" stroke-width="1" opacity="1" d="M 338.5 189 L 344 189.5 L 338.5 190 L 338.5 189 Z "></path><path fill="rgb(26,26,25)" stroke="rgb(26,26,25)" stroke-width="1" opacity="1" d="M 156.5 190 L 166 190.5 L 156.5 191 L 156.5 190 Z "></path><path fill="rgb(26,26,25)" stroke="rgb(26,26,25)" stroke-width="1" opacity="1" d="M 346.5 190 L 356 190.5 L 346.5 191 L 346.5 190 Z "></path><path fill="rgb(26,26,25)" stroke="rgb(26,26,25)" stroke-width="1" opacity="1" d="M 93.5 191 L 94 193.5 L 92.5 198 L 92 194.5 L 93.5 191 Z "></path><path fill="rgb(26,26,25)" stroke="rgb(26,26,25)" stroke-width="1" opacity="1" d="M 149.5 191 L 152 191.5 L 146.5 193 L 146.5 192 L 149.5 191 Z "></path><path fill="rgb(26,26,25)" stroke="rgb(26,26,25)" stroke-width="1" opacity="1" d="M 360.5 191 L 366 192.5 L 363.5 193 L 360.5 192 L 360.5 191 Z "></path><path fill="rgb(26,26,25)" stroke="rgb(26,26,25)" stroke-width="1" opacity="1" d="M 137.5 193 L 140 193.5 L 131.5 196 L 131.5 195 Q 136.1 195.6 137.5 193 Z "></path><path fill="rgb(26,26,25)" stroke="rgb(26,26,25)" stroke-width="1" opacity="1" d="M 323.5 193 L 324 368.5 L 322 369.5 L 323 368.5 L 323.5 193 Z "></path><path fill="rgb(26,26,25)" stroke="rgb(26,26,25)" stroke-width="1" opacity="1" d="M 375.5 194 L 381 195.5 L 377.5 196 L 375.5 194 Z "></path><path fill="rgb(26,26,25)" stroke="rgb(26,26,25)" stroke-width="1" opacity="1" d="M 126.5 196 L 125.5 198 L 124 197.5 L 126.5 196 Z "></path><path fill="rgb(26,26,25)" stroke="rgb(26,26,25)" stroke-width="1" opacity="1" d="M 385.5 196 L 388 197.5 L 386.5 198 L 385.5 196 Z "></path><path fill="rgb(26,26,25)" stroke="rgb(26,26,25)" stroke-width="1" opacity="1" d="M 118.5 198 L 121 198.5 L 117.5 200 L 118.5 198 Z "></path><path fill="rgb(26,26,25)" stroke="rgb(26,26,25)" stroke-width="1" opacity="1" d="M 391.5 198 L 398 200.5 L 395.5 201 L 391.5 199 L 391.5 198 Z "></path><path fill="rgb(26,26,25)" stroke="rgb(26,26,25)" stroke-width="1" opacity="1" d="M 419.5 198 L 421 203.5 L 420 203.5 L 419.5 198 Z "></path><path fill="rgb(26,26,25)" stroke="rgb(26,26,25)" stroke-width="1" opacity="1" d="M 110.5 201 L 109.5 203 L 108 202.5 L 110.5 201 Z "></path><path fill="rgb(26,26,25)" stroke="rgb(26,26,25)" stroke-width="1" opacity="1" d="M 401.5 201 L 402.5 203 L 401.5 201 Z "></path><path fill="rgb(26,26,25)" stroke="rgb(26,26,25)" stroke-width="1" opacity="1" d="M 104.5 203 L 107 203.5 L 104.5 204 L 104.5 203 Z "></path><path fill="rgb(26,26,25)" stroke="rgb(26,26,25)" stroke-width="1" opacity="1" d="M 405.5 203 L 408 203.5 L 405.5 204 L 405.5 203 Z "></path><path fill="rgb(26,26,25)" stroke="rgb(26,26,25)" stroke-width="1" opacity="1" d="M 91.5 205 L 92 208 Q 96.3 209 97.5 206 L 95.5 209 Q 88.5 211 91.5 205 Z "></path><path fill="rgb(26,26,25)" stroke="rgb(26,26,25)" stroke-width="1" opacity="1" d="M 414.5 206 L 418 208.5 L 416.5 209 L 414.5 206 Z "></path><path fill="rgb(26,26,25)" stroke="rgb(26,26,25)" stroke-width="1" opacity="1" d="M 240.5 266 L 241 422.5 L 240 422.5 L 240.5 266 Z "></path><path fill="rgb(26,26,25)" stroke="rgb(26,26,25)" stroke-width="1" opacity="1" d="M 189.5 369 L 190 371.5 L 189 371.5 L 189.5 369 Z "></path><path fill="rgb(26,26,25)" stroke="rgb(26,26,25)" stroke-width="1" opacity="1" d="M 321.5 371 L 320.5 373 L 321.5 371 Z "></path><path fill="rgb(26,26,25)" stroke="rgb(26,26,25)" stroke-width="1" opacity="1" d="M 193.5 374 L 194.5 376 L 193.5 374 Z "></path><path fill="rgb(26,26,25)" stroke="rgb(26,26,25)" stroke-width="1" opacity="1" d="M 318.5 374 L 311.5 382 L 318.5 374 Z "></path><path fill="rgb(26,26,25)" stroke="rgb(26,26,25)" stroke-width="1" opacity="1" d="M 305.5 388 L 304.5 390 L 305.5 388 Z "></path><path fill="rgb(26,26,25)" stroke="rgb(26,26,25)" stroke-width="1" opacity="1" d="M 291.5 389 L 292 391.5 L 291 391.5 L 291.5 389 Z "></path><path fill="rgb(26,26,25)" stroke="rgb(26,26,25)" stroke-width="1" opacity="1" d="M 302.5 391 L 295.5 399 L 302.5 391 Z "></path><path fill="rgb(26,26,25)" stroke="rgb(26,26,25)" stroke-width="1" opacity="1" d="M 291.5 394 L 292 398.5 L 291 398.5 L 291.5 394 Z "></path><path fill="rgb(26,26,25)" stroke="rgb(26,26,25)" stroke-width="1" opacity="1" d="M 215.5 397 L 219 399.5 L 217.5 399 L 215.5 397 Z "></path><path fill="rgb(26,26,25)" stroke="rgb(26,26,25)" stroke-width="1" opacity="1" d="M 245.5 428 L 253.5 437 L 245.5 428 Z "></path><path fill="rgb(26,26,25)" stroke="rgb(26,26,25)" stroke-width="1" opacity="1" d="M 259.5 435 L 258.5 437 L 259.5 435 Z "></path><path fill="rgb(26,26,25)" stroke="rgb(26,26,25)" stroke-width="1" opacity="1" d="M 256.5 437 L 255.5 439 L 254 438.5 L 256.5 437 Z "></path><path fill="rgb(26,26,25)" stroke="rgb(26,26,25)" stroke-width="1" opacity="1" d="M 511.5 510 L 512 512 L 510 511.5 L 511.5 510 Z "></path><path fill="rgb(85,84,79)" stroke="rgb(85,84,79)" stroke-width="1" opacity="1" d="M 143 106 Q 148.3 105.4 151 109.5 L 149.5 109 L 145.5 107 Q 142.5 108.5 144 114.5 Q 146.8 117.2 146 123.5 L 145 123.5 L 143 114.5 L 143 106 Z "></path><path fill="rgb(85,84,79)" stroke="rgb(85,84,79)" stroke-width="1" opacity="1" d="M 367.5 106 Q 369.8 105.3 369 107.5 L 366.5 108 L 361.5 110 L 362.5 108 L 367.5 106 Z "></path><path fill="rgb(85,84,79)" stroke="rgb(85,84,79)" stroke-width="1" opacity="1" d="M 152.5 110 L 159 112.5 L 157.5 113 L 152.5 111 L 152.5 110 Z "></path><path fill="rgb(85,84,79)" stroke="rgb(85,84,79)" stroke-width="1" opacity="1" d="M 357.5 110 L 360 110.5 L 353.5 113 L 353.5 112 L 357.5 110 Z "></path><path fill="rgb(85,84,79)" stroke="rgb(85,84,79)" stroke-width="1" opacity="1" d="M 368.5 110 L 369 112.5 L 367.5 117 L 367 112.5 L 368.5 110 Z "></path><path fill="rgb(85,84,79)" stroke="rgb(85,84,79)" stroke-width="1" opacity="1" d="M 161.5 113 L 174 117.5 L 171.5 118 L 169.5 116 Q 163.8 116.7 161.5 114 L 161.5 113 Z "></path><path fill="rgb(85,84,79)" stroke="rgb(85,84,79)" stroke-width="1" opacity="1" d="M 349.5 113 L 351 113.5 L 348.5 115 L 349.5 113 Z "></path><path fill="rgb(85,84,79)" stroke="rgb(85,84,79)" stroke-width="1" opacity="1" d="M 342.5 115 L 347 115.5 L 338.5 118 L 338.5 117 L 342.5 115 Z "></path><path fill="rgb(85,84,79)" stroke="rgb(85,84,79)" stroke-width="1" opacity="1" d="M 176.5 118 Q 181.1 117.4 182.5 120 L 188.5 120 L 195 122.5 L 191.5 123 L 188.5 121 L 182.5 121 L 176.5 119 L 176.5 118 Z "></path><path fill="rgb(85,84,79)" stroke="rgb(85,84,79)" stroke-width="1" opacity="1" d="M 332.5 118 L 335 118.5 L 329.5 121 L 323.5 121 Q 322.1 123.6 317.5 123 L 317.5 122 L 323.5 120 L 329.5 120 L 332.5 118 Z "></path><path fill="rgb(85,84,79)" stroke="rgb(85,84,79)" stroke-width="1" opacity="1" d="M 366.5 120 L 367 127.5 Q 363.7 131.7 364.5 140 L 364 131.5 Q 366.8 127.3 366.5 120 Z "></path><path fill="rgb(85,84,79)" stroke="rgb(85,84,79)" stroke-width="1" opacity="1" d="M 198.5 123 Q 205.9 122.1 209.5 125 L 223 125.5 L 208.5 126 Q 205.2 123.3 198.5 124 L 198.5 123 Z "></path><path fill="rgb(85,84,79)" stroke="rgb(85,84,79)" stroke-width="1" opacity="1" d="M 307.5 123 L 314 123.5 L 303.5 126 L 289.5 126 L 289.5 125 Q 301.4 126.9 307.5 123 Z "></path><path fill="rgb(85,84,79)" stroke="rgb(85,84,79)" stroke-width="1" opacity="1" d="M 226.5 126 L 286 126.5 L 226.5 127 L 226.5 126 Z "></path><path fill="rgb(85,84,79)" stroke="rgb(85,84,79)" stroke-width="1" opacity="1" d="M 146.5 127 Q 146 134 149 137.5 L 149 144.5 L 150.5 146 L 240.5 146 L 241 147.5 L 239.5 147 L 149.5 147 L 149 145.5 Q 146.5 144 148 138.5 L 146 134.5 L 146.5 127 Z "></path><path fill="rgb(85,84,79)" stroke="rgb(85,84,79)" stroke-width="1" opacity="1" d="M 363.5 142 L 364 146 L 361.5 147 L 271 147 L 271 422.5 L 268.5 426 L 269 424.5 L 270 422.5 L 270 147.5 L 271.5 146 L 361.5 146 L 363 144.5 L 363.5 142 Z "></path><path fill="rgb(85,84,79)" stroke="rgb(85,84,79)" stroke-width="1" opacity="1" d="M 240.5 149 L 241 265.5 L 240 265.5 L 240.5 149 Z "></path><path fill="rgb(85,84,79)" stroke="rgb(85,84,79)" stroke-width="1" opacity="1" d="M 98.5 168 L 217.5 168 L 220 169 L 220 396.5 L 221 398.5 Q 219.3 401.8 217.5 398 L 210 391.5 L 216.5 397 L 219 396.5 L 219 170.5 L 217.5 169 L 98 169 L 97.5 175 L 97 169.5 L 98.5 168 Z "></path><path fill="rgb(85,84,79)" stroke="rgb(85,84,79)" stroke-width="1" opacity="1" d="M 293.5 168 L 412.5 168 L 415 169 L 416 171.5 L 416 181.5 Q 418.8 184.2 418 190.5 L 417 190.5 L 415 181.5 L 415 171.5 L 412.5 169 L 293.5 169 L 293 170.5 L 292 170.5 L 293.5 168 Z "></path><path fill="rgb(85,84,79)" stroke="rgb(85,84,79)" stroke-width="1" opacity="1" d="M 292.5 172 L 293 394.5 L 292 394.5 L 292.5 172 Z "></path><path fill="rgb(85,84,79)" stroke="rgb(85,84,79)" stroke-width="1" opacity="1" d="M 96.5 176 L 97 179.5 L 95.5 185 L 95 179.5 L 96.5 176 Z "></path><path fill="rgb(85,84,79)" stroke="rgb(85,84,79)" stroke-width="1" opacity="1" d="M 180.5 187 L 188.5 187 L 190 188.5 L 188.5 188 L 180.5 188 L 180.5 187 Z "></path><path fill="rgb(85,84,79)" stroke="rgb(85,84,79)" stroke-width="1" opacity="1" d="M 324.5 187 L 331 187.5 L 324.5 188 L 324.5 187 Z "></path><path fill="rgb(85,84,79)" stroke="rgb(85,84,79)" stroke-width="1" opacity="1" d="M 165.5 188 L 175 188.5 L 160.5 190 L 160.5 189 L 165.5 188 Z "></path><path fill="rgb(85,84,79)" stroke="rgb(85,84,79)" stroke-width="1" opacity="1" d="M 321 188 L 323 188.5 L 323 368.5 L 311 383 Q 308.3 381.9 309 384.5 L 295 398.5 L 295 400 Q 290.9 401.7 292 397.5 L 293 397.5 L 293.5 399 L 303 389.5 L 303 388 Q 305.7 389.1 305 386.5 L 321 370.5 L 322 367.5 L 321 366.5 L 321 188 Z "></path><path fill="rgb(85,84,79)" stroke="rgb(85,84,79)" stroke-width="1" opacity="1" d="M 336.5 188 L 345.5 188 L 352 189.5 L 344.5 190 Q 342.8 187.3 336.5 189 L 336.5 188 Z "></path><path fill="rgb(85,84,79)" stroke="rgb(85,84,79)" stroke-width="1" opacity="1" d="M 94.5 189 L 95 194.5 Q 91.9 198.4 92.5 206 L 92 198.5 L 94.5 189 Z "></path><path fill="rgb(85,84,79)" stroke="rgb(85,84,79)" stroke-width="1" opacity="1" d="M 148.5 190 L 156 190.5 L 140.5 193 L 140.5 192 Q 146.5 193 148.5 190 Z "></path><path fill="rgb(85,84,79)" stroke="rgb(85,84,79)" stroke-width="1" opacity="1" d="M 356.5 190 L 363.5 190 Q 366 193 372 192.5 L 366.5 193 Q 363.5 190 356.5 191 L 356.5 190 Z "></path><path fill="rgb(85,84,79)" stroke="rgb(85,84,79)" stroke-width="1" opacity="1" d="M 189.5 191 L 190 368.5 L 189 368.5 L 189.5 191 Z "></path><path fill="rgb(85,84,79)" stroke="rgb(85,84,79)" stroke-width="1" opacity="1" d="M 134.5 193 L 137 193.5 L 132.5 195 L 132.5 194 L 134.5 193 Z "></path><path fill="rgb(85,84,79)" stroke="rgb(85,84,79)" stroke-width="1" opacity="1" d="M 374.5 193 L 380 194.5 L 377.5 195 L 374.5 194 L 374.5 193 Z "></path><path fill="rgb(85,84,79)" stroke="rgb(85,84,79)" stroke-width="1" opacity="1" d="M 126.5 195 L 131 195.5 L 120.5 198 L 120.5 197 Q 125.1 197.6 126.5 195 Z "></path><path fill="rgb(85,84,79)" stroke="rgb(85,84,79)" stroke-width="1" opacity="1" d="M 381.5 195 L 385.5 195 L 391 197.5 L 388.5 198 Q 386.8 195.2 381.5 196 L 381.5 195 Z "></path><path fill="rgb(85,84,79)" stroke="rgb(85,84,79)" stroke-width="1" opacity="1" d="M 418.5 196 L 421 207.5 L 418.5 209 L 415 206.5 L 416.5 207 L 420 208 L 418 201.5 L 418.5 196 Z "></path><path fill="rgb(85,84,79)" stroke="rgb(85,84,79)" stroke-width="1" opacity="1" d="M 116.5 198 L 118 198.5 L 115.5 200 L 116.5 198 Z "></path><path fill="rgb(85,84,79)" stroke="rgb(85,84,79)" stroke-width="1" opacity="1" d="M 394.5 198 L 397 199.5 L 395.5 200 L 394.5 198 Z "></path><path fill="rgb(85,84,79)" stroke="rgb(85,84,79)" stroke-width="1" opacity="1" d="M 110.5 200 L 114 200.5 L 106.5 203 L 106.5 202 L 110.5 200 Z "></path><path fill="rgb(85,84,79)" stroke="rgb(85,84,79)" stroke-width="1" opacity="1" d="M 398.5 200 Q 404 199.5 406 202.5 L 403.5 203 Q 402.8 200.3 398.5 201 L 398.5 200 Z "></path><path fill="rgb(85,84,79)" stroke="rgb(85,84,79)" stroke-width="1" opacity="1" d="M 102.5 203 L 104 203.5 L 95.5 208 L 97.5 205 Q 101.8 205.8 102.5 203 Z "></path><path fill="rgb(85,84,79)" stroke="rgb(85,84,79)" stroke-width="1" opacity="1" d="M 408.5 203 L 414 205.5 L 411.5 206 L 408.5 203 Z "></path><path fill="rgb(85,84,79)" stroke="rgb(85,84,79)" stroke-width="1" opacity="1" d="M 190.5 370 L 194.5 375 L 192 374 Q 193 371 190 372 L 190.5 370 Z "></path><path fill="rgb(85,84,79)" stroke="rgb(85,84,79)" stroke-width="1" opacity="1" d="M 195.5 376 L 198 377.5 Q 197.3 379.8 199.5 379 L 199.5 380 L 197 378.5 Q 197.8 376.3 195.5 377 L 195.5 376 Z "></path><path fill="rgb(85,84,79)" stroke="rgb(85,84,79)" stroke-width="1" opacity="1" d="M 202.5 382 L 203 384 L 205 384.5 L 203.5 385 L 202.5 382 Z "></path><path fill="rgb(85,84,79)" stroke="rgb(85,84,79)" stroke-width="1" opacity="1" d="M 205.5 386 L 208 387 L 209 389.5 L 205.5 386 Z "></path><path fill="rgb(85,84,79)" stroke="rgb(85,84,79)" stroke-width="1" opacity="1" d="M 241.5 422 L 244 426 Q 246.7 424.9 246 427.5 L 254.5 436 L 257.5 436 L 262 432.5 Q 259.4 437.4 254 438 L 243 424 Q 239.8 425 241.5 422 Z "></path><path fill="rgb(85,84,79)" stroke="rgb(85,84,79)" stroke-width="1" opacity="1" d="M 266.5 427 L 263.5 431 L 266.5 427 Z "></path><path fill="rgb(244,240,228)" stroke="rgb(244,240,228)" stroke-width="1" opacity="1" d="M 145 109 L 154 112 Q 152.6 116 159.5 114 Q 161.8 118.1 168 117 Q 166.9 120.5 174.5 119 L 177 120.5 L 174.5 122 L 168 121 Q 169.1 117.5 161.5 119 Q 159.9 114.7 154 116 L 154 114 L 149 114 Q 151.1 118.8 150 128.5 L 152 130.5 L 152 140.5 L 153.5 142 L 155.5 141 L 239.5 141 Q 242.5 142.5 239.5 144 L 152.5 144 L 151.5 145 L 150 143.5 L 150 130.5 L 147 125.5 L 147 113.5 Q 144.3 112.4 145 109 Z "></path><path fill="rgb(244,240,228)" stroke="rgb(244,240,228)" stroke-width="1" opacity="1" d="M 364 109 L 367 109.5 L 366 110.5 L 366 118.5 L 363 124.5 L 363 137.5 Q 360 139.8 361 145 Q 357.6 145.8 356.5 143 L 355.5 144 L 271 144 L 272.5 141 L 355.5 141 L 356.5 142 L 359 141 Q 358.3 137.9 361 138.5 L 361 123.5 Q 365 121.5 363 113.5 L 361.5 114 Q 356.5 113 357.5 116 L 352 116 L 352 114 L 357.5 114 L 358 112 L 359.5 112 L 364 111 L 364 109 Z "></path><path fill="rgb(244,240,228)" stroke="rgb(244,240,228)" stroke-width="1" opacity="1" d="M 348.5 116 L 352 117.5 L 350.5 119 L 344 119 Q 345.4 122.7 339.5 121 L 334.5 124 L 325 124 Q 326.3 127 322.5 126 L 321.5 127 L 312.5 127 L 310.5 129 L 292 129 L 291.5 131 L 284.5 131 L 283.5 132 L 229.5 132 L 228.5 131 L 220 131 L 219.5 129 L 201.5 129 L 199.5 127 Q 191.2 127.9 187 126 L 186.5 124 L 178.5 124 L 177.5 122 Q 185.5 120 187.5 124 L 196.5 124 L 201.5 127 L 217.5 127 L 221.5 129 L 289.5 129 L 294.5 127 L 310.5 127 L 315.5 124 L 324.5 124 L 326.5 122 L 335 122 Q 333.9 119.3 336.5 120 L 337.5 119 L 344 119 Q 342.7 115.7 347.5 117 L 348.5 116 Z "></path><path fill="rgb(244,240,228)" stroke="rgb(244,240,228)" stroke-width="1" opacity="1" d="M 242 146 L 244 146.5 L 244 302.5 L 245 303.5 L 245 327.5 L 244 332.5 L 245 335.5 L 244 340.5 L 245 343.5 L 244 348.5 L 245 349.5 L 246 414.5 L 245 417.5 L 245 419.5 Q 244 423.3 247 422 L 247 425 L 249 425 Q 247.9 427.7 250.5 427 L 252 430 L 254 430 Q 252.5 433.7 255.5 433 L 266 422.5 L 266 146 L 268 146.5 L 268 418.5 L 269 421.5 L 258 435 Q 253.3 435.8 252 431.5 Q 252.8 429.3 250.5 430 L 247 425 L 244 423.5 L 242 420.5 L 243 419.5 L 243 327.5 L 242 326.5 L 242 303.5 L 243 299.5 L 242 298.5 L 242 146 Z "></path><path fill="rgb(244,240,228)" stroke="rgb(244,240,228)" stroke-width="1" opacity="1" d="M 99 170 L 216.5 170 L 218 171.5 L 217 172.5 L 217 393.5 L 218 396 L 216 396 Q 217 393 214 394 L 214 391 L 212.5 391 L 209 386 L 206 384.5 L 206 383 L 204 383 Q 205.1 380.3 202.5 381 L 201 378 Q 198.3 379.1 199 376.5 L 191 367.5 L 192 366.5 L 192 188 L 195 188.5 L 195 366 Q 192 365 193 368 L 195 368 Q 193.5 371.8 196.5 371 L 198 374 Q 200.7 372.9 200 375.5 L 203 377 Q 201.9 379.7 204.5 379 L 206 382 Q 208.7 380.9 208 383.5 L 215 389.5 L 215 173 L 101 173 L 101 183.5 Q 96.2 188.9 98 200 L 96 199.5 L 96 187.5 Q 101 181.8 99 170 Z "></path><path fill="rgb(244,240,228)" stroke="rgb(244,240,228)" stroke-width="1" opacity="1" d="M 294 170 L 411.5 170 L 413 171.5 L 412 174 L 409.5 173 L 294 173 L 294 170 Z "></path><path fill="rgb(244,240,228)" stroke="rgb(244,240,228)" stroke-width="1" opacity="1" d="M 296.5 174 L 297 383.5 L 298 385.5 L 297 389 L 300 389 Q 299 386 302 387 L 302 384 Q 305.8 385.5 305 382.5 L 307 379 L 310 379 L 310 376 Q 313 377 312 374 L 315 374 Q 314 369.8 317 370.5 L 317 188.5 L 320 187 L 320 370.5 L 318.5 371 L 317 374 L 315 374 Q 316.1 376.7 313.5 376 L 312 379 L 310 379 Q 311.1 381.7 308.5 381 L 307 384 Q 304.3 382.9 305 385.5 L 302 387 L 302 389 Q 299.3 387.9 300 390.5 L 297 392 L 295.5 395 Q 292.9 395.8 294 392.5 L 296 389.5 L 295 388.5 L 295 175.5 L 296.5 174 Z "></path><path fill="rgb(244,240,228)" stroke="rgb(244,240,228)" stroke-width="1" opacity="1" d="M 412.5 175 L 414 176.5 L 414 187.5 L 417 194.5 L 417 205 L 412 204 Q 413.4 200.3 407.5 202 L 406 199 L 399.5 199 Q 398.3 195.8 392.5 197 L 389.5 194 Q 382.3 195.8 380.5 192 L 373.5 192 L 368.5 189 Q 357.5 191 352.5 187 L 321 186 L 321.5 184 L 350.5 184 L 355.5 187 L 368.5 187 L 370.5 189 Q 378 188 381 190 L 381.5 192 L 389.5 192 L 391.5 194 Q 396.9 193.4 399 195 Q 397.6 199 404.5 197 Q 406.6 200.9 412 200 Q 410.9 203.3 415 202 Q 416.2 193.7 412 189.5 L 412.5 175 Z "></path><path fill="rgb(244,240,228)" stroke="rgb(244,240,228)" stroke-width="1" opacity="1" d="M 161.5 184 L 189.5 184 L 191 185.5 L 176.5 186 L 175.5 187 L 159.5 187 L 155.5 189 L 143.5 189 L 138.5 192 L 131.5 192 Q 129.8 195.8 122.5 194 L 119.5 197 L 113 197 L 113 199 L 106.5 199 L 106 200.5 Q 104.6 203.3 100 202 Q 101.3 205 97.5 204 L 94.5 206 L 94 202 L 99.5 202 Q 98.5 199 103.5 200 Q 106 195.7 113 197 Q 111.8 194 115.5 195 L 120.5 194 L 122.5 192 L 131 192 L 132.5 189 L 141.5 189 L 142.5 187 L 156.5 187 L 161.5 184 Z "></path><path fill="rgb(174,172,164)" stroke="rgb(174,172,164)" stroke-width="1" opacity="1" d="M 145.5 107 L 144.5 109 L 145.5 107 Z "></path><path fill="rgb(174,172,164)" stroke="rgb(174,172,164)" stroke-width="1" opacity="1" d="M 367.5 107 L 369 109.5 Q 365.6 112.6 366.5 120 L 366 111.5 L 367.5 109 L 360.5 111 L 360.5 110 L 367.5 107 Z "></path><path fill="rgb(174,172,164)" stroke="rgb(174,172,164)" stroke-width="1" opacity="1" d="M 147.5 108 L 152 110.5 L 149.5 111 L 147.5 108 Z "></path><path fill="rgb(174,172,164)" stroke="rgb(174,172,164)" stroke-width="1" opacity="1" d="M 144.5 111 L 147 118.5 L 147 126.5 L 146 126.5 L 146 118.5 Q 143 115.8 144.5 111 Z "></path><path fill="rgb(174,172,164)" stroke="rgb(174,172,164)" stroke-width="1" opacity="1" d="M 153.5 111 L 165 115.5 L 162.5 116 L 160.5 114 L 153.5 112 L 153.5 111 Z "></path><path fill="rgb(174,172,164)" stroke="rgb(174,172,164)" stroke-width="1" opacity="1" d="M 357.5 111 L 359 111.5 L 356.5 113 L 357.5 111 Z "></path><path fill="rgb(174,172,164)" stroke="rgb(174,172,164)" stroke-width="1" opacity="1" d="M 351.5 113 L 355 113.5 L 347.5 116 L 347.5 115 L 351.5 113 Z "></path><path fill="rgb(174,172,164)" stroke="rgb(174,172,164)" stroke-width="1" opacity="1" d="M 167.5 116 L 176 118.5 L 171.5 119 L 167.5 117 L 167.5 116 Z "></path><path fill="rgb(174,172,164)" stroke="rgb(174,172,164)" stroke-width="1" opacity="1" d="M 342.5 116 L 345 116.5 L 340.5 119 L 335.5 119 Q 334.8 121.8 330.5 121 L 330.5 120 L 335.5 118 L 340.5 118 L 342.5 116 Z "></path><path fill="rgb(174,172,164)" stroke="rgb(174,172,164)" stroke-width="1" opacity="1" d="M 177.5 119 L 182 120.5 L 178.5 121 L 177.5 119 Z "></path><path fill="rgb(174,172,164)" stroke="rgb(174,172,164)" stroke-width="1" opacity="1" d="M 185.5 121 L 198 123.5 L 191.5 124 L 185.5 122 L 185.5 121 Z "></path><path fill="rgb(174,172,164)" stroke="rgb(174,172,164)" stroke-width="1" opacity="1" d="M 323.5 121 L 327 121.5 Q 322.8 124.8 314.5 124 L 314.5 123 Q 321.2 124.2 323.5 121 Z "></path><path fill="rgb(174,172,164)" stroke="rgb(174,172,164)" stroke-width="1" opacity="1" d="M 365.5 123 L 366 126.5 L 364.5 131 L 364 126.5 L 365.5 123 Z "></path><path fill="rgb(174,172,164)" stroke="rgb(174,172,164)" stroke-width="1" opacity="1" d="M 200.5 124 L 208 125.5 L 203.5 126 L 200.5 125 L 200.5 124 Z "></path><path fill="rgb(174,172,164)" stroke="rgb(174,172,164)" stroke-width="1" opacity="1" d="M 308.5 124 L 312 124.5 L 304.5 126 L 304.5 125 L 308.5 124 Z "></path><path fill="rgb(174,172,164)" stroke="rgb(174,172,164)" stroke-width="1" opacity="1" d="M 213.5 126 L 225.5 126 L 226.5 127 L 285.5 127 L 286.5 126 L 298.5 126 L 298.5 127 L 288.5 127 L 287.5 128 Q 279.2 126.8 274.5 129 L 271.5 128 L 270.5 129 L 242.5 129 L 239.5 128 L 235.5 129 L 234.5 128 L 213.5 127 L 213.5 126 Z "></path><path fill="rgb(174,172,164)" stroke="rgb(174,172,164)" stroke-width="1" opacity="1" d="M 147.5 129 L 149 136.5 L 148 136.5 L 147.5 129 Z "></path><path fill="rgb(174,172,164)" stroke="rgb(174,172,164)" stroke-width="1" opacity="1" d="M 363.5 134 L 364 141.5 L 361.5 146 L 360 145.5 Q 364 142 363.5 134 Z "></path><path fill="rgb(174,172,164)" stroke="rgb(174,172,164)" stroke-width="1" opacity="1" d="M 149.5 141 L 150 145 L 240.5 145 L 242 146.5 L 242 421.5 L 244 423.5 L 241 421.5 L 241 146.5 L 240.5 146 L 150.5 146 Q 147.8 144.8 149.5 141 Z "></path><path fill="rgb(174,172,164)" stroke="rgb(174,172,164)" stroke-width="1" opacity="1" d="M 270.5 145 L 359 145.5 L 271.5 146 L 270 147.5 L 269.5 423 L 269 146.5 L 270.5 145 Z "></path><path fill="rgb(174,172,164)" stroke="rgb(174,172,164)" stroke-width="1" opacity="1" d="M 98 169 L 217.5 169 L 219 170.5 L 218.5 397 L 218 170 L 99.5 170 L 98.5 171 L 98 169 Z "></path><path fill="rgb(174,172,164)" stroke="rgb(174,172,164)" stroke-width="1" opacity="1" d="M 293.5 169 L 412.5 169 L 415 171.5 L 414.5 178 L 413 170 L 293.5 170 L 293.5 169 Z "></path><path fill="rgb(174,172,164)" stroke="rgb(174,172,164)" stroke-width="1" opacity="1" d="M 293.5 173 L 294 389.5 L 293 389.5 L 293.5 173 Z "></path><path fill="rgb(174,172,164)" stroke="rgb(174,172,164)" stroke-width="1" opacity="1" d="M 97.5 175 L 98 180.5 L 96.5 184 L 96 180.5 L 97.5 175 Z "></path><path fill="rgb(174,172,164)" stroke="rgb(174,172,164)" stroke-width="1" opacity="1" d="M 415.5 182 L 418 191.5 L 418 201.5 L 420 208 L 414 205.5 L 415.5 205 L 418.5 207 L 419 205.5 L 417 201.5 L 417 191.5 Q 413.8 188.3 415.5 182 Z "></path><path fill="rgb(174,172,164)" stroke="rgb(174,172,164)" stroke-width="1" opacity="1" d="M 95.5 185 L 96 194.5 L 93.5 204 L 93 198.5 L 95 194.5 L 95.5 185 Z "></path><path fill="rgb(174,172,164)" stroke="rgb(174,172,164)" stroke-width="1" opacity="1" d="M 163.5 187 L 180 187.5 L 165.5 188 Q 160.5 191 151.5 190 L 151.5 189 Q 159.8 190.3 163.5 187 Z "></path><path fill="rgb(174,172,164)" stroke="rgb(174,172,164)" stroke-width="1" opacity="1" d="M 189.5 187 L 191 187.5 L 191 369.5 L 201 379.5 L 201 381 L 203 381.5 L 201.5 382 L 200 379 Q 197.3 380.1 198 377.5 L 195 376 L 190 369.5 L 190 188.5 L 189.5 187 Z "></path><path fill="rgb(174,172,164)" stroke="rgb(174,172,164)" stroke-width="1" opacity="1" d="M 321.5 187 L 324 187.5 L 321 188 L 321 366.5 L 322 367.5 L 321 370.5 L 305 386.5 L 305 388 Q 302.3 386.9 303 389.5 L 293 398.5 L 292 395.5 L 293 395.5 Q 292.3 397.8 294.5 397 L 298 392 L 300 392 L 300 390 Q 302.7 391.1 302 388.5 L 320 370.5 L 320 188.5 L 321.5 187 Z "></path><path fill="rgb(174,172,164)" stroke="rgb(174,172,164)" stroke-width="1" opacity="1" d="M 331.5 187 L 347.5 187 Q 352.4 190.1 361 189.5 L 352.5 190 Q 344.6 186.4 331.5 188 L 331.5 187 Z "></path><path fill="rgb(174,172,164)" stroke="rgb(174,172,164)" stroke-width="1" opacity="1" d="M 144.5 190 L 148 190.5 L 142.5 192 L 142.5 191 L 144.5 190 Z "></path><path fill="rgb(174,172,164)" stroke="rgb(174,172,164)" stroke-width="1" opacity="1" d="M 364.5 190 L 370 191.5 L 366.5 192 L 364.5 190 Z "></path><path fill="rgb(174,172,164)" stroke="rgb(174,172,164)" stroke-width="1" opacity="1" d="M 134.5 192 L 140 192.5 L 128.5 195 L 128.5 194 Q 133.1 194.6 134.5 192 Z "></path><path fill="rgb(174,172,164)" stroke="rgb(174,172,164)" stroke-width="1" opacity="1" d="M 372.5 192 L 377.5 192 L 384 194.5 L 380.5 195 Q 378.5 192 372.5 193 L 372.5 192 Z "></path><path fill="rgb(174,172,164)" stroke="rgb(174,172,164)" stroke-width="1" opacity="1" d="M 123.5 195 L 126 195.5 L 121.5 197 L 121.5 196 L 123.5 195 Z "></path><path fill="rgb(174,172,164)" stroke="rgb(174,172,164)" stroke-width="1" opacity="1" d="M 386.5 195 L 391.5 197 L 395.5 197 L 400 199.5 L 397.5 200 L 395.5 198 Q 389.4 198.6 386.5 196 L 386.5 195 Z "></path><path fill="rgb(174,172,164)" stroke="rgb(174,172,164)" stroke-width="1" opacity="1" d="M 116.5 197 L 120 197.5 L 112.5 200 L 112.5 199 L 116.5 197 Z "></path><path fill="rgb(174,172,164)" stroke="rgb(174,172,164)" stroke-width="1" opacity="1" d="M 107.5 200 L 110 200.5 L 99.5 205 L 100.5 203 L 105.5 202 L 107.5 200 Z "></path><path fill="rgb(174,172,164)" stroke="rgb(174,172,164)" stroke-width="1" opacity="1" d="M 402.5 200 L 413 204.5 L 411.5 205 L 409.5 203 L 402.5 201 L 402.5 200 Z "></path><path fill="rgb(174,172,164)" stroke="rgb(174,172,164)" stroke-width="1" opacity="1" d="M 96.5 205 L 94.5 208 L 92 206.5 L 93.5 207 L 96.5 205 Z "></path><path fill="rgb(174,172,164)" stroke="rgb(174,172,164)" stroke-width="1" opacity="1" d="M 205.5 384 L 207 386.5 L 205 385.5 L 205.5 384 Z "></path><path fill="rgb(174,172,164)" stroke="rgb(174,172,164)" stroke-width="1" opacity="1" d="M 208.5 388 L 215.5 396 L 208.5 388 Z "></path><path fill="rgb(174,172,164)" stroke="rgb(174,172,164)" stroke-width="1" opacity="1" d="M 293.5 391 L 294 393.5 L 293 393.5 L 293.5 391 Z "></path><path fill="rgb(174,172,164)" stroke="rgb(174,172,164)" stroke-width="1" opacity="1" d="M 268.5 424 L 257.5 436 L 256 435.5 L 268.5 424 Z "></path><path fill="rgb(174,172,164)" stroke="rgb(174,172,164)" stroke-width="1" opacity="1" d="M 246.5 427 L 249 428 L 252.5 433 Q 254.8 432.3 254 434.5 L 254.5 436 L 246.5 427 Z "></path><path fill="rgb(232,225,212)" stroke="rgb(232,225,212)" stroke-width="1" opacity="1" d="M 154.5 113 L 154 114.5 Q 153.1 117.9 158.5 116 L 162 119.5 L 161 120.5 L 161.5 122 L 166 121 Q 164.9 118.3 167.5 119 L 169 118.5 L 168 121 L 174 121.5 L 169 122.5 Q 170.4 125.3 175 124 L 176.5 121 L 181 121.5 L 177 122.5 L 180 124.5 L 177 125.5 L 182.5 127 L 185 125.5 L 184.5 124 L 187 123.5 L 186.5 122 Q 189.3 123.3 187 124.5 Q 186.2 127.1 189.5 126 L 189.5 127 L 187 128.5 L 196.5 129 L 196.5 127 Q 200.8 126.3 201.5 129 L 220 129 L 220.5 131 L 228.5 131 L 227.5 133 L 223 133.5 L 286.5 134 L 286.5 133 L 283 132.5 L 284.5 131 L 292 131 L 292.5 129 L 310.5 129 Q 311.6 126.2 315 127 L 315.5 129 L 324 129 Q 325.1 126.3 322.5 127 L 322.5 126 Q 325.8 127.1 325 124.5 Q 322.8 123.3 325.5 122 L 325.5 124 L 329 124.5 L 327 125.5 Q 328 128 332.5 127 L 335 125.5 L 333 124.5 L 338 122 Q 336.6 125.7 342.5 124 L 343.5 122 L 339 121.5 L 344 121 L 343 118.5 L 344.5 119 L 346 119.5 Q 343.8 120.8 346.5 122 L 351 120.5 L 351 116.5 L 351.5 115 L 358 116 L 357 113.5 L 358.5 114 L 360 114.5 Q 357.5 116 361 117.5 L 361.5 119 L 363 118.5 Q 363.8 122.8 361 123.5 L 361 139 L 359 139 Q 360.1 141.7 357.5 141 L 355.5 141 L 272.5 141 L 271 142.5 L 272 144.5 L 269 145 L 268.5 419 L 268 146 L 264 144 L 263 184.5 L 264 185.5 L 264 327.5 L 263 328.5 L 263 348.5 L 264 349.5 L 264 409.5 L 263 414.5 Q 265.3 415.8 264 420.5 L 261 425 L 265.5 422 L 257.5 431 L 259 428.5 L 257.5 427 L 255 431.5 L 255.5 433 Q 252.9 433.8 254 430.5 L 255 428.5 L 252.5 427 L 251 427.5 L 252 425 Q 249.3 423.9 250 426.5 L 249 426.5 Q 249.8 424.3 247.5 425 L 246 425.5 L 250 423.5 Q 248.8 421 245 422 L 246 418.5 L 245 415.5 L 246 414.5 L 246 393.5 L 245 392.5 L 245 349.5 L 244 344.5 L 245 341.5 L 244 336.5 L 245 333.5 L 244 328.5 L 245 327.5 L 245 303.5 L 244 302.5 L 244 146 L 240 145 L 241 142.5 L 239.5 141 L 155.5 141 L 153.5 142 L 152 140.5 L 152 130.5 Q 149 129.3 150 125 Q 152.7 126.1 152 123.5 L 153 121.5 L 152 116.5 L 154.5 113 Z M 154 117 L 154 119 L 159 119 L 159 117 L 154 117 Z M 353 117 L 353 119 L 358 119 L 358 117 L 353 117 Z M 358 124 L 359 127 L 358 130 L 359 136 L 360 136 L 360 125 L 358 124 Z M 154 129 L 153 141 L 155 140 Q 156 132 154 129 Z M 201 130 L 203 134 L 203 132 L 213 132 L 214 131 L 201 130 Z M 297 130 L 297 132 Q 306 134 311 131 L 297 130 Z M 171 138 L 167 140 L 172 140 Q 173 137 171 138 Z M 204 138 L 203 139 L 194 139 L 194 140 L 207 140 L 204 138 Z M 214 138 L 212 139 L 212 140 L 221 140 L 214 138 Z M 226 138 Q 225 141 228 140 Q 229 137 226 138 Z M 234 138 L 231 140 L 236 140 Q 237 137 234 138 Z M 280 138 L 280 140 L 295 140 L 290 138 L 287 139 L 280 138 Z M 298 138 L 298 140 L 310 140 L 307 138 L 305 139 L 298 138 Z M 321 138 L 320 140 L 323 140 L 321 138 Z M 176 139 L 176 140 L 180 140 L 176 139 Z M 329 139 L 329 140 L 333 140 L 329 139 Z M 352 139 L 352 140 L 357 140 L 352 139 Z M 268 140 L 266 144 L 269 143 L 268 140 Z M 242 141 L 242 143 L 244 144 Q 245 140 242 141 Z M 246 146 L 245 172 L 246 173 L 245 176 Q 243 182 246 184 L 245 188 L 246 191 L 245 196 L 246 203 L 247 203 L 247 165 L 246 164 Q 245 158 247 157 L 247 148 L 246 146 Z M 245 231 Q 244 235 247 234 Q 248 230 245 231 Z M 249 361 L 248 389 L 249 389 L 249 361 Z M 249 392 L 248 410 L 249 410 L 249 392 Z M 259 425 Q 258 428 261 427 Q 262 424 259 425 Z "></path><path fill="rgb(232,225,212)" stroke="rgb(232,225,212)" stroke-width="1" opacity="1" d="M 149.5 114 L 150 116.5 L 149 116.5 L 149.5 114 Z "></path><path fill="rgb(232,225,212)" stroke="rgb(232,225,212)" stroke-width="1" opacity="1" d="M 331.5 121 L 335 121.5 L 331.5 122 L 331.5 121 Z "></path><path fill="rgb(232,225,212)" stroke="rgb(232,225,212)" stroke-width="1" opacity="1" d="M 364.5 122 L 365 123.5 L 363.5 127 L 363 124.5 L 364.5 122 Z "></path><path fill="rgb(232,225,212)" stroke="rgb(232,225,212)" stroke-width="1" opacity="1" d="M 200.5 125 L 204 126.5 L 201.5 127 L 200.5 125 Z "></path><path fill="rgb(232,225,212)" stroke="rgb(232,225,212)" stroke-width="1" opacity="1" d="M 311.5 125 L 310.5 127 L 307 126.5 L 311.5 125 Z "></path><path fill="rgb(232,225,212)" stroke="rgb(232,225,212)" stroke-width="1" opacity="1" d="M 221.5 128 L 225 128.5 L 221.5 129 L 221.5 128 Z "></path><path fill="rgb(232,225,212)" stroke="rgb(232,225,212)" stroke-width="1" opacity="1" d="M 287.5 128 L 290 128.5 L 287.5 129 L 287.5 128 Z "></path><path fill="rgb(232,225,212)" stroke="rgb(232,225,212)" stroke-width="1" opacity="1" d="M 148.5 129 Q 150.8 129.8 150 133.5 L 149 133.5 L 148.5 129 Z "></path><path fill="rgb(232,225,212)" stroke="rgb(232,225,212)" stroke-width="1" opacity="1" d="M 356.5 143 L 355.5 145 L 275 144.5 L 355.5 144 L 356.5 143 Z "></path><path fill="rgb(232,225,212)" stroke="rgb(232,225,212)" stroke-width="1" opacity="1" d="M 152.5 144 L 156 144.5 L 152.5 145 L 152.5 144 Z "></path><path fill="rgb(232,225,212)" stroke="rgb(232,225,212)" stroke-width="1" opacity="1" d="M 157.5 144 L 226 144.5 L 157.5 145 L 157.5 144 Z "></path><path fill="rgb(232,225,212)" stroke="rgb(232,225,212)" stroke-width="1" opacity="1" d="M 229.5 144 L 236 144.5 L 229.5 145 L 229.5 144 Z "></path><path fill="rgb(232,225,212)" stroke="rgb(232,225,212)" stroke-width="1" opacity="1" d="M 412.5 172 L 414 175.5 L 412 175.5 L 411.5 180 Q 410.3 177.8 409 180.5 L 410 186.5 L 409 189.5 L 410.5 192 L 411.5 185 Q 411.6 191.9 415 195.5 L 415 201.5 L 414 201.5 L 413.5 195 Q 411.3 195.8 412 199.5 L 413 201.5 L 411 202.5 L 412 200 L 408 199.5 L 411 199 Q 412.3 196 408.5 197 L 406 200.5 L 406.5 202 L 403 199.5 L 406 198.5 L 404.5 196 L 406 195.5 L 400 194 L 401 196.5 L 399 197 Q 400.1 194.3 397.5 195 L 398.5 192 L 393.5 192 L 393 194 L 391.5 194 Q 389.5 190 381.5 192 L 381.5 194 Q 378.8 192.8 381 191.5 Q 381.7 188.9 379 190 L 379 188 L 381 187.5 L 376.5 186 L 372 187.5 L 372.5 189 L 368.5 187 L 355.5 187 Q 352.9 183.1 346 183.5 L 349 182.5 L 345.5 181 L 331.5 181 L 323 182.5 L 331 183.5 L 321 184 Q 319.8 187 323.5 186 L 323.5 187 Q 318.8 185.8 317.5 188 L 315 187 L 315 373.5 L 310 374 L 310 378.5 L 309 378.5 Q 310 374.8 307 376 L 307 379 Q 302.9 377.7 304 381 L 306 381.5 L 304.5 384 L 304 381 L 302 381 L 302 384 Q 298.2 382.5 299 385.5 L 297.5 389 L 297 386.5 L 298 384.5 L 297 383.5 L 296.5 174 L 295 175.5 L 295 388.5 L 296 390.5 L 294 391.5 L 294 173.5 L 298 173 L 299.5 176 L 302.5 175 L 304.5 176 L 307.5 175 L 308.5 176 L 327.5 176 L 330.5 175 L 331.5 176 L 345.5 176 L 348.5 175 L 349.5 176 L 408.5 176 L 409.5 173 L 412 174 L 412.5 172 Z M 300 182 L 299 185 L 300 185 L 300 182 Z M 319 184 L 317 186 L 320 186 Q 321 183 319 184 Z M 360 184 L 359 186 L 366 186 Q 365 183 360 184 Z M 384 189 L 384 191 L 391 191 L 384 189 Z M 300 369 L 299 372 L 300 372 L 300 369 Z M 312 371 Q 311 374 314 373 Q 315 370 312 371 Z M 300 379 L 299 382 L 300 382 L 300 379 Z "></path><path fill="rgb(232,225,212)" stroke="rgb(232,225,212)" stroke-width="1" opacity="1" d="M 104 175 L 204.5 175 L 207.5 176 L 212 175 L 212 266.5 L 213 267.5 L 213 286.5 L 212 287.5 L 212 381.5 Q 214.5 383 211 384.5 L 213 387.5 L 208 383.5 Q 208.8 381.3 206.5 382 L 206.5 381 Q 209.1 381.7 208 379 L 205.5 380 L 206 378.5 L 206 376 Q 203.3 377.1 204 374.5 L 201 373 Q 202.1 370.3 199.5 371 L 198 368 Q 195 366.8 196 370.5 L 195 370.5 L 195 368 Q 192 369 193 366 L 195 365.5 L 195 188 L 191 186.5 L 189.5 184 L 180 183.5 L 182 182.5 L 161.5 182 L 161.5 183 L 164 183.5 Q 158.7 183.7 156.5 187 L 142 187 Q 143.1 190.3 139 189 L 138.5 187 L 131.5 187 L 131.5 188 L 133 188.5 L 131 191.5 L 131.5 193 L 125 191.5 L 129 190.5 Q 128 188 123.5 189 L 122.5 191 L 124 191.5 L 119 194 Q 120.1 190.5 112.5 192 L 112.5 193 L 116 194.5 L 113 195 L 114 197.5 L 112.5 197 L 111 196.5 L 112 194 L 107 194 L 107 195.5 L 108 196.5 L 106.5 199 L 109 199.5 L 106.5 200 L 105 197 L 101 197 L 101 189.5 L 99 189 L 99 199 L 103.5 199 L 103.5 200 Q 99.1 198.5 100 201.5 L 100.5 203 L 94 201.5 L 95.5 199 L 98 200 L 98 189.5 L 101 183.5 L 101.5 178 L 102.5 183 L 104 181.5 L 104 175 Z M 144 184 L 145 186 L 153 186 L 153 184 L 144 184 Z M 103 185 L 102 188 L 103 188 L 103 185 Z M 194 185 L 194 186 L 196 186 L 194 185 Z M 210 381 Q 207 385 211 384 L 210 381 Z "></path><path fill="rgb(232,225,212)" stroke="rgb(232,225,212)" stroke-width="1" opacity="1" d="M 214.5 175 L 215 385.5 L 214 385.5 L 214.5 175 Z "></path><path fill="rgb(232,225,212)" stroke="rgb(232,225,212)" stroke-width="1" opacity="1" d="M 98.5 176 L 99 181.5 L 98 181.5 L 98.5 176 Z "></path><path fill="rgb(232,225,212)" stroke="rgb(232,225,212)" stroke-width="1" opacity="1" d="M 414.5 182 L 415 187.5 L 414 187.5 L 414.5 182 Z "></path><path fill="rgb(232,225,212)" stroke="rgb(232,225,212)" stroke-width="1" opacity="1" d="M 176.5 186 L 182 186.5 L 176.5 187 L 176.5 186 Z "></path><path fill="rgb(232,225,212)" stroke="rgb(232,225,212)" stroke-width="1" opacity="1" d="M 328.5 186 L 335 186.5 L 328.5 187 L 328.5 186 Z "></path><path fill="rgb(232,225,212)" stroke="rgb(232,225,212)" stroke-width="1" opacity="1" d="M 143.5 189 L 145 189.5 L 142.5 191 L 143.5 189 Z "></path><path fill="rgb(232,225,212)" stroke="rgb(232,225,212)" stroke-width="1" opacity="1" d="M 367.5 189 L 370 190.5 L 368.5 190 L 367.5 189 Z "></path><path fill="rgb(232,225,212)" stroke="rgb(232,225,212)" stroke-width="1" opacity="1" d="M 122.5 194 L 124 194.5 L 121.5 196 L 122.5 194 Z "></path><path fill="rgb(232,225,212)" stroke="rgb(232,225,212)" stroke-width="1" opacity="1" d="M 388.5 194 L 391 195.5 L 389.5 195 L 388.5 194 Z "></path><path fill="rgb(232,225,212)" stroke="rgb(232,225,212)" stroke-width="1" opacity="1" d="M 93.5 205 L 94.5 207 Q 91.7 207.7 93.5 205 Z "></path><path fill="rgb(232,225,212)" stroke="rgb(232,225,212)" stroke-width="1" opacity="1" d="M 242.5 299 L 243 302.5 L 242 302.5 L 242.5 299 Z "></path><path fill="rgb(232,225,212)" stroke="rgb(232,225,212)" stroke-width="1" opacity="1" d="M 242.5 327 L 243 361.5 L 242 361.5 L 242.5 327 Z "></path><path fill="rgb(232,225,212)" stroke="rgb(232,225,212)" stroke-width="1" opacity="1" d="M 242.5 366 L 243 368.5 L 242 368.5 L 242.5 366 Z "></path><path fill="rgb(232,225,212)" stroke="rgb(232,225,212)" stroke-width="1" opacity="1" d="M 196.5 374 L 198.5 377 L 196.5 374 Z "></path><path fill="rgb(232,225,212)" stroke="rgb(232,225,212)" stroke-width="1" opacity="1" d="M 200.5 374 L 201 376 L 203 376.5 L 201.5 377 L 200.5 374 Z "></path><path fill="rgb(232,225,212)" stroke="rgb(232,225,212)" stroke-width="1" opacity="1" d="M 300.5 386 L 302 386.5 L 300 387 L 301 389.5 L 299 388.5 L 300.5 386 Z "></path><path fill="rgb(232,225,212)" stroke="rgb(232,225,212)" stroke-width="1" opacity="1" d="M 242.5 389 L 243 391.5 L 242 391.5 L 242.5 389 Z "></path><path fill="rgb(230,223,210)" stroke="rgb(230,223,210)" stroke-width="1" opacity="1" d="M 145.5 108 L 147 108.5 L 145 109 L 144.5 111 L 144 109.5 L 145.5 108 Z "></path><path fill="rgb(230,223,210)" stroke="rgb(230,223,210)" stroke-width="1" opacity="1" d="M 145.5 112 L 147 117.5 L 146 117.5 L 145.5 112 Z "></path><path fill="rgb(230,223,210)" stroke="rgb(230,223,210)" stroke-width="1" opacity="1" d="M 154.5 112 L 157 113.5 L 155.5 114 L 154.5 112 Z "></path><path fill="rgb(230,223,210)" stroke="rgb(230,223,210)" stroke-width="1" opacity="1" d="M 357.5 112 L 356.5 114 L 355 113.5 L 357.5 112 Z "></path><path fill="rgb(230,223,210)" stroke="rgb(230,223,210)" stroke-width="1" opacity="1" d="M 150 114 Q 153.7 112.5 153 115.5 L 152 120.5 L 153 122.5 L 152 125 L 150 124.5 L 150 114 Z "></path><path fill="rgb(230,223,210)" stroke="rgb(230,223,210)" stroke-width="1" opacity="1" d="M 160.5 114 L 161.5 116 L 160.5 114 Z "></path><path fill="rgb(230,223,210)" stroke="rgb(230,223,210)" stroke-width="1" opacity="1" d="M 351.5 114 L 350.5 116 L 351.5 114 Z "></path><path fill="rgb(230,223,210)" stroke="rgb(230,223,210)" stroke-width="1" opacity="1" d="M 360.5 114 Q 364.7 112.7 363 117.5 L 361 118.5 L 359 115.5 L 360.5 114 Z "></path><path fill="rgb(230,223,210)" stroke="rgb(230,223,210)" stroke-width="1" opacity="1" d="M 154 117 L 159 117 L 159 119 L 154 119 L 154 117 Z "></path><path fill="rgb(230,223,210)" stroke="rgb(230,223,210)" stroke-width="1" opacity="1" d="M 168.5 117 L 171 118.5 L 169.5 119 L 168.5 117 Z "></path><path fill="rgb(230,223,210)" stroke="rgb(230,223,210)" stroke-width="1" opacity="1" d="M 343.5 117 L 342.5 119 L 341 118.5 L 343.5 117 Z "></path><path fill="rgb(230,223,210)" stroke="rgb(230,223,210)" stroke-width="1" opacity="1" d="M 353 117 L 358 117 L 358 119 L 353 119 L 353 117 Z "></path><path fill="rgb(230,223,210)" stroke="rgb(230,223,210)" stroke-width="1" opacity="1" d="M 162.5 119 Q 167.3 117.7 166 121 L 161.5 122 L 161 120.5 L 162.5 119 Z "></path><path fill="rgb(230,223,210)" stroke="rgb(230,223,210)" stroke-width="1" opacity="1" d="M 176.5 119 L 177.5 121 L 176.5 119 Z "></path><path fill="rgb(230,223,210)" stroke="rgb(230,223,210)" stroke-width="1" opacity="1" d="M 335.5 119 L 334.5 121 L 335.5 119 Z "></path><path fill="rgb(230,223,210)" stroke="rgb(230,223,210)" stroke-width="1" opacity="1" d="M 346.5 119 Q 350.3 118.3 351 120.5 L 346.5 122 Q 343.5 120.5 346.5 119 Z "></path><path fill="rgb(230,223,210)" stroke="rgb(230,223,210)" stroke-width="1" opacity="1" d="M 365.5 120 L 366 122.5 L 365 122.5 L 365.5 120 Z "></path><path fill="rgb(230,223,210)" stroke="rgb(230,223,210)" stroke-width="1" opacity="1" d="M 181.5 121 L 185 121.5 L 181.5 122 L 181.5 121 Z "></path><path fill="rgb(230,223,210)" stroke="rgb(230,223,210)" stroke-width="1" opacity="1" d="M 327.5 121 L 331 121.5 L 327.5 122 L 327.5 121 Z "></path><path fill="rgb(230,223,210)" stroke="rgb(230,223,210)" stroke-width="1" opacity="1" d="M 169.5 122 Q 176.4 120 175 124 Q 169.3 125.3 169.5 122 Z "></path><path fill="rgb(230,223,210)" stroke="rgb(230,223,210)" stroke-width="1" opacity="1" d="M 187.5 122 L 191 123.5 L 188.5 124 L 187.5 122 Z "></path><path fill="rgb(230,223,210)" stroke="rgb(230,223,210)" stroke-width="1" opacity="1" d="M 324.5 122 L 323.5 124 L 321 123.5 L 324.5 122 Z "></path><path fill="rgb(230,223,210)" stroke="rgb(230,223,210)" stroke-width="1" opacity="1" d="M 338 122 L 344 122.5 Q 342.6 125.3 338 124 L 338 122 Z "></path><path fill="rgb(230,223,210)" stroke="rgb(230,223,210)" stroke-width="1" opacity="1" d="M 180.5 124 Q 184.3 123.3 185 125.5 L 180.5 127 L 177 125.5 L 180.5 124 Z "></path><path fill="rgb(230,223,210)" stroke="rgb(230,223,210)" stroke-width="1" opacity="1" d="M 329.5 124 L 335 125.5 Q 333.3 127.8 328.5 127 L 327.5 125 L 329.5 124 Z "></path><path fill="rgb(230,223,210)" stroke="rgb(230,223,210)" stroke-width="1" opacity="1" d="M 358 124 L 360 124.5 L 360 135.5 L 359 135.5 L 358 129.5 L 359 126.5 L 358 124 Z "></path><path fill="rgb(230,223,210)" stroke="rgb(230,223,210)" stroke-width="1" opacity="1" d="M 204.5 126 L 213 126.5 L 204.5 127 L 204.5 126 Z "></path><path fill="rgb(230,223,210)" stroke="rgb(230,223,210)" stroke-width="1" opacity="1" d="M 299.5 126 L 307 126.5 L 299.5 127 L 299.5 126 Z "></path><path fill="rgb(230,223,210)" stroke="rgb(230,223,210)" stroke-width="1" opacity="1" d="M 188.5 127 Q 195.3 125.3 197 128.5 L 187.5 129 L 188.5 127 Z "></path><path fill="rgb(230,223,210)" stroke="rgb(230,223,210)" stroke-width="1" opacity="1" d="M 220.5 127 L 224 127.5 L 220.5 128 L 220.5 127 Z "></path><path fill="rgb(230,223,210)" stroke="rgb(230,223,210)" stroke-width="1" opacity="1" d="M 288.5 127 L 292 127.5 L 288.5 128 L 288.5 127 Z "></path><path fill="rgb(230,223,210)" stroke="rgb(230,223,210)" stroke-width="1" opacity="1" d="M 315 127 L 323.5 127 L 324 129 L 315.5 129 L 315 127 Z "></path><path fill="rgb(230,223,210)" stroke="rgb(230,223,210)" stroke-width="1" opacity="1" d="M 363.5 127 L 364 133.5 L 363 133.5 L 363.5 127 Z "></path><path fill="rgb(230,223,210)" stroke="rgb(230,223,210)" stroke-width="1" opacity="1" d="M 225.5 128 L 235 128.5 L 225.5 129 L 225.5 128 Z "></path><path fill="rgb(230,223,210)" stroke="rgb(230,223,210)" stroke-width="1" opacity="1" d="M 239.5 128 L 242 128.5 L 239.5 129 L 239.5 128 Z "></path><path fill="rgb(230,223,210)" stroke="rgb(230,223,210)" stroke-width="1" opacity="1" d="M 271.5 128 L 274 128.5 L 271.5 129 L 271.5 128 Z "></path><path fill="rgb(230,223,210)" stroke="rgb(230,223,210)" stroke-width="1" opacity="1" d="M 277.5 128 L 287 128.5 L 277.5 129 L 277.5 128 Z "></path><path fill="rgb(230,223,210)" stroke="rgb(230,223,210)" stroke-width="1" opacity="1" d="M 153.5 129 Q 156.5 132 155 139.5 L 153 140.5 L 153.5 129 Z "></path><path fill="rgb(230,223,210)" stroke="rgb(230,223,210)" stroke-width="1" opacity="1" d="M 200.5 130 L 214 130.5 L 212.5 132 L 203 132 L 202.5 134 L 200.5 130 Z "></path><path fill="rgb(230,223,210)" stroke="rgb(230,223,210)" stroke-width="1" opacity="1" d="M 297 130 L 311 130.5 Q 306 133.7 297 132 L 297 130 Z "></path><path fill="rgb(230,223,210)" stroke="rgb(230,223,210)" stroke-width="1" opacity="1" d="M 228.5 132 L 280.5 132 L 281.5 133 L 283.5 133 L 287 133.5 L 223.5 134 L 223.5 133 L 228.5 132 Z "></path><path fill="rgb(230,223,210)" stroke="rgb(230,223,210)" stroke-width="1" opacity="1" d="M 149.5 134 L 150 140.5 L 149 140.5 L 149.5 134 Z "></path><path fill="rgb(230,223,210)" stroke="rgb(230,223,210)" stroke-width="1" opacity="1" d="M 170.5 138 Q 173.1 137.3 172 140 L 167 139.5 L 170.5 138 Z "></path><path fill="rgb(230,223,210)" stroke="rgb(230,223,210)" stroke-width="1" opacity="1" d="M 203.5 138 L 207 139.5 L 193.5 140 L 193.5 139 L 202.5 139 L 203.5 138 Z "></path><path fill="rgb(230,223,210)" stroke="rgb(230,223,210)" stroke-width="1" opacity="1" d="M 213.5 138 L 221 139.5 L 211.5 140 L 211.5 139 L 213.5 138 Z "></path><path fill="rgb(230,223,210)" stroke="rgb(230,223,210)" stroke-width="1" opacity="1" d="M 226 138 Q 229 137 228 140 Q 225 141 226 138 Z "></path><path fill="rgb(230,223,210)" stroke="rgb(230,223,210)" stroke-width="1" opacity="1" d="M 233.5 138 Q 237.3 137 236 140 L 231 139.5 L 233.5 138 Z "></path><path fill="rgb(230,223,210)" stroke="rgb(230,223,210)" stroke-width="1" opacity="1" d="M 280 138 L 286.5 139 L 289.5 138 L 295 139.5 L 280 140 L 280 138 Z "></path><path fill="rgb(230,223,210)" stroke="rgb(230,223,210)" stroke-width="1" opacity="1" d="M 298 138 L 304.5 139 L 306.5 138 L 310 139.5 L 298 140 L 298 138 Z "></path><path fill="rgb(230,223,210)" stroke="rgb(230,223,210)" stroke-width="1" opacity="1" d="M 320.5 138 L 323 139.5 L 320 140 L 320.5 138 Z "></path><path fill="rgb(230,223,210)" stroke="rgb(230,223,210)" stroke-width="1" opacity="1" d="M 175.5 139 L 180 139.5 L 175.5 140 L 175.5 139 Z "></path><path fill="rgb(230,223,210)" stroke="rgb(230,223,210)" stroke-width="1" opacity="1" d="M 328.5 139 L 333 139.5 L 328.5 140 L 328.5 139 Z "></path><path fill="rgb(230,223,210)" stroke="rgb(230,223,210)" stroke-width="1" opacity="1" d="M 351.5 139 L 357 139.5 L 351.5 140 L 351.5 139 Z "></path><path fill="rgb(230,223,210)" stroke="rgb(230,223,210)" stroke-width="1" opacity="1" d="M 267.5 140 L 269 142.5 L 266 144 L 266 421.5 L 262.5 425 Q 259.9 424.3 261 427 L 259 427 L 259 425 Q 261.7 426.1 261 423.5 Q 265.3 422.2 264 415.5 L 263 410.5 L 264 409.5 L 264 349.5 L 263 348.5 L 263 328.5 L 264 327.5 L 264 185.5 L 263 184.5 L 263 164.5 L 264 163.5 L 264 144 Q 267 145.3 266 141.5 L 267.5 140 Z "></path><path fill="rgb(230,223,210)" stroke="rgb(230,223,210)" stroke-width="1" opacity="1" d="M 242 141 Q 245 139.8 244 143.5 L 242 142.5 L 242 141 Z "></path><path fill="rgb(230,223,210)" stroke="rgb(230,223,210)" stroke-width="1" opacity="1" d="M 226.5 144 L 229 144.5 L 226.5 145 L 226.5 144 Z "></path><path fill="rgb(230,223,210)" stroke="rgb(230,223,210)" stroke-width="1" opacity="1" d="M 236.5 144 L 240 144.5 L 236.5 145 L 236.5 144 Z "></path><path fill="rgb(230,223,210)" stroke="rgb(230,223,210)" stroke-width="1" opacity="1" d="M 272.5 144 L 275 144.5 L 272.5 145 L 272.5 144 Z "></path><path fill="rgb(230,223,210)" stroke="rgb(230,223,210)" stroke-width="1" opacity="1" d="M 245.5 146 L 247 147.5 L 247 156.5 Q 244.5 158 246 163.5 L 247 164.5 L 247 202.5 L 246 202.5 L 245 195.5 L 246 190.5 L 245 187.5 L 246 183.5 Q 243.3 181.7 245 175.5 L 246 172.5 L 245 171.5 L 245.5 146 Z "></path><path fill="rgb(230,223,210)" stroke="rgb(230,223,210)" stroke-width="1" opacity="1" d="M 293.5 170 L 294 172.5 L 293 172.5 L 293.5 170 Z "></path><path fill="rgb(230,223,210)" stroke="rgb(230,223,210)" stroke-width="1" opacity="1" d="M 98.5 171 L 99 175.5 L 98 175.5 L 98.5 171 Z "></path><path fill="rgb(230,223,210)" stroke="rgb(230,223,210)" stroke-width="1" opacity="1" d="M 413.5 172 L 414 174.5 L 413 174.5 L 413.5 172 Z "></path><path fill="rgb(230,223,210)" stroke="rgb(230,223,210)" stroke-width="1" opacity="1" d="M 101 173 L 214.5 173 L 215 174.5 L 214 175.5 L 214 385.5 L 215 389 Q 212.3 390.1 213 387.5 L 211 384 Q 208 385.3 209 381.5 L 211 382.5 L 211.5 384 Q 214.3 382.7 212 381.5 L 212 287.5 L 213 286.5 L 213 267.5 L 212 266.5 L 212 175 L 205.5 176 L 204.5 175 L 104 175 Q 105.8 181.1 102.5 183 L 101 173 Z "></path><path fill="rgb(230,223,210)" stroke="rgb(230,223,210)" stroke-width="1" opacity="1" d="M 217.5 173 L 218 393.5 L 217 393.5 L 217.5 173 Z "></path><path fill="rgb(230,223,210)" stroke="rgb(230,223,210)" stroke-width="1" opacity="1" d="M 298 173 L 408.5 173 L 410 174.5 L 408.5 176 L 349.5 176 L 346.5 175 L 345.5 176 L 331.5 176 L 328.5 175 L 327.5 176 L 308.5 176 L 305.5 175 L 303.5 176 L 300.5 175 Q 299.3 177.3 298 174.5 L 298 173 Z "></path><path fill="rgb(230,223,210)" stroke="rgb(230,223,210)" stroke-width="1" opacity="1" d="M 414.5 178 L 415 181.5 L 414 181.5 L 414.5 178 Z "></path><path fill="rgb(230,223,210)" stroke="rgb(230,223,210)" stroke-width="1" opacity="1" d="M 410.5 179 Q 413 180 412 184.5 L 410.5 192 L 409 187.5 L 410 185.5 L 409 180.5 L 410.5 179 Z "></path><path fill="rgb(230,223,210)" stroke="rgb(230,223,210)" stroke-width="1" opacity="1" d="M 97.5 181 L 98 183.5 L 96.5 186 L 96 184.5 L 97.5 181 Z "></path><path fill="rgb(230,223,210)" stroke="rgb(230,223,210)" stroke-width="1" opacity="1" d="M 331.5 181 L 345.5 181 L 349 182.5 L 345.5 184 L 331.5 184 L 323 182.5 L 331.5 181 Z "></path><path fill="rgb(230,223,210)" stroke="rgb(230,223,210)" stroke-width="1" opacity="1" d="M 161.5 182 L 182 182.5 L 179.5 184 L 164.5 184 L 161.5 183 L 161.5 182 Z "></path><path fill="rgb(230,223,210)" stroke="rgb(230,223,210)" stroke-width="1" opacity="1" d="M 299.5 182 L 300 184.5 L 299 184.5 L 299.5 182 Z "></path><path fill="rgb(230,223,210)" stroke="rgb(230,223,210)" stroke-width="1" opacity="1" d="M 144 184 L 152.5 184 L 153 186 L 144.5 186 L 144 184 Z "></path><path fill="rgb(230,223,210)" stroke="rgb(230,223,210)" stroke-width="1" opacity="1" d="M 318.5 184 Q 321.1 183.3 320 186 L 317 185.5 L 318.5 184 Z "></path><path fill="rgb(230,223,210)" stroke="rgb(230,223,210)" stroke-width="1" opacity="1" d="M 359.5 184 Q 364.8 182.8 366 185.5 L 358.5 186 L 359.5 184 Z "></path><path fill="rgb(230,223,210)" stroke="rgb(230,223,210)" stroke-width="1" opacity="1" d="M 102.5 185 L 103 187.5 L 102 187.5 L 102.5 185 Z "></path><path fill="rgb(230,223,210)" stroke="rgb(230,223,210)" stroke-width="1" opacity="1" d="M 193.5 185 L 196 185.5 L 193.5 186 L 193.5 185 Z "></path><path fill="rgb(230,223,210)" stroke="rgb(230,223,210)" stroke-width="1" opacity="1" d="M 182.5 186 L 190.5 186 L 192 187.5 L 191.5 366 L 191 187 L 182.5 187 L 182.5 186 Z "></path><path fill="rgb(230,223,210)" stroke="rgb(230,223,210)" stroke-width="1" opacity="1" d="M 324.5 186 L 328 186.5 L 324.5 187 L 324.5 186 Z "></path><path fill="rgb(230,223,210)" stroke="rgb(230,223,210)" stroke-width="1" opacity="1" d="M 376.5 186 L 381 187.5 Q 378.9 189.9 373.5 189 L 372.5 187 L 376.5 186 Z "></path><path fill="rgb(230,223,210)" stroke="rgb(230,223,210)" stroke-width="1" opacity="1" d="M 131.5 187 L 138.5 187 L 139 189 Q 132.4 190.2 131.5 187 Z "></path><path fill="rgb(230,223,210)" stroke="rgb(230,223,210)" stroke-width="1" opacity="1" d="M 160.5 187 L 163 187.5 L 157.5 189 L 157.5 188 L 160.5 187 Z "></path><path fill="rgb(230,223,210)" stroke="rgb(230,223,210)" stroke-width="1" opacity="1" d="M 315 187 L 317 187.5 L 317 371 L 315 370.5 L 315 187 Z "></path><path fill="rgb(230,223,210)" stroke="rgb(230,223,210)" stroke-width="1" opacity="1" d="M 348.5 187 L 354 188.5 L 352.5 189 L 348.5 188 L 348.5 187 Z "></path><path fill="rgb(230,223,210)" stroke="rgb(230,223,210)" stroke-width="1" opacity="1" d="M 99 189 L 101 189.5 L 101 197 Q 106.2 195.3 105 199 L 99 199 L 99 189 Z "></path><path fill="rgb(230,223,210)" stroke="rgb(230,223,210)" stroke-width="1" opacity="1" d="M 123.5 189 Q 128 188 129 190.5 L 124.5 192 L 122 190.5 L 123.5 189 Z "></path><path fill="rgb(230,223,210)" stroke="rgb(230,223,210)" stroke-width="1" opacity="1" d="M 145.5 189 L 151 189.5 L 145.5 190 L 145.5 189 Z "></path><path fill="rgb(230,223,210)" stroke="rgb(230,223,210)" stroke-width="1" opacity="1" d="M 361.5 189 Q 366.9 188.1 369 190.5 L 367.5 191 Q 366.3 188.8 361.5 190 L 361.5 189 Z "></path><path fill="rgb(230,223,210)" stroke="rgb(230,223,210)" stroke-width="1" opacity="1" d="M 384 189 L 391 190.5 L 384 191 L 384 189 Z "></path><path fill="rgb(230,223,210)" stroke="rgb(230,223,210)" stroke-width="1" opacity="1" d="M 112.5 192 Q 120.1 190.5 119 194 Q 113.3 195 112.5 192 Z "></path><path fill="rgb(230,223,210)" stroke="rgb(230,223,210)" stroke-width="1" opacity="1" d="M 132.5 192 L 134 192.5 L 130.5 194 L 130.5 193 L 132.5 192 Z "></path><path fill="rgb(230,223,210)" stroke="rgb(230,223,210)" stroke-width="1" opacity="1" d="M 378.5 192 L 381 193.5 L 379.5 193 L 378.5 192 Z "></path><path fill="rgb(230,223,210)" stroke="rgb(230,223,210)" stroke-width="1" opacity="1" d="M 393 192 L 399 192.5 Q 397.6 195.3 393 194 L 393 192 Z "></path><path fill="rgb(230,223,210)" stroke="rgb(230,223,210)" stroke-width="1" opacity="1" d="M 107 194 L 112 194 L 112 195.5 L 108.5 197 L 107 194 Z "></path><path fill="rgb(230,223,210)" stroke="rgb(230,223,210)" stroke-width="1" opacity="1" d="M 124.5 194 L 128 194.5 L 124.5 195 L 124.5 194 Z "></path><path fill="rgb(230,223,210)" stroke="rgb(230,223,210)" stroke-width="1" opacity="1" d="M 384.5 194 L 388 194.5 L 384.5 195 L 384.5 194 Z "></path><path fill="rgb(230,223,210)" stroke="rgb(230,223,210)" stroke-width="1" opacity="1" d="M 400 194 L 406 195.5 L 401.5 197 L 400 194 Z "></path><path fill="rgb(230,223,210)" stroke="rgb(230,223,210)" stroke-width="1" opacity="1" d="M 95.5 195 L 96 198.5 L 94.5 201 L 94 199.5 L 95.5 195 Z "></path><path fill="rgb(230,223,210)" stroke="rgb(230,223,210)" stroke-width="1" opacity="1" d="M 413.5 195 L 414 201.5 L 413 201.5 L 412 196.5 L 413.5 195 Z "></path><path fill="rgb(230,223,210)" stroke="rgb(230,223,210)" stroke-width="1" opacity="1" d="M 114.5 197 L 116 197.5 L 113.5 199 L 114.5 197 Z "></path><path fill="rgb(230,223,210)" stroke="rgb(230,223,210)" stroke-width="1" opacity="1" d="M 396.5 197 L 399 198.5 L 397.5 198 L 396.5 197 Z "></path><path fill="rgb(230,223,210)" stroke="rgb(230,223,210)" stroke-width="1" opacity="1" d="M 408.5 197 Q 412.3 196 411 199 L 407 198.5 L 408.5 197 Z "></path><path fill="rgb(230,223,210)" stroke="rgb(230,223,210)" stroke-width="1" opacity="1" d="M 109.5 199 L 112 199.5 L 109.5 200 L 109.5 199 Z "></path><path fill="rgb(230,223,210)" stroke="rgb(230,223,210)" stroke-width="1" opacity="1" d="M 400.5 199 L 403 199.5 L 400.5 200 L 400.5 199 Z "></path><path fill="rgb(230,223,210)" stroke="rgb(230,223,210)" stroke-width="1" opacity="1" d="M 106.5 200 L 105.5 202 L 106.5 200 Z "></path><path fill="rgb(230,223,210)" stroke="rgb(230,223,210)" stroke-width="1" opacity="1" d="M 410.5 202 L 411.5 204 L 410.5 202 Z "></path><path fill="rgb(230,223,210)" stroke="rgb(230,223,210)" stroke-width="1" opacity="1" d="M 417.5 202 L 419 206.5 L 417.5 206 L 416 205.5 L 417.5 202 Z "></path><path fill="rgb(230,223,210)" stroke="rgb(230,223,210)" stroke-width="1" opacity="1" d="M 245 231 Q 248.3 229.9 247 234 Q 243.7 235.1 245 231 Z "></path><path fill="rgb(230,223,210)" stroke="rgb(230,223,210)" stroke-width="1" opacity="1" d="M 248.5 361 L 249 388.5 L 248 388.5 L 248.5 361 Z "></path><path fill="rgb(230,223,210)" stroke="rgb(230,223,210)" stroke-width="1" opacity="1" d="M 242.5 362 L 243 365.5 L 242 365.5 L 242.5 362 Z "></path><path fill="rgb(230,223,210)" stroke="rgb(230,223,210)" stroke-width="1" opacity="1" d="M 191.5 368 L 196 373.5 L 191 369.5 L 191.5 368 Z "></path><path fill="rgb(230,223,210)" stroke="rgb(230,223,210)" stroke-width="1" opacity="1" d="M 196 368 Q 198.7 366.9 198 369.5 L 201 371 Q 199.9 373.7 202.5 373 L 204 376 L 206 376 L 206 379 Q 209 378 208 381 L 206 381 Q 207.1 378.3 204.5 379 L 203 376 L 201 376 Q 202.1 373.3 199.5 374 L 198 371 Q 194.7 372.1 196 368 Z "></path><path fill="rgb(230,223,210)" stroke="rgb(230,223,210)" stroke-width="1" opacity="1" d="M 242.5 369 L 243 388.5 L 242 388.5 L 242.5 369 Z "></path><path fill="rgb(230,223,210)" stroke="rgb(230,223,210)" stroke-width="1" opacity="1" d="M 299.5 369 L 300 371.5 L 299 371.5 L 299.5 369 Z "></path><path fill="rgb(230,223,210)" stroke="rgb(230,223,210)" stroke-width="1" opacity="1" d="M 312 371 Q 315 370 314 373 Q 311 374 312 371 Z "></path><path fill="rgb(230,223,210)" stroke="rgb(230,223,210)" stroke-width="1" opacity="1" d="M 318.5 371 L 317.5 373 L 318.5 371 Z "></path><path fill="rgb(230,223,210)" stroke="rgb(230,223,210)" stroke-width="1" opacity="1" d="M 310 374 Q 313 373 312 376 Q 309 377 310 374 Z "></path><path fill="rgb(230,223,210)" stroke="rgb(230,223,210)" stroke-width="1" opacity="1" d="M 307 376 Q 310.3 374.9 309 379 Q 306 378 307 381 L 304 381 L 304 384 L 302 384 Q 303.1 386.7 300.5 386 L 298.5 389 L 298 386.5 L 299 384 L 302 384 L 302 381 Q 305 382 304 379 L 307 379 L 307 376 Z "></path><path fill="rgb(230,223,210)" stroke="rgb(230,223,210)" stroke-width="1" opacity="1" d="M 313.5 376 L 312.5 378 L 313.5 376 Z "></path><path fill="rgb(230,223,210)" stroke="rgb(230,223,210)" stroke-width="1" opacity="1" d="M 299.5 379 L 300 381.5 L 299 381.5 L 299.5 379 Z "></path><path fill="rgb(230,223,210)" stroke="rgb(230,223,210)" stroke-width="1" opacity="1" d="M 203.5 382 L 204.5 384 L 203.5 382 Z "></path><path fill="rgb(230,223,210)" stroke="rgb(230,223,210)" stroke-width="1" opacity="1" d="M 206.5 385 L 208.5 388 L 206.5 385 Z "></path><path fill="rgb(230,223,210)" stroke="rgb(230,223,210)" stroke-width="1" opacity="1" d="M 212.5 391 L 213.5 393 L 212.5 391 Z "></path><path fill="rgb(230,223,210)" stroke="rgb(230,223,210)" stroke-width="1" opacity="1" d="M 242.5 392 L 243 419.5 L 242 419.5 L 242.5 392 Z "></path><path fill="rgb(230,223,210)" stroke="rgb(230,223,210)" stroke-width="1" opacity="1" d="M 248.5 392 L 249 409.5 L 248 409.5 L 248.5 392 Z "></path><path fill="rgb(230,223,210)" stroke="rgb(230,223,210)" stroke-width="1" opacity="1" d="M 297.5 393 L 294.5 397 Q 291.9 397.8 293 394.5 L 294 394.5 L 294.5 396 L 297.5 393 Z "></path><path fill="rgb(230,223,210)" stroke="rgb(230,223,210)" stroke-width="1" opacity="1" d="M 247 422 L 250 423.5 L 247 424 L 247 422 Z "></path><path fill="rgb(230,223,210)" stroke="rgb(230,223,210)" stroke-width="1" opacity="1" d="M 268.5 423 L 266.5 426 L 268.5 423 Z "></path><path fill="rgb(230,223,210)" stroke="rgb(230,223,210)" stroke-width="1" opacity="1" d="M 250 425 L 252 425 Q 250.9 427.7 253.5 427 L 255.5 430 L 257.5 427 Q 260.8 428.8 257 430.5 Q 257.7 433.1 255 432 Q 256.1 428.7 252 430 L 252 427 Q 249 428 250 425 Z "></path><path fill="rgb(230,223,210)" stroke="rgb(230,223,210)" stroke-width="1" opacity="1" d="M 246.5 426 L 247.5 428 L 246.5 426 Z "></path><path fill="rgb(230,223,210)" stroke="rgb(230,223,210)" stroke-width="1" opacity="1" d="M 264.5 427 L 263.5 429 L 264.5 427 Z "></path><path fill="rgb(230,223,210)" stroke="rgb(230,223,210)" stroke-width="1" opacity="1" d="M 249.5 429 L 252.5 433 L 249.5 429 Z "></path><path fill="rgb(230,223,210)" stroke="rgb(230,223,210)" stroke-width="1" opacity="1" d="M 259.5 432 L 258.5 434 L 259.5 432 Z "></path><path fill="rgb(230,223,210)" stroke="rgb(230,223,210)" stroke-width="1" opacity="1" d="M 254.5 434 L 255.5 436 L 254.5 434 Z "></path><path fill="rgb(23,23,23)" stroke="rgb(23,23,23)" stroke-width="1" opacity="1" d="M 6 0 L 506.5 0 L 507 2 L 6.5 2 L 6 0 Z "></path><path fill="rgb(23,23,23)" stroke="rgb(23,23,23)" stroke-width="1" opacity="1" d="M 509 0 Q 511.7 -1.1 511 1.5 L 512 3.5 L 509 1.5 L 509 0 Z "></path><path fill="rgb(23,23,23)" stroke="rgb(23,23,23)" stroke-width="1" opacity="1" d="M 511.5 5 L 512 506.5 L 511 506.5 L 511.5 5 Z "></path><path fill="rgb(23,23,23)" stroke="rgb(23,23,23)" stroke-width="1" opacity="1" d="M 0 6 L 2 6.5 L 2 508 L 0 507.5 L 1 505.5 L 0 504.5 L 0 6 Z "></path><path fill="rgb(23,23,23)" stroke="rgb(23,23,23)" stroke-width="1" opacity="1" d="M 295.5 167 L 298 167.5 L 295.5 168 L 295.5 167 Z "></path><path fill="rgb(23,23,23)" stroke="rgb(23,23,23)" stroke-width="1" opacity="1" d="M 305.5 167 L 328 167.5 L 305.5 168 L 305.5 167 Z "></path><path fill="rgb(23,23,23)" stroke="rgb(23,23,23)" stroke-width="1" opacity="1" d="M 349.5 167 L 410 167.5 L 349.5 168 L 349.5 167 Z "></path><path fill="rgb(23,23,23)" stroke="rgb(23,23,23)" stroke-width="1" opacity="1" d="M 291.5 173 L 292 371.5 L 291 371.5 L 291.5 173 Z "></path><path fill="rgb(23,23,23)" stroke="rgb(23,23,23)" stroke-width="1" opacity="1" d="M 291.5 374 L 292 388.5 L 291 388.5 L 291.5 374 Z "></path><path fill="rgb(23,23,23)" stroke="rgb(23,23,23)" stroke-width="1" opacity="1" d="M 0 509 L 4 511.5 L 2.5 512 L 0 511 L 0 509 Z "></path><path fill="rgb(23,23,23)" stroke="rgb(23,23,23)" stroke-width="1" opacity="1" d="M 511.5 509 L 509.5 512 L 511.5 509 Z "></path><path fill="rgb(23,23,23)" stroke="rgb(23,23,23)" stroke-width="1" opacity="1" d="M 277.5 510 L 278.5 511 L 508 511.5 L 5.5 512 L 5.5 511 L 276.5 511 L 277.5 510 Z "></path></svg>