<svg id="Layer_1" data-name="Layer 1" xmlns="http://www.w3.org/2000/svg" viewBox="0 0 250 250"><defs><style>.cls-1{fill:#2b74c0;}.cls-2{fill:#fff;}</style></defs><path class="cls-1" d="M125,1.32h0a124,124,0,0,1,124,124h0a124,124,0,0,1-124,124h0a124,124,0,0,1-124-124H1A124,124,0,0,1,125,1.32Z"/><path class="cls-2" d="M71.32,111.84a30.56,30.56,0,0,1-7.69-13.78c-1.7-6.78.11-12.81,4.54-18.1A33.87,33.87,0,0,1,76.55,73c.27-.16.48-.32.8-.48-.75-1.6-1.49-3.15-2.24-4.7a13.7,13.7,0,0,1-1.55-6.62,11.22,11.22,0,0,1,4.38-8.16,15.86,15.86,0,0,1,5.66-2.94q15.29-5,30.63-9.88a32.88,32.88,0,0,1,5.93-1.6,11.34,11.34,0,0,1,13,9.88c.27,2,.64,3.95.91,5.82,1.65,0,3.25-.06,4.8,0a35.51,35.51,0,0,1,10.25,1.81,17.92,17.92,0,0,1,11.53,12.23,39.36,39.36,0,0,1,1.65,11.1c0,1.12-.16,2.24-.27,3.37,1.5.74,3.05,1.44,4.49,2.19a27,27,0,0,1,13.45,15.69c1.71,5,3.25,10,4.86,15q6.55,20.51,13,41a24.4,24.4,0,0,1,.27,13.13,32.35,32.35,0,0,1-10.89,17.94A37,37,0,0,1,175.35,194c-7.42,2.46-14.95,4.86-22.37,7.21q-13.6,4.41-27.27,8.7a44.53,44.53,0,0,1-10.2,2.14,26,26,0,0,1-7.57-.59,32.49,32.49,0,0,1-9.4-3.36A29.28,29.28,0,0,1,84,190.26c-4.54-14.68-9.34-29.31-14-44a96.18,96.18,0,0,1-3.25-11.42,29,29,0,0,1,4.48-22.69A.74.74,0,0,1,71.32,111.84Zm15.75-3.37c-.48.7-.91,1.28-1.39,1.87-1.66,1.92-3.36,3.79-5,5.77-4.64,5.87-6,12.38-3.68,19.64,1.66,5.08,3.36,10.15,5,15.22,4.11,12.76,8.11,25.52,12.22,38.28A15,15,0,0,0,96,193.09a20.89,20.89,0,0,0,6,5.5,22.18,22.18,0,0,0,19.22,2.19c6.51-2,13-4.16,19.48-6.24,10.14-3.26,20.28-6.46,30.42-9.72a30.79,30.79,0,0,0,8.12-3.63c4.64-3.2,7.31-7.69,8.75-13a15,15,0,0,0,.05-8.54q-8.88-27.8-17.72-55.58a15.85,15.85,0,0,0-4.7-7.31,25.94,25.94,0,0,0-11.31-5.61l-6.09-1.44c-.58-.16-1.12-.53-1.06-1.07.05-.75-.16-1.65.74-2.13a7.56,7.56,0,0,0,4.11-8,52.77,52.77,0,0,0-1.28-7.15A7.57,7.57,0,0,0,145,65.49a28.19,28.19,0,0,0-12.12-.69,23,23,0,0,0-2.56.48c-.91.21-1.12.59-.85,1.44.1.27.16.59.26.86.48,1.49.48,1.49,2.08,1.33a5.19,5.19,0,0,1,3,.32.81.81,0,0,1,.27,1.44,7.52,7.52,0,0,1-1.87,1.39c-5.18,2.35-10.3,4.81-15.58,7a111.25,111.25,0,0,1-23.43,6.51c-2.46.43-4.92.8-7.37,1.07a4,4,0,0,1-1.71-.32c-.59-.16-.8-.64-.32-1.12a10.25,10.25,0,0,1,1.76-1.61c.59-.42,1.34-.74,1.92-1.17.16-.11.38-.48.32-.59-.37-1-.8-2-1.17-3-.21,0-.37.11-.53.16a37.64,37.64,0,0,0-7,3.74A22.61,22.61,0,0,0,75,87.38a8.86,8.86,0,0,0-1.81,8.23,21.2,21.2,0,0,0,4.8,8.7,7,7,0,0,0,5.76,2.45,2.68,2.68,0,0,1,2.51,1.07A3.93,3.93,0,0,1,87.07,108.47Zm34.64-59.74a8.49,8.49,0,0,0-1.23.32C108.74,52.84,97,56.63,85.31,60.42a7.55,7.55,0,0,0-1,.43c-.8.48-.9.85-.48,1.65,1.6,3.32,3.26,6.57,4.91,9.88,1.34,2.67,2.62,5.34,4,8a1.77,1.77,0,0,0,2,1.06c1.39-.26,2.72-.58,4.06-1,8.38-2.24,16.6-5.07,24.76-8,.91-.32,2.09-.54,2.19-1.87,0-.05.06-.05.11-.11a1.32,1.32,0,0,0,.37-1.44c-.58-3.42-1.12-6.78-1.7-10.2-.48-3-1-6-1.5-9C122.77,49,122.56,48.78,121.71,48.73Z"/><path class="cls-2" d="M166,115.26c.53,1.66,1.07,3.15,1.55,4.7,2.61,8.17,5.23,16.34,7.79,24.5,1.17,3.69,2.29,7.43,3.26,11.16a20.61,20.61,0,0,1,.21,10.63,16.24,16.24,0,0,1-8.91,10.51,101.41,101.41,0,0,1-14.68,5.56q-13.77,4.4-27.6,8.7a45.85,45.85,0,0,1-12,2,14.46,14.46,0,0,1-11.47-5,24.41,24.41,0,0,1-5-8.7q-2.64-7.46-5.12-14.9c-2.19-6.56-4.32-13.24-6.62-19.81a6.61,6.61,0,0,1,.43-5.23A16.32,16.32,0,0,1,93,133.57c.8-.64,1.66-1.17,2.51-1.76a6.35,6.35,0,0,0,2.08-6.57,3.86,3.86,0,0,0-2-2.08,6.67,6.67,0,1,1,9.51-6.3,6.31,6.31,0,0,1-.91,3.63,3.29,3.29,0,0,0,.21,4,4.09,4.09,0,0,0,4.16,1.81c1.82-.32,3.53-1,5.29-1.39a33,33,0,0,1,11.15-.64c3.53.43,7,1,10.57,1.44,8.28,1,16-.48,23-5.17,2.19-1.5,4.37-3,6.56-4.6C165.36,115.74,165.63,115.53,166,115.26Zm-37,50.35a18.1,18.1,0,0,0-3.37-9.77,10.78,10.78,0,0,0-4.43-3.79,4.73,4.73,0,0,0-6,1.81,8.73,8.73,0,0,0-1.45,4.06,17.33,17.33,0,0,0,3.42,12.33,9.92,9.92,0,0,0,4,3.42,4.81,4.81,0,0,0,6.62-2.19A11.5,11.5,0,0,0,129,165.61Zm29.3-9.19a17.93,17.93,0,0,0-3.31-9.87,10.81,10.81,0,0,0-4.22-3.69,4.84,4.84,0,0,0-6.56,2.19,10.39,10.39,0,0,0-1.23,5.45,17.9,17.9,0,0,0,2.3,8.59,11.77,11.77,0,0,0,5.12,5.23,4.81,4.81,0,0,0,6.67-2.18A10.91,10.91,0,0,0,158.26,156.42Z"/><path class="cls-2" d="M153.83,114.82a6.67,6.67,0,0,1-13.34,0,6.74,6.74,0,0,1,6.72-6.67A6.55,6.55,0,0,1,153.83,114.82Z"/><path class="cls-2" d="M130.84,106.82a4,4,0,1,1,0,8,4.1,4.1,0,0,1-4-4A4,4,0,0,1,130.84,106.82Z"/></svg>