<?xml version="1.0" encoding="utf-8"?>
<!-- Generator: Adobe Illustrator 16.0.0, SVG Export Plug-In . SVG Version: 6.00 Build 0)  -->
<!DOCTYPE svg PUBLIC "-//W3C//DTD SVG 1.1//EN" "http://www.w3.org/Graphics/SVG/1.1/DTD/svg11.dtd">
<svg version="1.1" id="Layer_1" xmlns="http://www.w3.org/2000/svg" xmlns:xlink="http://www.w3.org/1999/xlink" x="0px" y="0px"
	 width="161.5px" height="161.5px" viewBox="0 0 161.5 161.5" enable-background="new 0 0 161.5 161.5" xml:space="preserve">
<path fill="#9BE0BA" d="M136.533,135.378c13.771-13.923,22.281-33.062,22.281-54.191c0-42.566-34.508-77.074-77.074-77.074
	c-21.43,0-40.811,8.752-54.781,22.87L136.533,135.378z"/>
<path fill="none" stroke="#3C3C3B" stroke-width="5.669" stroke-linecap="round" stroke-miterlimit="10" d="M136.533,135.378
	c13.771-13.923,22.281-33.062,22.281-54.191c0-42.566-34.508-77.074-77.074-77.074c-21.43,0-40.811,8.752-54.781,22.87
	L136.533,135.378z"/>
<path fill="#FFB3B3" d="M26.959,26.983C13.182,40.907,4.667,60.05,4.667,81.187c0,42.566,34.507,77.073,77.073,77.073
	c21.437,0,40.822-8.757,54.793-22.882L26.959,26.983z"/>
<path fill="none" stroke="#3C3C3B" stroke-width="5.669" stroke-linecap="round" stroke-miterlimit="10" d="M26.959,26.983
	C13.182,40.907,4.667,60.05,4.667,81.187c0,42.566,34.507,77.073,77.073,77.073c21.437,0,40.822-8.757,54.793-22.882L26.959,26.983z
	"/>
<polygon fill="#FF6464" points="45.96,45.796 117.316,116.756 116.244,128.451 46.688,128.326 "/>
<polygon fill="#35C982" points="117.401,116.451 46.044,45.492 47.117,33.796 116.672,33.921 "/>
<path fill="#3C3C3B" d="M111.562,36.987c1.169,0,2.119,0.951,2.119,2.12v84.159c0,1.169-0.95,2.12-2.119,2.12H51.918
	c-1.168,0-2.118-0.951-2.118-2.12V39.107c0-1.169,0.95-2.12,2.118-2.12H111.562 M111.562,31.318H51.918
	c-4.302,0-7.789,3.487-7.789,7.789v84.159c0,4.303,3.487,7.789,7.789,7.789h59.645c4.302,0,7.788-3.486,7.788-7.789V39.107
	C119.351,34.805,115.864,31.318,111.562,31.318"/>
<line fill="none" stroke="#3C3C3B" stroke-width="5.669" stroke-miterlimit="10" x1="46.854" y1="46.663" x2="116" y2="115.066"/>
<line fill="none" stroke="#3C3C3B" stroke-width="5.669" stroke-linecap="round" stroke-miterlimit="10" x1="92.286" y1="71.579" x2="92.286" y2="45.579"/>
<line fill="none" stroke="#3C3C3B" stroke-width="5.669" stroke-linecap="round" stroke-miterlimit="10" x1="79.286" y1="58.579" x2="105.286" y2="58.579"/>
<line fill="none" stroke="#3C3C3B" stroke-width="5.669" stroke-linecap="round" stroke-miterlimit="10" x1="60.423" y1="106.817" x2="86.423" y2="106.817"/>
</svg>
