<svg xmlns="http://www.w3.org/2000/svg" width="4928" height="1136" viewBox="0 0 4928 1136" version="1.1"><path d="M 521.500 3.530 C 412.384 12.894, 312.292 51.178, 226 116.557 C 186.359 146.591, 146.623 186.317, 116.641 225.890 C 57.150 304.410, 19.149 396.732, 6.490 493.500 C 0.485 539.401, 0.485 596.599, 6.490 642.500 C 20.742 751.442, 66.837 853.995, 139.359 938.110 C 154.406 955.561, 182.997 984.062, 200 998.557 C 283.658 1069.880, 385.697 1115.407, 493.500 1129.510 C 539.401 1135.515, 596.599 1135.515, 642.500 1129.510 C 750.303 1115.407, 852.342 1069.880, 936 998.557 C 953.003 984.062, 981.594 955.561, 996.641 938.110 C 1069.163 853.995, 1115.258 751.442, 1129.510 642.500 C 1135.515 596.599, 1135.515 539.401, 1129.510 493.500 C 1115.407 385.697, 1069.880 283.658, 998.557 200 C 984.062 182.997, 955.561 154.406, 938.110 139.359 C 853.995 66.837, 751.442 20.742, 642.500 6.490 C 608.113 1.991, 554.666 0.684, 521.500 3.530 M 544 63.022 C 417.528 69.173, 300.087 121.157, 210.594 210.600 C 175.202 245.972, 145.290 286.322, 120.970 331.500 C 114.672 343.198, 102.968 368.301, 103.543 368.876 C 103.761 369.094, 108.566 367.347, 114.220 364.993 C 127.664 359.395, 133.017 358.026, 141.520 358.012 C 149.056 357.999, 160.600 360.735, 167.184 364.094 C 169.372 365.210, 173.264 368.304, 175.832 370.969 C 178.779 374.028, 185.477 378.671, 194 383.565 C 233.053 405.989, 285.679 439.711, 317 462.381 C 333.374 474.233, 346.031 486.937, 352.488 498 C 355.216 502.675, 363.149 518.699, 370.116 533.610 C 384.113 563.562, 391.046 576.329, 394.570 578.638 C 396.562 579.943, 397.747 579.986, 402.701 578.935 C 408.187 577.771, 409.068 577.133, 419.044 567.102 C 424.843 561.271, 436.744 548.175, 445.489 538 C 470.849 508.495, 479.477 499.494, 487.630 494.041 C 504.746 482.593, 524.113 481.177, 542.500 490.028 C 551.338 494.282, 559.016 500.523, 564.314 507.759 C 566.223 510.366, 574.979 525.456, 583.771 541.291 L 599.756 570.082 601.371 563.791 C 602.259 560.331, 604.101 552.826, 605.463 547.113 C 611.011 523.848, 620.274 512.705, 638.423 507.467 C 654.879 502.717, 683.210 509.561, 703.151 523.102 C 712.107 529.184, 717.231 534.126, 725.854 545 C 746.688 571.269, 824.437 661.767, 877.920 722 C 912.266 760.680, 932.058 782.131, 952.842 803.202 C 969.796 820.389, 971.824 822.117, 977.885 824.544 C 985.607 827.635, 999.840 829.507, 1001.664 827.671 C 1002.304 827.027, 1006.096 820.650, 1010.089 813.500 C 1069.858 706.493, 1088.305 578.469, 1061.383 457.500 C 1033.931 334.154, 961.167 226.100, 856.044 152.578 C 765.874 89.514, 654.791 57.633, 544 63.022 M 2571 571 L 2571 904 2600.500 904 L 2630 904 2630 571 L 2630 238 2600.500 238 L 2571 238 2571 571 M 1396 592.500 L 1396 904 1510.250 903.989 C 1604.135 903.980, 1626.995 903.715, 1638.500 902.497 C 1718.599 894.023, 1789.091 862.696, 1840.790 812.598 C 1858.302 795.627, 1868.676 783.219, 1881.836 763.500 C 1909.171 722.541, 1922.800 684.993, 1929.206 633 C 1931.243 616.472, 1930.892 564.840, 1928.628 548 C 1921.951 498.318, 1908.092 460.972, 1881.498 421 C 1849.690 373.191, 1804.572 335.673, 1749.900 311.571 C 1715.469 296.391, 1673.124 285.512, 1635 282.051 C 1627.822 281.399, 1580.748 281.006, 1509.750 281.003 L 1396 281 1396 592.500 M 4075 292.393 C 4064.014 294.839, 4051.893 303.389, 4046.597 312.425 C 4043.294 318.062, 4040.997 326.918, 4041.012 333.960 C 4041.047 350.429, 4049.823 363.849, 4065.684 371.689 C 4072.238 374.928, 4074.577 375.554, 4081.272 375.859 C 4090.124 376.263, 4096.370 374.926, 4103 371.209 C 4119.462 361.980, 4126.788 348.961, 4125.752 330.778 C 4125.338 323.528, 4124.685 320.803, 4122.106 315.564 C 4116.557 304.293, 4103.461 294.342, 4091.114 292.015 C 4084.502 290.769, 4082.029 290.827, 4075 292.393 M 1460.248 592.250 L 1460.500 845.500 1533.500 845.391 C 1612.520 845.273, 1624.355 844.690, 1652.096 839.547 C 1695.151 831.566, 1734.561 814.433, 1768.690 788.860 C 1780.599 779.937, 1801.264 759.583, 1810.175 748 C 1835.422 715.181, 1850.887 679.397, 1857.988 637.366 C 1867.201 582.837, 1858.981 524.485, 1835.407 477.063 C 1812.091 430.158, 1775.761 394.588, 1726 369.945 C 1702.884 358.497, 1684.139 352.035, 1658.432 346.653 C 1628.753 340.439, 1603.824 339.073, 1519.248 339.030 L 1459.996 339 1460.248 592.250 M 4288 434 L 4288 492 4244.500 492 L 4201 492 4201 518.500 L 4201 545 4244.464 545 L 4287.928 545 4288.283 686.250 C 4288.606 814.809, 4288.792 828.257, 4290.351 835.920 C 4296.751 867.368, 4313.883 891.551, 4338.555 903.964 C 4363.580 916.554, 4406.517 918.344, 4444.817 908.393 C 4454.236 905.945, 4466.682 901.495, 4468.345 899.980 C 4469.110 899.283, 4467.208 847.043, 4466.383 846.100 C 4466.191 845.880, 4461.863 847.525, 4456.767 849.755 C 4438.702 857.661, 4423.607 861, 4405.934 861 C 4369.431 861, 4352.365 845.227, 4348.047 807.500 C 4347.393 801.790, 4347.013 752.173, 4347.008 671.750 L 4347 545 4406.500 545 L 4466 545 4466 518.500 L 4466 492 4406.500 492 L 4347 492 4347 434 L 4347 376 4317.500 376 L 4288 376 4288 434 M 126.500 425.530 C 120.450 427.953, 107.175 432.711, 97 436.104 C 86.825 439.497, 78.383 442.366, 78.241 442.479 C 77.561 443.019, 71.667 470.613, 69.529 483.265 C 51.558 589.597, 68.193 700.123, 116.554 795.707 C 188.071 937.062, 321.732 1037.008, 477.317 1065.472 C 498.466 1069.342, 497.788 1071.756, 483.275 1044.250 C 382.197 852.665, 229.049 573.808, 168.721 471.500 C 159.268 455.470, 137.993 420.927, 137.655 421.062 C 137.570 421.096, 132.550 423.107, 126.500 425.530 M 2211.500 482.134 C 2159.687 486.585, 2111.741 508.303, 2076.971 543.073 C 2044.817 575.228, 2024.675 615.709, 2017.300 663 C 2014.773 679.209, 2014.792 717.947, 2017.336 733.500 C 2025.237 781.800, 2044.992 821.231, 2077.456 853.500 C 2115.850 891.662, 2165.733 912.367, 2224.830 914.670 C 2289.690 917.198, 2348.654 895.302, 2390.989 852.967 C 2424.052 819.904, 2444.016 778.622, 2451.184 728.500 C 2453.139 714.826, 2452.831 678.147, 2450.641 664 C 2443.199 615.911, 2423.259 575.448, 2391.173 543.323 C 2346.096 498.190, 2281.335 476.135, 2211.500 482.134 M 2944.500 482.134 C 2892.687 486.585, 2844.741 508.303, 2809.971 543.073 C 2777.817 575.228, 2757.675 615.709, 2750.300 663 C 2747.773 679.209, 2747.792 717.947, 2750.336 733.500 C 2758.237 781.800, 2777.992 821.231, 2810.456 853.500 C 2848.850 891.662, 2898.733 912.367, 2957.830 914.670 C 3022.690 917.198, 3081.654 895.302, 3123.989 852.967 C 3157.052 819.904, 3177.016 778.622, 3184.184 728.500 C 3186.139 714.826, 3185.831 678.147, 3183.641 664 C 3176.199 615.911, 3156.259 575.448, 3124.173 543.323 C 3079.096 498.190, 3014.335 476.135, 2944.500 482.134 M 3472.500 481.584 C 3470.850 481.820, 3465.992 482.488, 3461.703 483.068 C 3438.646 486.188, 3409.036 497.957, 3389.746 511.669 C 3378.595 519.596, 3364.846 533.604, 3357 545.032 L 3350.500 554.500 3350.236 523.250 L 3349.972 492 3318.486 492 L 3287 492 3287.038 496.750 C 3287.058 499.363, 3287.797 510.050, 3288.679 520.500 C 3290.054 536.786, 3290.341 565.536, 3290.691 721.750 L 3291.099 904 3320.508 904 L 3349.917 904 3350.270 783.250 C 3350.653 651.837, 3350.526 654.951, 3356.447 631.611 C 3363.977 601.925, 3383.481 571.790, 3405.924 555.164 C 3425.530 540.639, 3448.662 534.050, 3475.500 535.343 C 3502.713 536.655, 3522.337 543.391, 3536.610 556.318 C 3553.869 571.950, 3564.600 600.234, 3567.980 639 C 3568.584 645.926, 3568.986 700.909, 3568.991 777.250 L 3569 904 3598.500 904 L 3628 904 3628.001 788.250 C 3628.002 673.232, 3628.293 661.215, 3631.541 642.283 C 3640.734 588.693, 3667.722 552.335, 3707.500 539.950 C 3734.433 531.564, 3776.672 534.224, 3799.459 545.739 C 3823.529 557.904, 3837.490 582.217, 3844.683 624.500 C 3846.214 633.498, 3846.419 647.997, 3846.733 769.250 L 3847.081 904 3876.541 904 L 3906 904 3905.978 767.250 C 3905.954 621.715, 3905.764 614.928, 3901.065 592.178 C 3890.037 538.790, 3859.165 503.294, 3811.500 489.202 C 3791.193 483.198, 3758.061 479.905, 3737.870 481.883 C 3687.862 486.783, 3643.349 514.932, 3620.153 556.324 L 3615.208 565.148 3609.747 554.230 C 3602.997 540.734, 3598.084 533.431, 3589.343 523.897 C 3568.840 501.534, 3546.141 489.377, 3514.994 484.075 C 3503.180 482.064, 3479.040 480.649, 3472.500 481.584 M 4715 481.615 C 4673.202 485.459, 4638.252 498.595, 4606.500 522.396 C 4567.596 551.557, 4539.639 595.600, 4528.645 645.048 C 4524.322 664.487, 4523.499 673.073, 4523.518 698.500 C 4523.538 724.233, 4524.612 734.079, 4529.678 755 C 4535.643 779.632, 4548.471 807.479, 4563.766 829 C 4591.568 868.120, 4632.808 896.160, 4679.954 908 C 4746.908 924.814, 4821.033 910.182, 4871.404 870.208 C 4885.111 859.330, 4913.163 830.385, 4912.936 827.353 C 4912.901 826.884, 4906.512 821.325, 4898.739 815 C 4890.966 808.675, 4880.908 800.463, 4876.390 796.751 L 4868.174 790.003 4863.408 796.751 C 4857.156 805.606, 4842.529 820.624, 4832.461 828.527 C 4803.592 851.187, 4774.529 860.989, 4736.192 860.997 C 4712.686 861.002, 4692.016 856.375, 4672.500 846.740 C 4629.756 825.636, 4600.390 787.341, 4589.114 738 C 4588.045 733.325, 4586.871 726.800, 4586.504 723.500 C 4586.137 720.200, 4585.618 716.712, 4585.351 715.750 C 4584.890 714.088, 4593.522 714, 4756.546 714 L 4928.226 714 4927.747 686.250 C 4927.359 663.760, 4926.860 656.225, 4925.114 646.500 C 4914.473 587.229, 4885.432 540.838, 4841.363 512.713 C 4816.719 496.985, 4792.347 487.799, 4764 483.554 C 4753.614 481.999, 4723.699 480.815, 4715 481.615 M 252.146 494.108 C 317.858 610.704, 368.217 701.950, 433.566 822.822 C 450.383 853.927, 450.505 854.117, 451.261 850.322 C 451.680 848.220, 456.960 791.825, 462.995 725 C 469.030 658.175, 474.153 602.150, 474.381 600.500 C 474.744 597.863, 473.020 599.269, 460.147 612.104 C 447.093 625.120, 444.575 627.162, 437 630.870 C 432.325 633.158, 424 636.181, 418.500 637.587 C 409.741 639.826, 406.949 640.094, 396 639.746 C 382.030 639.301, 373.639 637.013, 363.270 630.821 C 346.393 620.741, 338.221 608.828, 316.889 563.201 C 301.820 530.971, 299.131 526.169, 293.247 520.974 C 288.255 516.565, 270.956 503.975, 257.585 495.019 L 249.671 489.717 252.146 494.108 M 4054 698 L 4054 904 4083.500 904 L 4113 904 4113 698 L 4113 492 4083.500 492 L 4054 492 4054 698 M 2207 536.957 C 2183.656 540.562, 2166.845 546.928, 2147.605 559.450 C 2115.196 580.544, 2091.994 616.317, 2083.039 659 C 2075.776 693.622, 2079.143 735.136, 2091.758 766.500 C 2108.292 807.604, 2137.393 836.744, 2176.674 851.529 C 2210.323 864.195, 2256.677 864.195, 2290.326 851.529 C 2338.775 833.293, 2373.346 791.671, 2384.545 738.095 C 2393.216 696.608, 2387.877 651.895, 2370.051 616.711 C 2350.379 577.881, 2317.557 551.139, 2276 540.080 C 2256.698 534.943, 2228.353 533.660, 2207 536.957 M 2940 536.957 C 2916.656 540.562, 2899.845 546.928, 2880.605 559.450 C 2848.196 580.544, 2824.994 616.317, 2816.039 659 C 2808.776 693.622, 2812.143 735.136, 2824.758 766.500 C 2841.292 807.604, 2870.393 836.744, 2909.674 851.529 C 2943.323 864.195, 2989.677 864.195, 3023.326 851.529 C 3071.775 833.293, 3106.346 791.671, 3117.545 738.095 C 3126.216 696.608, 3120.877 651.895, 3103.051 616.711 C 3083.379 577.881, 3050.557 551.139, 3009 540.080 C 2989.698 534.943, 2961.353 533.660, 2940 536.957 M 4709.500 536.544 C 4662.609 544.392, 4621.249 574.240, 4600.027 615.546 C 4597.237 620.975, 4593.813 629.034, 4592.416 633.455 C 4589.982 641.161, 4587.018 657.481, 4587.006 663.250 L 4587 666 4725.653 666 L 4864.306 666 4863.651 654.750 C 4861.724 621.672, 4850.383 593.983, 4830.013 572.621 C 4814.286 556.128, 4798.255 546.674, 4775.508 540.477 C 4756.334 535.253, 4727.483 533.534, 4709.500 536.544 M 659.755 580.686 C 655.877 595.825, 649.568 608.296, 641.757 616.262 C 638.315 619.772, 634.402 623.323, 633.060 624.153 L 630.620 625.664 733.437 810.582 C 789.986 912.287, 836.426 995.692, 836.636 995.926 C 837.188 996.541, 858.566 982.001, 872 971.874 C 895.057 954.492, 916.002 935.697, 936.244 914.222 C 947.738 902.028, 962.009 885.394, 961.986 884.216 C 961.978 883.822, 957.660 881.744, 952.389 879.598 C 947.118 877.451, 940.037 873.677, 936.653 871.211 C 924.668 862.475, 892.570 829.425, 849.528 781.500 C 796.946 722.953, 703.210 614.187, 678.587 583.151 C 673.777 577.087, 665.403 570, 663.050 570 C 662.743 570, 661.260 574.809, 659.755 580.686 M 537.009 583.500 C 536.981 584.050, 529.369 667.251, 520.094 768.392 L 503.229 952.284 523.249 989.892 C 534.260 1010.576, 548.647 1037.962, 555.219 1050.750 L 567.169 1073.999 580.334 1073.455 C 624.094 1071.645, 653.259 1067.680, 690.840 1058.431 C 726.412 1049.677, 784.082 1028.261, 782.585 1024.361 C 782.214 1023.394, 543.312 593.405, 537.921 584 C 537.448 583.175, 537.038 582.950, 537.009 583.500" stroke="none" fill="#fffcfc" fill-rule="evenodd"/></svg>