<?xml version="1.0" encoding="UTF-8"?><svg id="Layer_2" xmlns="http://www.w3.org/2000/svg" viewBox="0 0 331.81 49.32"><defs><style>.cls-1{fill:#f2f2f2;}</style></defs><g id="Layer_1-2"><path class="cls-1" d="m27.8,48.12c-2.18.78-4.54,1.2-6.99,1.2C9.32,49.32,0,40.01,0,28.51S9.32,7.7,20.81,7.7c2.45,0,4.8.42,6.99,1.2-8.06,2.87-13.83,10.57-13.83,19.61s5.77,16.74,13.83,19.61ZM48.76,7.7c-2.45,0-4.8.42-6.99,1.2,8.06,2.87,13.83,10.57,13.83,19.61s-5.77,16.74-13.83,19.61c2.18.78,4.54,1.2,6.99,1.2,11.5,0,20.81-9.32,20.81-20.81S60.25,7.7,48.76,7.7Z"/><path class="cls-1" d="m133.55,43.3v-14.95c0-2.48,0-5.25-1.04-7.1-.87-1.5-2.37-2.25-4.45-2.25-2.42,0-5.02,1.56-6.81,4.04.23,1.44.29,3.12.29,4.79v15.47h-6.99v-14.95c0-2.48,0-5.43-1.16-7.28-.81-1.39-2.25-2.08-4.16-2.08-2.37,0-5.02,1.85-6.7,3.98v20.32h-6.99V13.57h6.41l.29,3.98c2.31-3.12,5.77-4.68,8.89-4.68s6.12,1.39,8.03,4.04c.23.35.4.69.63,1.15,2.71-3.87,6.52-5.2,10.1-5.2s6.18,1.39,7.97,3.7c2.25,2.89,2.71,6.87,2.71,11.26v15.47h-7.04Z"/><path class="cls-1" d="m174.43,28.41c0,8.72-6.52,15.59-15.42,15.59s-15.42-6.87-15.42-15.59,6.52-15.53,15.42-15.53,15.42,6.87,15.42,15.53Zm-15.42-9.41c-4.85,0-8.31,4.21-8.31,9.41s3.46,9.47,8.31,9.47,8.31-4.21,8.31-9.47-3.46-9.41-8.31-9.41Z"/><path class="cls-1" d="m206.93,28.41c0,8.72-6.52,15.59-15.42,15.59s-15.42-6.87-15.42-15.59,6.52-15.53,15.42-15.53,15.42,6.87,15.42,15.53Zm-15.42-9.41c-4.85,0-8.31,4.21-8.31,9.41s3.46,9.47,8.31,9.47,8.31-4.21,8.31-9.47-3.46-9.41-8.31-9.41Z"/><path class="cls-1" d="m216.57,13.57l.35,4.39c2.37-3.41,5.89-5.08,9.47-5.08s6.35,1.44,8.2,3.81c2.19,2.89,2.66,6.81,2.66,11.14v15.47h-6.99v-14.95c0-2.48-.06-5.25-1.16-7.1-.87-1.5-2.37-2.25-4.5-2.25-2.77,0-5.66,1.79-7.39,4.56v19.75h-6.99V13.57h6.35Z"/><path class="cls-1" d="m268.53,33.84h.12l5.31-20.21h7.16l-8.6,29.68h-7.33l-5.37-19.46h-.12l-5.49,19.46h-7.62l-8.2-29.68h7.51l4.85,20.27h.12l5.72-20.27h6.58l5.37,20.21Z"/><path class="cls-1" d="m287.12,30.2c.46,4.45,3.46,8.08,8.31,8.08,3.87,0,6.35-1.5,8.2-4.62l4.73,3.18c-3.29,4.85-7.16,7.16-13.34,7.16-9.18,0-14.95-6.53-14.95-15.36s6.52-15.76,14.95-15.76,14.03,5.83,14.03,13.8c0,1.1-.12,2.42-.29,3.52h-21.65Zm8.08-11.72c-4.27,0-6.75,2.89-7.68,6.7h14.38c-.17-3.87-3-6.7-6.7-6.7Z"/><path class="cls-1" d="m319.34,43.3h-6.99V0h6.99v43.3Z"/><path class="cls-1" d="m331.81,43.3h-6.99V0h6.99v43.3Z"/></g></svg>