<svg width="205" height="45" viewBox="0 0 205 45" fill="none" xmlns="http://www.w3.org/2000/svg">
<g clip-path="url(#clip0_1809_2280)">
<path d="M66.894 32.5146H69.9963L74.3183 17.7052L78.6402 32.5146H81.716L87.231 13.4584H84.0228L80.1516 28.1317L76.0418 13.4584H72.5683L68.4849 28.1317L64.5872 13.4584H61.3789L66.894 32.5146ZM92.7315 32.7868C94.7732 32.7868 96.205 32.0518 96.9739 30.8812C97.0535 31.6162 97.2126 32.1607 97.4512 32.5146H100.129C99.8376 31.7796 99.7049 30.8812 99.7049 29.7923V22.5237C99.7049 19.5019 97.7164 17.8685 94.1898 17.8685C91.6179 17.8685 89.5497 18.9574 88.4626 20.5092L90.2391 22.2242C91.1672 20.9992 92.4133 20.373 94.0307 20.373C95.9664 20.373 96.9474 21.0264 96.9474 22.197C96.9474 23.422 95.9664 24.0209 93.2883 24.0209C91.7504 24.0209 90.4513 24.3749 89.4172 25.0826C88.383 25.8177 87.8528 26.9066 87.8528 28.3767C87.8528 31.1807 89.8414 32.7868 92.7315 32.7868ZM93.1823 30.4185C91.6179 30.4185 90.6898 29.629 90.6898 28.3222C90.6898 26.9883 91.6974 26.226 93.4209 26.226C95.5686 26.226 96.4436 26.0355 96.9474 25.4094V26.9339C96.9474 29.0028 95.5421 30.4185 93.1823 30.4185ZM108.464 32.7868C112.096 32.7868 114.271 30.7996 114.271 28.3222C114.271 25.8994 112.786 24.7015 109.683 24.1299C107.032 23.667 105.866 23.1225 105.866 22.0064C105.866 20.9992 106.926 20.3458 108.543 20.3458C109.948 20.3458 111.089 20.8358 111.911 21.843L113.793 20.1824C112.627 18.7396 110.797 17.8685 108.49 17.8685C105.468 17.8685 103.134 19.5836 103.134 22.0337C103.134 24.3204 104.698 25.736 107.853 26.2805C110.426 26.7161 111.433 27.2061 111.433 28.3222C111.433 29.4384 110.346 30.2551 108.517 30.2551C106.846 30.2551 105.627 29.5745 104.911 28.1861L102.445 29.4384C102.869 30.4457 103.665 31.2351 104.805 31.8613C105.945 32.4874 107.165 32.7868 108.464 32.7868ZM121.447 32.7868C123.489 32.7868 124.921 32.0518 125.69 30.8812C125.77 31.6162 125.929 32.1607 126.168 32.5146H128.845C128.554 31.7796 128.421 30.8812 128.421 29.7923V22.5237C128.421 19.5019 126.432 17.8685 122.906 17.8685C120.334 17.8685 118.266 18.9574 117.179 20.5092L118.956 22.2242C119.883 20.9992 121.129 20.373 122.746 20.373C124.682 20.373 125.664 21.0264 125.664 22.197C125.664 23.422 124.682 24.0209 122.005 24.0209C120.467 24.0209 119.168 24.3749 118.133 25.0826C117.099 25.8177 116.569 26.9066 116.569 28.3767C116.569 31.1807 118.558 32.7868 121.447 32.7868ZM121.898 30.4185C120.334 30.4185 119.406 29.629 119.406 28.3222C119.406 26.9883 120.414 26.226 122.137 26.226C124.285 26.226 125.16 26.0355 125.664 25.4094V26.9339C125.664 29.0028 124.259 30.4185 121.898 30.4185ZM139.599 17.8685C137.611 17.8685 135.94 18.7396 135.013 19.9102V13.1861H132.149V32.5146H134.721L135.251 31.1262C136.232 32.1879 137.69 32.7868 139.387 32.7868C143.497 32.7868 146.176 29.6834 146.176 25.3005C146.176 20.9175 143.524 17.8685 139.599 17.8685ZM139.123 30.2551C136.497 30.2551 134.8 28.0227 134.8 25.3005C134.8 22.5781 136.497 20.4003 139.123 20.4003C140.422 20.4003 141.456 20.863 142.198 21.7887C142.94 22.7414 143.312 23.912 143.312 25.3005C143.312 26.7161 142.94 27.8866 142.198 28.8395C141.456 29.7923 140.422 30.2551 139.123 30.2551ZM149.421 32.5146H152.284V18.1407H149.421V32.5146ZM149.315 16.0717H152.417V12.8594H149.315V16.0717Z" fill="white"/>
<path d="M204.256 30.1309V32.4496H192.211V30.4703L198.487 22.4683C198.79 22.0913 199.091 21.7049 199.393 21.309C199.713 20.9132 200.033 20.5267 200.354 20.1497C199.845 20.1686 199.336 20.1779 198.827 20.1779C198.318 20.1779 197.809 20.1779 197.3 20.1779H192.436V17.8594H203.917V19.8387L197.64 27.8406C197.337 28.2176 197.027 28.6041 196.706 28.9999C196.405 29.3958 196.094 29.7822 195.773 30.1593C196.282 30.1404 196.792 30.1309 197.3 30.1309C197.809 30.1309 198.318 30.1309 198.827 30.1309H204.256Z" fill="white"/>
<path d="M190.535 17.8594L184.597 34.2874C184.352 35.0226 184.06 35.6258 183.721 36.0971C183.4 36.5872 183.024 36.9737 182.59 37.2564C182.156 37.5579 181.656 37.7653 181.091 37.8785C180.544 38.0104 179.912 38.0764 179.197 38.0764C178.913 38.0764 178.659 38.0669 178.433 38.048C178.207 38.048 177.972 38.0293 177.727 37.9915V35.7012H179.14C179.856 35.7012 180.403 35.5504 180.78 35.2489C181.176 34.9472 181.478 34.5137 181.685 33.9482C181.816 33.59 181.949 33.2224 182.081 32.8454L176.68 17.8594H179.762L181.458 22.8642C181.836 24.0328 182.203 25.2016 182.561 26.3703C182.938 27.5202 183.296 28.6795 183.636 29.8481C183.994 28.6795 184.352 27.5202 184.71 26.3703C185.087 25.2016 185.464 24.0328 185.841 22.8642L187.538 17.8594H190.535Z" fill="white"/>
<path d="M175.754 32.4496H172.473L171.795 31.4882L168.628 27.0206C168.119 27.7369 167.591 28.4721 167.045 29.2261C166.498 29.9802 165.961 30.7436 165.433 31.5164L164.755 32.4496H161.531L167.016 24.9565L161.814 17.8594H165.093L166.083 19.2166C166.517 19.8198 166.951 20.4324 167.384 21.0545C167.818 21.6766 168.251 22.2987 168.684 22.9207C169.118 22.2987 169.552 21.6766 169.985 21.0545C170.419 20.4324 170.853 19.8198 171.286 19.2166L172.248 17.8594H175.471L170.268 24.9565L175.754 32.4496Z" fill="white"/>
<path d="M156.121 29.0859H159.543V32.4507H156.121V29.0859Z" fill="white"/>
<path d="M29.7849 25.0256C27.5884 25.0264 25.4305 24.4488 23.5281 23.3508L22.0352 22.4872L23.5281 21.622C25.1273 20.699 26.4554 19.3711 27.3787 17.772C28.3021 16.173 28.7882 14.3589 28.7882 12.5123C28.7882 10.6658 28.3021 8.85187 27.3787 7.25278C26.4554 5.65368 25.1273 4.32585 23.5281 3.40275L22.0352 2.5404L23.5281 1.6764C25.1903 0.716754 27.0509 0.152332 28.9661 0.0267961C30.8813 -0.0987398 32.7996 0.217975 34.5728 0.952442C36.3461 1.68691 37.9265 2.81944 39.192 4.26242C40.4575 5.70541 41.3741 7.42016 41.8709 9.27405C42.3676 11.128 42.4313 13.0712 42.0569 14.9537C41.6825 16.8361 40.8801 18.6071 39.7118 20.1299C38.5434 21.6525 37.0404 22.8861 35.319 23.735C33.5977 24.584 31.7041 25.0255 29.7849 25.0256ZM26.0218 22.3353C27.6143 22.9447 29.3312 23.1577 31.0243 22.9559C32.7176 22.7542 34.3363 22.1437 35.7411 21.1771C37.1458 20.2105 38.2944 18.9169 39.088 17.4077C39.8816 15.8984 40.2962 14.2188 40.2962 12.5136C40.2962 10.8085 39.8816 9.12887 39.088 7.6196C38.2944 6.11035 37.1458 4.81668 35.7411 3.85012C34.3363 2.88356 32.7176 2.27309 31.0243 2.07132C29.3312 1.86954 27.6143 2.08252 26.0218 2.69191C27.5066 3.86244 28.7067 5.3544 29.5319 7.05558C30.357 8.75676 30.7857 10.6229 30.7857 12.5136C30.7857 14.4044 30.357 16.2705 29.5319 17.9716C28.7067 19.6729 27.5066 21.1648 26.0218 22.3353Z" fill="white"/>
<path d="M18.2703 44.9693C16.3518 44.9682 14.459 44.5258 12.7386 43.6764C11.0182 42.8271 9.51622 41.5935 8.34871 40.0709C7.18121 38.5484 6.3795 36.7778 6.00556 34.8958C5.63162 33.014 5.69547 31.0713 6.19218 29.2182C6.68889 27.3649 7.60515 25.6507 8.87011 24.2082C10.1351 22.7655 11.7148 21.6332 13.4873 20.8987C15.2597 20.1641 17.1774 19.847 19.092 19.9718C21.0066 20.0967 22.8668 20.6603 24.5288 21.6189L26.0218 22.4829L24.5288 23.3477C22.9293 24.2706 21.6011 25.5984 20.6776 27.1975C19.7541 28.7966 19.2679 30.6107 19.2679 32.4574C19.2679 34.3039 19.7541 36.118 20.6776 37.7172C21.6011 39.3162 22.9293 40.644 24.5288 41.5669L26.0218 42.4305L24.5288 43.2945C22.626 44.3927 20.4674 44.9703 18.2703 44.9693ZM18.2703 21.9411C16.7277 21.9417 15.204 22.2818 13.8075 22.9372C12.4109 23.5926 11.1756 24.5472 10.1892 25.7333C9.20281 26.9194 8.48946 28.3081 8.09975 29.8007C7.71003 31.2934 7.65349 32.8535 7.93414 34.3704C8.21479 35.8874 8.82576 37.324 9.7237 38.5785C10.6217 39.8329 11.7846 40.8744 13.13 41.6291C14.4756 42.3838 15.9706 42.8333 17.5092 42.9456C19.0478 43.0579 20.5923 42.8303 22.0331 42.279C20.5484 41.1084 19.3484 39.6164 18.5233 37.9152C17.6983 36.2141 17.2696 34.348 17.2696 32.4574C17.2696 30.5666 17.6983 28.7005 18.5233 26.9994C19.3484 25.2982 20.5484 23.8062 22.0331 22.6356C20.8317 22.1764 19.5565 21.941 18.2703 21.9411Z" fill="white"/>
<path d="M23.0287 24.2157V22.4857C23.0283 20.6399 22.5423 18.8267 21.6193 17.2283C20.6963 15.6299 19.369 14.3024 17.7706 13.3794C16.1723 12.4562 14.3592 11.97 12.5134 11.9694C10.6677 11.9689 8.85421 12.454 7.25527 13.376L5.75781 14.2425V12.512C5.75901 10.5892 6.20339 8.69234 7.05648 6.96902C7.90956 5.24568 9.14836 3.74216 10.6768 2.57521C12.205 1.40826 13.9818 0.609277 15.869 0.240307C17.7561 -0.128664 19.703 -0.0576926 21.5583 0.447709C23.4136 0.95311 25.1275 1.87934 26.5669 3.15448C28.0061 4.42961 29.1322 6.01934 29.8575 7.80021C30.5829 9.58108 30.888 11.5052 30.7491 13.423C30.6103 15.341 30.0313 17.2011 29.0571 18.859C27.9583 20.72 26.3986 22.2664 24.5283 23.3493L23.0287 24.2157ZM12.5126 9.97327C15.5182 9.97365 18.4233 11.0555 20.6972 13.021C22.9709 14.9866 24.4616 17.7047 24.8968 20.6787C26.1128 19.6935 27.0932 18.449 27.7662 17.0361C28.4393 15.6232 28.788 14.0778 28.7869 12.5128C28.7853 9.86776 27.7874 7.32034 25.9917 5.37821C24.1959 3.43608 21.7344 2.24184 19.0975 2.03348C16.4606 1.82512 13.8421 2.61793 11.7636 4.25393C9.68518 5.88993 8.29946 8.24899 7.88259 10.861C9.35584 10.2748 10.927 9.97358 12.5126 9.97327Z" fill="white"/>
<path d="M7.75304 34.1924L6.25517 33.3263C4.35285 32.2281 2.77321 30.6484 1.67516 28.7461C0.577117 26.8436 -0.000641067 24.6857 5.33791e-07 22.4891C-0.000103978 20.0143 0.733654 17.5952 2.10848 15.5375C3.48331 13.4798 5.43745 11.8761 7.72379 10.929C10.0101 9.98198 12.5259 9.7342 14.9531 10.217C17.3802 10.6998 19.6097 11.8916 21.3596 13.6415C22.525 14.8008 23.449 16.1795 24.078 17.6983C24.7069 19.217 25.0285 20.8454 25.024 22.4891V24.2191L23.5265 23.3527C21.9277 22.4301 20.1141 21.9447 18.2683 21.9451C16.4223 21.9456 14.609 22.4318 13.0105 23.3549C11.412 24.2781 10.0847 25.6057 9.16182 27.2043C8.23895 28.803 7.75308 30.6164 7.75304 32.4623V34.1924ZM12.5119 11.9729C10.6591 11.9733 8.83909 12.4632 7.23633 13.393C5.63356 14.3228 4.30487 15.6595 3.38471 17.2679C2.46456 18.8762 1.9856 20.699 1.99633 22.552C2.00704 24.4048 2.50705 26.2221 3.44576 27.8196C4.08424 28.902 4.91052 29.8618 5.88583 30.654C6.15992 28.7841 6.85381 27.0006 7.91547 25.437C8.97713 23.8734 10.379 22.5706 12.016 21.626C13.653 20.6815 15.4826 20.1198 17.3674 19.9831C19.2525 19.8465 21.1439 20.1383 22.9 20.8369C22.5053 18.3655 21.2428 16.1157 19.339 14.4912C17.4351 12.8667 15.0147 11.9738 12.5119 11.9729Z" fill="white"/>
<path d="M29.7848 44.9748C27.0299 44.9753 24.3518 44.0667 22.166 42.3898C19.9802 40.7129 18.4089 38.3616 17.6959 35.7005C16.9829 33.0394 17.168 30.2175 18.2225 27.6724C19.2769 25.1272 21.1419 23.0013 23.5281 21.6242L25.0255 20.7578V22.4883C25.0258 24.3341 25.5117 26.1475 26.4347 27.7461C27.3577 29.3446 28.685 30.6723 30.2834 31.5955C31.8817 32.5187 33.695 33.0051 35.5409 33.0058C37.3867 33.0064 39.2003 32.5213 40.7994 31.5991L42.2968 30.7327V32.4627C42.2968 35.7811 40.9786 38.9636 38.6322 41.3101C36.2857 43.6565 33.1033 44.9748 29.7848 44.9748ZM23.1587 24.2962C21.4708 25.665 20.2485 27.5231 19.6598 29.6151C19.0711 31.707 19.1452 33.93 19.8716 35.9781C20.5981 38.0263 21.9412 39.799 23.7164 41.0525C25.4916 42.3061 27.6116 42.9787 29.7848 42.9781C32.2874 42.9768 34.7076 42.0836 36.611 40.459C38.5145 38.8344 39.7767 36.5845 40.1712 34.1133C38.4153 34.8118 36.524 35.1036 34.6392 34.967C32.7544 34.8304 30.925 34.2687 29.2882 33.3242C27.6514 32.3798 26.2496 31.077 25.1881 29.5136C24.1265 27.9502 23.4328 26.1667 23.1587 24.297V24.2962Z" fill="white"/>
<path d="M35.5418 34.9969C33.8986 34.9972 32.2713 34.6737 30.753 34.045C29.2347 33.4164 27.8551 32.4948 26.6931 31.333C25.5309 30.171 24.6091 28.7917 23.9801 27.2735C23.3512 25.7553 23.0274 24.1282 23.0273 22.4849V20.7544L24.5268 21.6196C26.1256 22.5417 27.9389 23.0268 29.7844 23.0263C31.63 23.0257 33.4429 22.5395 35.0411 21.6166C36.6393 20.6936 37.9665 19.3663 38.8894 17.7681C39.8122 16.1698 40.2983 14.3569 40.2987 12.5113V10.7812L41.7965 11.6477C43.699 12.7457 45.2788 14.3254 46.3768 16.2278C47.4749 18.1302 48.0525 20.2883 48.0517 22.4849C48.0516 25.8029 46.7337 28.985 44.3877 31.3314C42.0417 33.6777 38.8598 34.9963 35.5418 34.9969ZM25.1517 24.1368C25.3952 25.6639 25.9724 27.1186 26.8423 28.3973C27.7122 29.6758 28.8534 30.747 30.1845 31.5341C31.5157 32.3213 33.0041 32.8052 34.5436 32.9515C36.0832 33.0977 37.636 32.9026 39.0915 32.3801C40.547 31.8576 41.8695 31.0205 42.9645 29.9285C44.0596 28.8366 44.9004 27.5165 45.4269 26.0625C45.9536 24.6084 46.153 23.056 46.0111 21.5161C45.8692 19.9761 45.3894 18.4865 44.606 17.1531C43.9674 16.0709 43.1411 15.1111 42.1659 14.3187C41.8919 16.1887 41.1982 17.9724 40.1365 19.536C39.0749 21.0997 37.6731 22.4027 36.036 23.3473C34.3991 24.292 32.5695 24.8537 30.6845 24.9903C28.7994 25.1271 26.9079 24.8352 25.1517 24.1368Z" fill="white"/>
</g>
<defs>
<clipPath id="clip0_1809_2280">
<rect width="204.286" height="45" fill="white"/>
</clipPath>
</defs>
</svg>
