<svg width="16" height="16" viewBox="0 0 16 16" fill="none" xmlns="http://www.w3.org/2000/svg">
<g clip-path="url(#clip0_4_1392)">
<path d="M7.05101 5.80263C7.47323 5.04521 7.68434 4.6665 7.99996 4.6665C8.31558 4.6665 8.52669 5.04521 8.9489 5.80263L9.05814 5.99858C9.17812 6.21382 9.23811 6.32143 9.33165 6.39244C9.42518 6.46345 9.54168 6.4898 9.77466 6.54252L9.98678 6.59051C10.8067 6.77602 11.2166 6.86878 11.3142 7.18241C11.4117 7.49605 11.1322 7.82286 10.5733 8.47648L10.4287 8.64558C10.2698 8.83132 10.1904 8.92418 10.1547 9.03908C10.1189 9.15397 10.131 9.27787 10.155 9.52569L10.1768 9.7513C10.2613 10.6234 10.3036 11.0594 10.0482 11.2532C9.7929 11.4471 9.40907 11.2704 8.6414 10.9169L8.4428 10.8254C8.22465 10.725 8.11558 10.6748 7.99996 10.6748C7.88434 10.6748 7.77527 10.725 7.55712 10.8254L7.35852 10.9169C6.59085 11.2704 6.20702 11.4471 5.95168 11.2532C5.69633 11.0594 5.73859 10.6234 5.82309 9.7513L5.84495 9.52569C5.86897 9.27787 5.88097 9.15397 5.84525 9.03908C5.80952 8.92418 5.7301 8.83132 5.57127 8.64558L5.42666 8.47648C4.86771 7.82286 4.58823 7.49605 4.68577 7.18241C4.7833 6.86878 5.19324 6.77602 6.01314 6.59051L6.22525 6.54252C6.45824 6.4898 6.57474 6.46345 6.66827 6.39244C6.76181 6.32143 6.8218 6.21382 6.94178 5.99858L7.05101 5.80263Z" fill="#9FE870"/>
<path fill-rule="evenodd" clip-rule="evenodd" d="M8.00004 0.833496C8.27618 0.833496 8.50004 1.05735 8.50004 1.3335V2.66683C8.50004 2.94297 8.27618 3.16683 8.00004 3.16683C7.7239 3.16683 7.50004 2.94297 7.50004 2.66683V1.3335C7.50004 1.05735 7.7239 0.833496 8.00004 0.833496ZM12.3537 3.64653C12.5489 3.84179 12.5489 4.15838 12.3537 4.35364L12.1248 4.58248C11.9296 4.77774 11.613 4.77774 11.4177 4.58248C11.2225 4.38722 11.2225 4.07064 11.4177 3.87537L11.6466 3.64653C11.8418 3.45127 12.1584 3.45127 12.3537 3.64653ZM3.64649 3.64661C3.84175 3.45135 4.15833 3.45135 4.35359 3.64661L4.58244 3.87545C4.7777 4.07071 4.7777 4.3873 4.58244 4.58256C4.38717 4.77782 4.07059 4.77782 3.87533 4.58256L3.64649 4.35372C3.45123 4.15845 3.45123 3.84187 3.64649 3.64661ZM0.833374 8.00016C0.833374 7.72402 1.05723 7.50016 1.33337 7.50016H2.66671C2.94285 7.50016 3.16671 7.72402 3.16671 8.00016C3.16671 8.27631 2.94285 8.50016 2.66671 8.50016H1.33337C1.05723 8.50016 0.833374 8.27631 0.833374 8.00016ZM12.8334 8.00016C12.8334 7.72402 13.0572 7.50016 13.3334 7.50016H14.6667C14.9428 7.50016 15.1667 7.72402 15.1667 8.00016C15.1667 8.27631 14.9428 8.50016 14.6667 8.50016H13.3334C13.0572 8.50016 12.8334 8.27631 12.8334 8.00016ZM4.58236 11.4178C4.77762 11.6131 4.77762 11.9297 4.58236 12.125L4.35366 12.3537C4.1584 12.5489 3.84182 12.5489 3.64655 12.3537C3.45129 12.1584 3.45129 11.8418 3.64655 11.6465L3.87525 11.4178C4.07051 11.2226 4.3871 11.2226 4.58236 11.4178ZM11.4177 11.418C11.613 11.2227 11.9296 11.2227 12.1248 11.418L12.3535 11.6467C12.5488 11.842 12.5488 12.1585 12.3535 12.3538C12.1583 12.5491 11.8417 12.5491 11.6464 12.3538L11.4177 12.1251C11.2224 11.9298 11.2224 11.6133 11.4177 11.418ZM8.00004 12.8335C8.27618 12.8335 8.50004 13.0574 8.50004 13.3335V14.6668C8.50004 14.943 8.27618 15.1668 8.00004 15.1668C7.7239 15.1668 7.50004 14.943 7.50004 14.6668V13.3335C7.50004 13.0574 7.7239 12.8335 8.00004 12.8335Z" fill="#D3F4BD"/>
</g>
<defs>
<clipPath id="clip0_4_1392">
<rect width="16" height="16" rx="3.33333" fill="white"/>
</clipPath>
</defs>
</svg>
