<svg width="20" height="17" viewBox="0 0 20 17" fill="none" xmlns="http://www.w3.org/2000/svg">
<path fill-rule="evenodd" clip-rule="evenodd" d="M20 15.2105C20 14.8399 19.6876 14.5395 19.3023 14.5395H11.7252C11.5364 14.0909 11.164 13.7327 10.6977 13.5511V10.7368H16.5116C18.0529 10.7368 19.3023 9.53508 19.3023 8.05263C19.3023 6.57018 18.0529 5.36842 16.5116 5.36842C18.0529 5.36842 19.3023 4.16666 19.3023 2.68421C19.3023 1.20176 18.0529 0 16.5116 0H3.48837C1.94711 0 0.697674 1.20176 0.697674 2.68421C0.697674 4.16666 1.94711 5.36842 3.48837 5.36842C1.94711 5.36842 0.697674 6.57018 0.697674 8.05263C0.697674 9.53508 1.94711 10.7368 3.48837 10.7368H9.30233V13.5511C8.83595 13.7327 8.46355 14.0909 8.27477 14.5395H0.697674C0.312359 14.5395 0 14.8399 0 15.2105C0 15.5811 0.312359 15.8816 0.697674 15.8816H8.27477C8.55077 16.5374 9.21922 17 10 17C10.7808 17 11.4492 16.5374 11.7252 15.8816H19.3023C19.6876 15.8816 20 15.5811 20 15.2105ZM10.2326 2.68421C10.2326 2.3136 10.5449 2.01316 10.9302 2.01316H16.5116C16.8969 2.01316 17.2093 2.3136 17.2093 2.68421C17.2093 3.05482 16.8969 3.35526 16.5116 3.35526H10.9302C10.5449 3.35526 10.2326 3.05482 10.2326 2.68421ZM10.2326 8.05263C10.2326 7.68202 10.5449 7.38158 10.9302 7.38158H16.5116C16.8969 7.38158 17.2093 7.68202 17.2093 8.05263C17.2093 8.42324 16.8969 8.72368 16.5116 8.72368H10.9302C10.5449 8.72368 10.2326 8.42324 10.2326 8.05263ZM4.4186 3.57895C4.93236 3.57895 5.34884 3.17836 5.34884 2.68421C5.34884 2.19006 4.93236 1.78947 4.4186 1.78947C3.90485 1.78947 3.48837 2.19006 3.48837 2.68421C3.48837 3.17836 3.90485 3.57895 4.4186 3.57895ZM4.4186 8.94737C4.93236 8.94737 5.34884 8.54678 5.34884 8.05263C5.34884 7.55848 4.93236 7.15789 4.4186 7.15789C3.90485 7.15789 3.48837 7.55848 3.48837 8.05263C3.48837 8.54678 3.90485 8.94737 4.4186 8.94737Z" fill="white"/>
</svg>
